<svg width="17" height="17" viewBox="0 0 17 17" fill="none" xmlns="http://www.w3.org/2000/svg">
<g clipPath="url(#clip0_1_9907)">
<path d="M12.8556 13.3776C12.7861 13.3776 12.7194 13.35 12.6702 13.3008C12.621 13.2516 12.5933 13.1849 12.5933 13.1153C12.5933 13.0846 12.5805 10.0038 11.5703 7.98636C10.7023 6.24987 7.99712 5.84722 7.46358 5.78427C7.33306 5.76917 7.20614 5.73154 7.08848 5.67305C6.93783 5.59907 6.80506 5.49325 6.69935 5.3629C6.59364 5.23255 6.51752 5.08079 6.47625 4.91812C6.20974 3.86415 5.41887 1.43699 3.67477 0.642189V2.09828C3.67477 2.16785 3.64713 2.23456 3.59794 2.28376C3.54875 2.33295 3.48203 2.36059 3.41246 2.36059C3.34289 2.36059 3.27617 2.33295 3.22698 2.28376C3.17778 2.23456 3.15015 2.16785 3.15015 2.09828V0.262101C3.1501 0.220892 3.15977 0.180252 3.17836 0.143476C3.19695 0.106699 3.22395 0.0748203 3.25716 0.0504231C3.29037 0.0260259 3.32886 0.00979656 3.36952 0.00305046C3.41017 -0.00369564 3.45184 -0.000768712 3.49115 0.011594C5.72709 0.704357 6.68085 3.58322 6.98697 4.78906C7.01877 4.91332 7.08739 5.02507 7.18382 5.10965C7.28024 5.19424 7.39998 5.24771 7.52733 5.26305C8.34285 5.35985 11.0782 5.82414 12.0422 7.75186C13.1056 9.8813 13.118 12.9842 13.118 13.1153C13.118 13.1849 13.0903 13.2516 13.0411 13.3008C12.9919 13.35 12.9252 13.3776 12.8556 13.3776Z" fill="#5285DC"/>
<path d="M4.72459 16.7878H2.6261C2.55654 16.7878 2.48982 16.7602 2.44062 16.711C2.39143 16.6618 2.36379 16.5951 2.36379 16.5255C2.36379 15.0762 3.13236 14.5972 3.59062 14.4412C3.8852 14.3404 4.19997 14.1463 4.19997 13.9024V12.3285C4.16442 12.001 4.00973 11.698 3.76532 11.4771C2.19933 10.1112 2.44432 8.28683 2.576 7.30632C2.60161 7.14525 2.61834 6.9829 2.6261 6.81999C2.6261 6.29773 2.6261 6.29773 1.6044 5.90191L1.21881 5.75186C0.99768 5.64353 0.00299712 5.11287 0.00299712 4.4592C-0.0122965 4.10364 0.109059 3.75572 0.342165 3.48681C0.37105 3.45815 0.406143 3.43652 0.444728 3.42359L1.09316 3.20745C1.22257 2.66374 1.50832 2.1698 1.91516 1.78659C2.322 1.40339 2.83213 1.14767 3.38261 1.05099C3.4515 1.04317 3.52068 1.06294 3.57504 1.10598C3.6294 1.14902 3.6645 1.21183 3.67269 1.28068C3.68087 1.34952 3.66146 1.41881 3.6187 1.47339C3.57595 1.52797 3.51332 1.5634 3.44451 1.57194C2.97479 1.65506 2.54239 1.88178 2.20688 2.22087C1.87136 2.55995 1.64924 2.99472 1.57109 3.4653C1.56143 3.50983 1.54034 3.55108 1.50989 3.58498C1.47944 3.61888 1.44068 3.64426 1.39744 3.65862L0.682644 3.89706C0.575281 4.06444 0.521225 4.26045 0.527619 4.4592C0.527619 4.69528 1.05224 5.08376 1.43207 5.27367L1.79379 5.41322C2.91701 5.84761 3.15073 5.9381 3.15073 6.81999C3.14362 7.00646 3.12531 7.19234 3.0959 7.37662C2.96894 8.32093 2.75674 9.90109 4.11 11.0815C4.46317 11.399 4.68281 11.8386 4.72459 12.3117V13.9024C4.72459 14.3446 4.36391 14.7313 3.76007 14.9375C3.25119 15.1111 2.95635 15.567 2.89891 16.2632H4.72459C4.79416 16.2632 4.86088 16.2908 4.91007 16.34C4.95927 16.3892 4.9869 16.4559 4.9869 16.5255C4.9869 16.5951 4.95927 16.6618 4.91007 16.711C4.86088 16.7602 4.79416 16.7878 4.72459 16.7878Z" fill="#5285DC"/>
<path d="M13.9066 16.7879H5.77501C5.70544 16.7879 5.63872 16.7603 5.58952 16.7111C5.54033 16.6619 5.5127 16.5952 5.5127 16.5256C5.5127 15.0732 6.71382 14.6894 7.34887 14.6894H7.53695C7.05084 14 6.80083 13.1718 6.82425 12.3286C6.82425 10.6687 8.36847 10.2301 9.18505 10.2301C9.25461 10.2301 9.32133 10.2578 9.37053 10.307C9.41972 10.3562 9.44736 10.4229 9.44736 10.4924C9.44736 10.562 9.41972 10.6287 9.37053 10.6779C9.32133 10.7271 9.25461 10.7548 9.18505 10.7548C9.11002 10.7548 7.34887 10.781 7.34887 12.3286C7.34887 14.0142 8.28375 14.7348 8.29319 14.7419C8.33723 14.7749 8.36977 14.821 8.38618 14.8735C8.4026 14.9261 8.40206 14.9824 8.38465 15.0347C8.36724 15.0869 8.33384 15.1323 8.28918 15.1645C8.24452 15.1967 8.19086 15.214 8.1358 15.214H7.34887C7.22532 15.214 6.20677 15.2536 6.05594 16.2633H13.9066C15.3383 16.2633 16.0051 15.1797 16.0051 12.8532C16.0051 11.3914 15.533 10.6498 14.7555 9.61291C14.6372 9.48701 13.9066 8.64446 13.9066 7.0824C13.9066 5.62999 14.9362 5.24623 15.4805 5.24623H15.7428C15.882 5.24623 16.0154 5.19096 16.1138 5.09257C16.2122 4.99418 16.2674 4.86074 16.2674 4.72161C16.2674 4.58247 16.2122 4.44903 16.1138 4.35064C16.0154 4.25226 15.882 4.19698 15.7428 4.19698H15.4805C15.4661 4.19698 14.0047 4.20774 13.3052 4.90706C12.6056 5.60638 12.5951 7.32766 12.5951 7.34471C12.5951 7.41428 12.5674 7.481 12.5183 7.5302C12.4691 7.57939 12.4023 7.60702 12.3328 7.60702C12.2632 7.60702 12.1965 7.57939 12.1473 7.5302C12.0981 7.481 12.0705 7.41428 12.0705 7.34471C12.0705 7.26602 12.0804 5.39024 12.9343 4.53615C13.7881 3.68207 15.4118 3.67236 15.4805 3.67236H15.7428C16.0211 3.67236 16.288 3.78291 16.4847 3.97968C16.6815 4.17645 16.7921 4.44333 16.7921 4.72161C16.7921 4.99988 16.6815 5.26676 16.4847 5.46353C16.288 5.6603 16.0211 5.77085 15.7428 5.77085H15.4805C15.3756 5.77085 14.4313 5.82095 14.4313 7.0824C14.4313 8.51646 15.1353 9.25145 15.1421 9.25958C15.1505 9.26784 15.1584 9.2766 15.1657 9.28581C15.9896 10.3844 16.5297 11.2269 16.5297 12.8532C16.5297 13.8264 16.5297 16.7879 13.9066 16.7879Z" fill="#5285DC"/>
</g>
<defs>
<clipPath id="clip0_1_9907">
<rect width="16.7879" height="16.7879" fill="white"/>
</clipPath>
</defs>
</svg>
