<svg width="17" height="17" viewBox="0 0 17 17" fill="none" xmlns="http://www.w3.org/2000/svg">
<g clipPath="url(#clip0_1_9898)">
<path d="M3.76664 15.8147H5.52385C5.59163 15.8147 5.65438 15.7871 5.70208 15.7419C5.73471 15.7093 6.52797 14.896 6.52797 13.3045C6.52797 13.1639 6.52797 13.0333 6.52294 12.9103C6.74636 13.2392 7.02249 13.5505 7.35134 13.7663C7.46682 13.8417 7.62245 13.809 7.69776 13.6935C7.77307 13.5781 7.74044 13.4224 7.62496 13.3471C6.93965 12.9003 6.50286 11.8836 6.33969 11.4393C6.29702 11.2837 6.25936 11.2058 6.24932 11.1858C6.19159 11.0703 6.05352 11.0151 5.93303 11.0653C5.81253 11.113 5.74726 11.246 5.78492 11.3715C5.78994 11.3866 5.81253 11.4669 5.85772 11.5899C5.9255 11.8384 6.0234 12.3706 6.0234 13.307C6.0234 14.4266 5.57405 15.1018 5.40586 15.3152H4.01516C4.01516 15.1621 4.46199 15.0642 4.76825 15.0642C4.89376 15.0642 4.9992 14.9713 5.01677 14.8483C5.06948 14.4742 5.50879 11.1632 4.41681 10.3448C3.52816 9.67708 3.5131 8.29892 3.5131 8.28637C3.5131 7.19189 3.91977 6.20032 4.2185 5.47484C4.39171 5.05061 4.51722 4.74435 4.51722 4.52093C4.51722 3.92599 3.85952 3.76785 3.5131 3.76785C2.6596 3.76785 2.36088 3.24068 2.27051 3.01225C2.26298 2.98965 2.25796 2.96455 2.25796 2.93694C2.25796 2.83151 2.33577 2.74114 2.4387 2.72607C2.82026 2.67085 3.34491 2.53278 3.69133 2.18636C3.72648 2.15122 3.74907 2.10603 3.75911 2.05834C3.76915 2.01566 3.99759 1.00401 5.27031 1.00401C6.65097 1.00401 7.52957 2.15875 7.52957 2.76122C7.52957 3.05994 7.4869 3.11517 7.48439 3.11768C7.47686 3.1227 7.44422 3.13525 7.41912 3.14529C7.33879 3.17542 7.2183 3.2206 7.10031 3.33859C6.98233 3.45657 6.91957 3.58961 6.85681 3.71011C6.73381 3.95612 6.68611 4.01636 6.52294 4.01636C6.33969 4.01636 6.08615 3.9762 5.92048 3.7804C5.72467 3.54945 5.66945 3.1227 5.76484 2.55035C5.78743 2.4148 5.69455 2.28426 5.55899 2.26167C5.42093 2.23657 5.2929 2.33196 5.27031 2.46751C5.1473 3.20052 5.23767 3.75027 5.5364 4.10422C5.76484 4.37534 6.10624 4.51842 6.52044 4.51842C7.00994 4.51842 7.18566 4.16698 7.30365 3.93352C7.35134 3.83813 7.39653 3.74776 7.45175 3.69254C7.49192 3.65237 7.53208 3.63731 7.58982 3.61472C7.87348 3.50928 8.02661 3.3411 8.02661 2.76122C8.02661 1.86253 6.92459 0.501953 5.26529 0.501953C3.98253 0.501953 3.42273 1.35796 3.28216 1.87508C3.08133 2.04578 2.7575 2.16879 2.36088 2.22904C2.01446 2.27924 1.75088 2.58299 1.75088 2.93694C1.75088 3.02731 1.76594 3.11266 1.79857 3.19299C1.89647 3.44402 2.31067 4.26739 3.50808 4.26739C3.5131 4.26739 4.01014 4.28246 4.01014 4.51842C4.01014 4.64394 3.88212 4.9527 3.74907 5.28155C3.45286 6.00201 3.00602 7.08896 3.00602 8.28386C3.00602 8.35164 3.01857 9.9256 4.11055 10.744C4.72306 11.2033 4.70298 13.2492 4.54232 14.5696C4.0252 14.6148 3.50808 14.8282 3.50808 15.3127V15.5637C3.50808 15.7018 3.62105 15.8147 3.75911 15.8147H3.76664Z" fill="#5285DC"/>
<path d="M12.8 13.3044H12.805C12.943 13.3019 13.0535 13.1864 13.051 13.0484C13.0309 11.9639 12.9004 11.256 12.2527 10.3925C11.9088 9.93311 11.5122 9.70969 11.093 9.47372C10.5055 9.14237 9.84032 8.76582 8.98933 7.63117C8.17599 6.54672 7.74171 5.54009 7.52081 4.88742C7.47562 4.75688 7.33504 4.68659 7.202 4.72927C7.07146 4.77445 7.00118 4.91754 7.04385 5.04808C7.27731 5.7359 7.73418 6.79524 8.58768 7.9324C9.50143 9.1499 10.247 9.57163 10.8444 9.91052C11.2486 10.139 11.5699 10.3197 11.8511 10.6937C12.4234 11.4569 12.5288 12.0418 12.5489 13.0584C12.5514 13.1965 12.6644 13.3044 12.8 13.3044Z" fill="#5285DC"/>
<path d="M6.78079 15.8148H10.7973C11.2742 15.8148 12.7026 15.8148 13.0314 14.4542C14.884 13.0761 15.0597 10.9674 14.2765 9.65954C13.7218 8.73576 12.6724 8.30399 11.942 8.21361C11.6683 8.17847 11.3018 8.17596 11.1211 8.3567C11.0583 8.41946 11.0332 8.50732 11.0533 8.59267C11.0734 8.67802 11.1361 8.7458 11.219 8.77341C11.2315 8.77843 12.6147 9.26041 13.0691 10.6235C13.4983 11.9088 12.7001 12.323 12.6925 12.328C12.5695 12.3907 12.5193 12.5414 12.5796 12.6644C12.6398 12.7874 12.7929 12.8376 12.9159 12.7773C12.9285 12.7723 14.1083 12.1573 13.5435 10.4653C13.2774 9.66958 12.7628 9.1374 12.2984 8.79851C12.8206 8.95415 13.4632 9.28802 13.8422 9.92061C14.5225 11.0528 14.3368 12.9054 12.6574 14.1053C12.6047 14.1429 12.5695 14.1982 12.557 14.2609C12.4164 14.9889 11.8742 15.3127 10.7947 15.3127H7.02931C7.03182 15.2776 7.06947 15.0617 7.53137 15.0617C8.43005 15.0617 8.74635 14.4467 8.7589 14.4216C8.79906 14.3412 8.79404 14.2459 8.74384 14.1705C8.73882 14.163 8.28445 13.4626 8.28445 12.5514C8.28445 11.718 9.14297 11.2737 9.15051 11.2686C9.27351 11.2059 9.32372 11.0553 9.26096 10.9323C9.1982 10.8093 9.04758 10.7591 8.92458 10.8193C8.87688 10.8419 7.7824 11.4042 7.7824 12.5489C7.7824 13.3547 8.08112 14.0074 8.23676 14.291C8.13384 14.399 7.91795 14.5571 7.53137 14.5571C6.73811 14.5571 6.52725 15.0491 6.52725 15.3102V15.5612C6.52725 15.6993 6.64021 15.8123 6.77828 15.8123L6.78079 15.8148Z" fill="#5285DC"/>
</g>
<defs>
<clipPath id="clip0_1_9898">
<rect width="16.0659" height="16.0659" fill="white" transform="matrix(-1 0 0 1 16.0659 0)"/>
</clipPath>
</defs>
</svg>
