<svg width="170" height="170" viewBox="0 0 170 170" fill="none" xmlns="http://www.w3.org/2000/svg">
<path d="M85 170C131.944 170 170 131.944 170 85C170 38.0558 131.944 0 85 0C38.0558 0 0 38.0558 0 85C0 131.944 38.0558 170 85 170Z" fill="#F4F5F7"/>
<path d="M136 170H34V60.0664C38.8076 60.061 43.4167 58.1489 46.8162 54.7494C50.2157 51.3499 52.1279 46.7407 52.1333 41.9331H117.867C117.862 44.3147 118.329 46.6736 119.241 48.8734C120.154 51.0732 121.494 53.0702 123.183 54.7488C124.862 56.4387 126.859 57.7789 129.059 58.6917C131.259 59.6045 133.618 60.0717 136 60.0664V170Z" fill="#4958E9"/>
<path d="M84.9998 115.6C100.022 115.6 112.2 103.422 112.2 88.4002C112.2 73.378 100.022 61.2002 84.9998 61.2002C69.9777 61.2002 57.7998 73.378 57.7998 88.4002C57.7998 103.422 69.9777 115.6 84.9998 115.6Z" fill="white"/>
<path d="M99.7329 122.4H70.2662C68.3884 122.4 66.8662 123.922 66.8662 125.8C66.8662 127.678 68.3884 129.2 70.2662 129.2H99.7329C101.611 129.2 103.133 127.678 103.133 125.8C103.133 123.922 101.611 122.4 99.7329 122.4Z" fill="#F4F5F7"/>
<path d="M109.934 136H60.067C58.1892 136 56.667 137.522 56.667 139.4C56.667 141.278 58.1892 142.8 60.067 142.8H109.934C111.811 142.8 113.334 141.278 113.334 139.4C113.334 137.522 111.811 136 109.934 136Z" fill="#F4F5F7"/>
<path d="M87.9902 96H89.5002C92.5202 96 95.0002 93.53 95.0002 90.5C95.0002 87.48 92.5302 85 89.5002 85H87.9902" stroke="#4958E9" strokeWidth="2.5" strokeLinecap="round" strokeLinejoin="round"/>
<path d="M82 85H80.5C77.47 85 75 87.47 75 90.5C75 93.52 77.47 96 80.5 96H82" stroke="#4958E9" strokeWidth="2.5" strokeLinecap="round" strokeLinejoin="round"/>
<path d="M81 90.5H89" stroke="#4958E9" strokeWidth="2.5" strokeLinecap="round" strokeLinejoin="round"/>
</svg>
