<svg width="199" height="199" viewBox="0 0 199 199" fill="none" xmlns="http://www.w3.org/2000/svg">
<g clipPath="url(#clip0_160_3084)">
<rect y="40.5552" width="143.657" height="164.852" rx="12.9527" transform="rotate(-16.3978 0 40.5552)" fill="white"/>
<rect width="32.9704" height="25.9053" transform="translate(17.877 51.251) rotate(-16.3978)" fill="#EEEEF0"/>
<rect x="55.022" y="44.0024" width="36.5029" height="4.71006" rx="2.35503" transform="rotate(-16.3978 55.022 44.0024)" fill="#EEEEF0"/>
<rect x="57.0166" y="50.7798" width="55.3432" height="4.71006" rx="2.35503" transform="rotate(-16.3978 57.0166 50.7798)" fill="#EEEEF0"/>
<rect x="59.0112" y="57.5581" width="78.8935" height="4.71006" rx="2.35503" transform="rotate(-16.3978 59.0112 57.5581)" fill="#EEEEF0"/>
<rect width="32.9704" height="25.9053" transform="translate(30.1763 93.0469) rotate(-16.3978)" fill="#EEEEF0"/>
<rect x="67.3213" y="85.7983" width="36.5029" height="4.71006" rx="2.35503" transform="rotate(-16.3978 67.3213 85.7983)" fill="#0D0F2B" fill-opacity="0.07"/>
<rect x="69.3159" y="92.5762" width="55.3432" height="4.71006" rx="2.35503" transform="rotate(-16.3978 69.3159 92.5762)" fill="#0D0F2B" fill-opacity="0.07"/>
<rect x="71.3105" y="99.354" width="78.8935" height="4.71006" rx="2.35503" transform="rotate(-16.3978 71.3105 99.354)" fill="#0D0F2B" fill-opacity="0.07"/>
<rect width="32.9704" height="25.9053" transform="translate(42.4761 134.843) rotate(-16.3978)" fill="#EEEEF0"/>
<rect x="79.6211" y="127.594" width="36.5029" height="4.71006" rx="2.35503" transform="rotate(-16.3978 79.6211 127.594)" fill="#0D0F2B" fill-opacity="0.07"/>
<rect x="81.6157" y="134.372" width="55.3432" height="4.71006" rx="2.35503" transform="rotate(-16.3978 81.6157 134.372)" fill="#0D0F2B" fill-opacity="0.07"/>
<rect x="83.6104" y="141.149" width="78.8935" height="4.71006" rx="2.35503" transform="rotate(-16.3978 83.6104 141.149)" fill="#0D0F2B" fill-opacity="0.07"/>
</g>
<rect x="0.731018" y="40.9538" width="142.479" height="163.674" rx="12.3639" transform="rotate(-16.3978 0.731018 40.9538)" stroke="#0D0F2B" stroke-opacity="0.1" strokeWidth="1.17751"/>
<rect x="55.3433" y="34.1479" width="143.657" height="164.852" rx="12.9527" fill="white"/>
<rect x="55.932" y="34.7367" width="142.479" height="163.674" rx="12.3639" stroke="#0D0F2B" stroke-opacity="0.1" strokeWidth="1.17751"/>
<rect width="32.9704" height="25.9053" transform="translate(69.4731 49.4556)" fill="#4958E9"/>
<rect x="107.154" y="52.9883" width="36.5029" height="4.71006" rx="2.35503" fill="#4958E9"/>
<rect x="107.154" y="60.0537" width="55.3432" height="4.71006" rx="2.35503" fill="#4958E9"/>
<rect x="107.154" y="67.1187" width="78.8935" height="4.71006" rx="2.35503" fill="#4958E9"/>
<rect width="32.9704" height="25.9053" transform="translate(69.4731 93.0234)" fill="#EEEEF0"/>
<rect x="107.154" y="96.5562" width="36.5029" height="4.71006" rx="2.35503" fill="#0D0F2B" fill-opacity="0.07"/>
<rect x="107.154" y="103.621" width="55.3432" height="4.71006" rx="2.35503" fill="#0D0F2B" fill-opacity="0.07"/>
<rect x="107.154" y="110.687" width="78.8935" height="4.71006" rx="2.35503" fill="#0D0F2B" fill-opacity="0.07"/>
<rect width="32.9704" height="25.9053" transform="translate(69.4731 136.592)" fill="#EEEEF0"/>
<rect x="107.154" y="140.125" width="36.5029" height="4.71006" rx="2.35503" fill="#0D0F2B" fill-opacity="0.07"/>
<rect x="107.154" y="147.189" width="55.3432" height="4.71006" rx="2.35503" fill="#0D0F2B" fill-opacity="0.07"/>
<rect x="107.154" y="154.254" width="78.8935" height="4.71006" rx="2.35503" fill="#0D0F2B" fill-opacity="0.07"/>
<defs>
<clipPath id="clip0_160_3084">
<rect y="40.5552" width="143.657" height="164.852" rx="12.9527" transform="rotate(-16.3978 0 40.5552)" fill="white"/>
</clipPath>
</defs>
</svg>
