<svg width="153" height="37" viewBox="0 0 153 37" fill="none" xmlns="http://www.w3.org/2000/svg">
<path d="M0 0H9.76206L19.293 25.5676L28.8809 0H38.6998L24.4051 35.7954H14.2947L0 0Z" fill="#4C5365"/>
<path d="M22.9618 35.7954H14.2947L0 0H9.9327L22.9618 35.7954Z" fill="#3F454F"/>
<path d="M37.8648 32.7134C35.0172 30.2746 33.5952 26.7089 33.5952 22.0234C33.5952 17.3379 34.8252 14.014 37.2853 11.4757C39.7454 8.94101 43.3217 7.67188 48.0072 7.67188C52.3052 7.67188 55.6754 8.79526 58.1177 11.042C60.56 13.2888 61.7793 16.3105 61.7793 20.1073V25.0488H42.2552C42.6818 26.8298 43.6488 28.0919 45.1597 28.8242C46.6705 29.5601 48.8391 29.9298 51.6689 29.9298C53.1798 29.9298 54.7191 29.7947 56.2868 29.5245C57.8546 29.2543 59.1628 28.906 60.208 28.4793V34.5797C57.5738 35.7813 54.0116 36.3821 49.5181 36.3821C44.598 36.3821 40.7159 35.1628 37.8683 32.7205L37.8648 32.7134ZM53.6419 19.6416V18.4222C53.6419 15.4787 51.8573 14.0069 48.2952 14.0069C46.0875 14.0069 44.5269 14.4513 43.6168 15.3436C42.7067 16.2359 42.2517 17.6686 42.2517 19.6416H53.6419Z" fill="#4C5365"/>
<path d="M69.0351 33.8188C67.3891 32.116 66.5679 29.6914 66.5679 26.5559V15.3399H62.8494V8.25118H66.5679V2.49917L75.9211 0V8.25118H82.6045L82.1993 15.3399H75.9247V25.916C75.9247 27.2349 76.234 28.1521 76.8561 28.6747C77.4747 29.1973 78.4807 29.4604 79.8779 29.4604C81.0012 29.4604 82.1424 29.2684 83.3084 28.8809V35.2159C81.4847 35.9909 79.2202 36.3784 76.5113 36.3784C73.1802 36.3784 70.6882 35.5288 69.0422 33.8224L69.0351 33.8188Z" fill="#4C5365"/>
<path d="M85.7896 8.25099H94.6806L94.9721 10.807C96.2093 10.0712 97.7237 9.40281 99.5048 8.80202C101.286 8.20122 103.049 7.82439 104.795 7.66797V14.6998C103.166 14.8953 101.424 15.233 99.5652 15.7165C97.7059 16.2035 96.2342 16.7155 95.1499 17.2558V35.7916H85.7931V8.24743L85.7896 8.25099Z" fill="#4C5365"/>
<path d="M109.996 17.672L109.985 17.7538H109.971V35.7954H119.328V11.7031H119.271C116.292 13.8112 113.309 16.0722 109.992 17.672H109.996Z" fill="#4C5365"/>
<path d="M132.112 21.7885L121.944 8.25098H132.112L137.224 15.1655L142.336 8.25098H152.503L142.336 21.7885L152.912 35.7916H142.684L137.224 28.5287L131.763 35.7916H121.535L132.112 21.7885Z" fill="#4C5365"/>
<path d="M113.672 9.93618C116.195 9.93618 118.24 7.89093 118.24 5.36799C118.24 2.84505 116.195 0.799805 113.672 0.799805C111.149 0.799805 109.104 2.84505 109.104 5.36799C109.104 7.89093 111.149 9.93618 113.672 9.93618Z" fill="#4C5365"/>
</svg>
