<svg width="190" height="34" viewBox="0 0 190 34" fill="none" xmlns="http://www.w3.org/2000/svg">
<path d="M41.483 5.25474H47.08L52.546 21.2322L58.0434 5.25474H63.6753L55.4787 27.6232H49.6812L41.4846 5.25474H41.483Z" fill="#3F78D8"/>
<path d="M64.6893 25.7806C63.0562 24.322 62.2406 22.191 62.2406 19.3896C62.2406 16.5881 62.9452 14.6024 64.356 13.085C65.7669 11.5694 67.816 10.8106 70.5035 10.8106C72.9687 10.8106 74.9018 11.483 76.301 12.8257C77.7019 14.1686 78.3999 15.9747 78.3999 18.2438V21.1973H67.2059C67.4513 22.2619 68.005 23.0154 68.8721 23.4544C69.7375 23.8951 70.9809 24.1146 72.6039 24.1146C73.4694 24.1146 74.353 24.0334 75.2532 23.8709C76.1535 23.7102 76.9011 23.501 77.5013 23.2453V26.8919C75.991 27.6108 73.9485 27.9685 71.3705 27.9685C68.5505 27.9685 66.3223 27.2392 64.691 25.7806H64.6893ZM73.7363 17.9656V17.2362C73.7363 15.4769 72.7134 14.5972 70.6708 14.5972C69.4043 14.5972 68.5107 14.8633 67.9885 15.3956C67.4662 15.928 67.2059 16.7852 67.2059 17.9656H73.7363Z" fill="#3F78D8"/>
<path d="M83.7094 26.4411C82.7661 25.4232 82.2936 23.9749 82.2936 22.0998V15.396H80.1599V11.1584H82.2936V7.7192L87.6569 6.22598V11.1584H91.4882L91.2544 15.396H87.6552V21.7179C87.6552 22.506 87.8325 23.0555 88.189 23.3683C88.5438 23.6811 89.1207 23.8366 89.9215 23.8366C90.5648 23.8366 91.2196 23.7209 91.8877 23.4893V27.2759C90.8433 27.739 89.5435 27.9706 87.99 27.9706C86.0785 27.9706 84.6511 27.4625 83.7078 26.4428L83.7094 26.4411Z" fill="#3F78D8"/>
<path d="M104.497 32.9722C103.641 32.5557 103.041 31.9301 102.698 31.097C102.353 30.2641 102.169 29.1753 102.149 27.8325C96.4841 27.1152 93.6525 23.3511 93.6525 16.5436C93.6525 12.4909 94.5411 9.53916 96.3184 7.68651C98.0956 5.83378 100.771 4.90749 104.347 4.90749C107.924 4.90749 110.573 5.83378 112.362 7.68651C114.15 9.53916 115.044 12.4909 115.044 16.5436C115.044 23.2129 112.333 26.9528 106.914 27.7616C106.914 28.503 107.035 29.018 107.28 29.3084C107.526 29.597 107.97 29.7422 108.613 29.7422C109.303 29.7422 110.002 29.6489 110.712 29.4639V33.2504C110.4 33.3421 109.974 33.4233 109.431 33.4942C108.887 33.5632 108.414 33.5978 108.015 33.5978C106.526 33.5978 105.355 33.3888 104.5 32.9722H104.497ZM108.295 21.597C109.129 20.5203 109.545 18.8353 109.545 16.5436C109.545 14.0671 109.134 12.3061 108.311 11.2639C107.489 10.2218 106.168 9.70162 104.346 9.70162C102.524 9.70162 101.169 10.2235 100.349 11.2639C99.528 12.3043 99.1152 14.0671 99.1152 16.5436C99.1152 18.8353 99.5313 20.5203 100.365 21.597C101.199 22.6737 102.525 23.2129 104.346 23.2129C106.166 23.2129 107.461 22.6754 108.295 21.597Z" fill="#3F78D8"/>
<path d="M118.602 26.32C117.57 25.2209 117.055 23.6171 117.055 21.5103V11.1599H122.418V21.1975C122.418 22.1238 122.628 22.8013 123.049 23.2299C123.472 23.6585 124.127 23.8728 125.015 23.8728C125.637 23.8728 126.237 23.7397 126.814 23.4736C127.391 23.2075 127.88 22.8549 128.281 22.4142V11.1617H133.645V27.6248H128.648L128.48 26.2353C126.991 27.3932 125.159 27.9721 122.982 27.9721C121.094 27.9721 119.635 27.4226 118.601 26.3217L118.602 26.32Z" fill="#3F78D8"/>
<path d="M136.99 26.6329C135.936 25.7429 135.407 24.4622 135.407 22.7945C135.407 21.1268 135.968 19.7494 137.09 18.8006C138.212 17.8517 139.85 17.3765 142.006 17.3765H146.404V16.9946C146.404 16.1391 146.131 15.5359 145.588 15.1886C145.044 14.8412 144.05 14.6666 142.606 14.6666C140.807 14.6666 139.041 14.957 137.308 15.5359V11.9239C138.107 11.6008 139.074 11.3329 140.207 11.1255C141.339 10.9164 142.506 10.8127 143.704 10.8127C146.214 10.8127 148.148 11.345 149.502 12.4096C150.857 13.4742 151.534 15.1177 151.534 17.342V27.6232H146.836L146.569 26.2337C145.347 27.3916 143.492 27.9705 141.003 27.9705C139.382 27.9705 138.045 27.5247 136.99 26.6329ZM146.402 22.9328V20.6066H142.603C141.805 20.6066 141.209 20.769 140.822 21.0922C140.432 21.4171 140.24 21.9148 140.24 22.5854C140.24 23.8816 141.06 24.5297 142.704 24.5297C144.35 24.5297 145.536 23.9974 146.402 22.9328Z" fill="#3F78D8"/>
<path d="M153.294 11.1584H158.392L158.559 12.6862C159.269 12.2455 160.136 11.8463 161.157 11.4867C162.179 11.129 163.19 10.9026 164.189 10.8093V15.0124C163.256 15.1281 162.256 15.3304 161.19 15.6207C160.125 15.9111 159.279 16.217 158.659 16.5418V27.6216H153.294V11.1584Z" fill="#3F78D8"/>
<path d="M165.948 4.21237H171.313V16.4396L176.478 11.1599H182.574L176.244 18.0019L182.94 27.623H177.242L172.878 20.9537L171.312 22.5506V27.6213H165.947V4.21065L165.948 4.21237Z" fill="#3F78D8"/>
<path d="M184.488 10.2578H183.433V9.50599H186.306V10.2578H185.275V12.7671H184.488V10.2578ZM186.571 9.50599H187.304L188.292 11.4364L189.269 9.50599H190V12.7671H189.224V10.8004L188.458 12.5114H188.136L187.337 10.8004V12.7671H186.571V9.50599Z" fill="#3F78D8"/>
<path d="M12.6 0C13.6789 0 14.6688 0.420612 15.3893 1.19776C16.1099 1.97573 16.5375 3.08641 16.5375 4.42628C16.5375 5.75959 16.1154 7.09783 15.4271 8.11076C14.742 9.1187 13.7498 9.85808 12.6 9.85808C11.4502 9.85808 10.458 9.1187 9.77291 8.11076C9.08459 7.09783 8.66251 5.75959 8.66251 4.42711C8.66251 3.08641 9.0901 1.97573 9.81144 1.19776C10.5313 0.420612 11.5211 0 12.6 0ZM3.93749 7.39357C5.01637 7.39357 6.00628 7.81419 6.72679 8.59131C7.44738 9.36928 7.87497 10.48 7.87497 11.8198C7.87497 13.1532 7.45288 14.4914 6.76464 15.5043C6.07949 16.5123 5.08724 17.2517 3.93749 17.2517C2.78773 17.2517 1.79548 16.5123 1.1104 15.5043C0.422085 14.4914 0 13.1524 0 11.8207C0 10.48 0.42759 9.36928 1.14893 8.59131C1.86876 7.81419 2.8586 7.39357 3.93749 7.39357ZM17.7187 13.1441C12.1086 13.1441 7.4608 18.1266 5.99761 24.3742C5.34873 27.1459 6.33856 30.1189 8.77983 31.5278C10.7195 32.6484 13.6222 33.6818 17.718 33.6818C21.8142 33.6818 24.7171 32.6484 26.6578 31.5278C29.0985 30.1189 30.0877 27.1459 29.4393 24.3749C27.9765 18.1266 23.3282 13.1441 17.7187 13.1441ZM31.4999 7.39357C30.421 7.39357 29.431 7.81419 28.7117 8.59131C27.9901 9.36928 27.5626 10.48 27.5626 11.8198C27.5626 13.1532 27.9848 14.4914 28.6732 15.5043C29.3579 16.5123 30.3501 17.2517 31.4999 17.2517C32.6498 17.2517 33.642 16.5123 34.3274 15.5043C35.015 14.4914 35.4373 13.1532 35.4373 11.8207C35.4373 10.48 35.0098 9.36928 34.2897 8.59131C33.5689 7.81419 32.5789 7.39357 31.4999 7.39357ZM22.8374 0C21.7584 0 20.7684 0.420612 20.0491 1.19776C19.3275 1.97573 18.9 3.08641 18.9 4.42628C18.9 5.75959 19.3223 7.09783 20.0106 8.11076C20.6953 9.1187 21.6875 9.85808 22.8374 9.85808C23.9872 9.85808 24.9794 9.1187 25.6648 8.11076C26.3532 7.09783 26.7747 5.75959 26.7747 4.42711C26.7747 3.08641 26.3472 1.97573 25.6271 1.19776C24.9063 0.420612 23.9163 0 22.8374 0Z" fill="#3F78D8"/>
<path d="M17.1232 24.5241H14.1453C13.9765 24.5241 13.8351 24.4645 13.7212 24.3453C13.6072 24.2261 13.5501 24.0787 13.5497 23.9033C13.5493 23.7278 13.6065 23.5804 13.7212 23.4611C13.836 23.342 13.9773 23.2823 14.1453 23.2823H17.1232V20.1781C17.1232 20.0022 17.1804 19.8548 17.2947 19.736C17.4091 19.6172 17.5504 19.5576 17.7188 19.5571C17.8872 19.5568 18.0287 19.6164 18.1434 19.736C18.2582 19.8556 18.3152 20.003 18.3144 20.1781V23.2823H21.2925C21.4614 23.2823 21.6024 23.342 21.717 23.4611C21.8316 23.5804 21.8881 23.7278 21.8881 23.9033C21.8874 24.0787 21.8301 24.2263 21.7162 24.3459C21.6024 24.4656 21.4614 24.5249 21.2925 24.5241H18.3144V27.6284C18.3144 27.8044 18.2572 27.9519 18.1428 28.0711C18.0285 28.1903 17.8872 28.2497 17.7188 28.2493C17.5504 28.2488 17.4091 28.1893 17.2947 28.0705C17.1804 27.9516 17.1232 27.8044 17.1232 27.6284V24.5241Z" fill="white"/>
</svg>
