<svg width="10" height="10" viewBox="0 0 10 10" fill="none" xmlns="http://www.w3.org/2000/svg">
<g clip-path="url(#clip0_753_23045)">
<path d="M7.79996 1.53544H7.45581V1.08587C7.45442 0.952251 7.40036 0.824579 7.30538 0.730586C7.2104 0.636593 7.08217 0.583871 6.94855 0.583873C6.81492 0.583876 6.6867 0.636601 6.59172 0.730597C6.49674 0.824593 6.44269 0.952267 6.4413 1.08588V1.53544H5.14746V1.08587C5.14746 0.951336 5.09402 0.822314 4.99889 0.727185C4.90376 0.632056 4.77473 0.578613 4.6402 0.578613C4.50567 0.578613 4.37665 0.632056 4.28152 0.727185C4.18639 0.822314 4.13295 0.951336 4.13295 1.08587V1.53544H2.83911V1.08587C2.83911 0.951336 2.78567 0.822314 2.69054 0.727185C2.59541 0.632056 2.46639 0.578613 2.33185 0.578613C2.19732 0.578613 2.0683 0.632056 1.97317 0.727185C1.87804 0.822314 1.8246 0.951336 1.8246 1.08587V1.53544H1.45672C1.25204 1.53643 1.05611 1.61857 0.911904 1.76383C0.767701 1.90909 0.687 2.10562 0.687502 2.3103V7.90177C0.687 8.10645 0.767701 8.30298 0.911904 8.44824C1.05611 8.5935 1.25204 8.67564 1.45672 8.67664H7.79996C8.00464 8.67564 8.20058 8.59351 8.34478 8.44824C8.48898 8.30298 8.56969 8.10645 8.56918 7.90177V2.3103C8.56969 2.10562 8.48898 1.90909 8.34478 1.76383C8.20058 1.61857 8.00464 1.53643 7.79996 1.53544ZM6.73052 1.08587C6.73143 1.02864 6.7548 0.974064 6.79559 0.933916C6.83638 0.893767 6.89133 0.871266 6.94856 0.871267C7.0058 0.871269 7.06074 0.893773 7.10153 0.933923C7.14232 0.974073 7.16569 1.02865 7.1666 1.08588V1.53544H6.73052V1.08587ZM4.42216 1.08587C4.42307 1.02864 4.44644 0.974064 4.48724 0.933916C4.52803 0.893767 4.58297 0.871266 4.64021 0.871267C4.69744 0.871269 4.75238 0.893773 4.79317 0.933923C4.83396 0.974073 4.85734 1.02865 4.85824 1.08588V1.53544H4.42216V1.08587ZM2.11381 1.08587C2.11472 1.02864 2.13809 0.974064 2.17888 0.933916C2.21968 0.893767 2.27462 0.871266 2.33185 0.871267C2.38909 0.871269 2.44403 0.893773 2.48482 0.933923C2.52561 0.974073 2.54898 1.02865 2.54989 1.08588V1.53544H2.11381V1.08587ZM1.45671 1.82465H1.82459V2.10441C1.82515 2.18511 1.84486 2.26452 1.8821 2.33612C1.91934 2.40772 1.97304 2.46945 2.03879 2.51625C2.10454 2.56305 2.18045 2.59357 2.2603 2.60531C2.34014 2.61705 2.42163 2.60966 2.49807 2.58377C2.53367 2.57073 2.56273 2.54424 2.57898 2.50999C2.59524 2.47574 2.5974 2.43648 2.585 2.40065C2.57259 2.36483 2.54661 2.33531 2.51265 2.31845C2.4787 2.30159 2.43948 2.29874 2.40344 2.31052C2.37057 2.32164 2.33553 2.3248 2.30121 2.31974C2.26688 2.31469 2.23424 2.30157 2.20597 2.28145C2.1777 2.26133 2.15461 2.23479 2.13859 2.20402C2.12257 2.17324 2.11407 2.1391 2.11381 2.1044V1.82465H4.13295V2.10441C4.13309 2.23889 4.18658 2.36783 4.28168 2.46293C4.37677 2.55802 4.50571 2.61151 4.6402 2.61166C4.76473 2.61786 4.94711 2.55641 4.8958 2.39975C4.88958 2.38181 4.87989 2.36527 4.86727 2.35107C4.85466 2.33687 4.83937 2.3253 4.82229 2.31701C4.8052 2.30872 4.78665 2.30389 4.76769 2.30277C4.74873 2.30166 4.72974 2.30429 4.7118 2.31051C4.67893 2.32164 4.64389 2.32481 4.60956 2.31976C4.57523 2.31471 4.54258 2.30159 4.51431 2.28147C4.48604 2.26135 4.46294 2.23481 4.44692 2.20403C4.4309 2.17325 4.42242 2.1391 4.42216 2.1044V1.82465H6.4413V2.10441C6.44186 2.18511 6.46156 2.26453 6.4988 2.33613C6.53604 2.40773 6.58974 2.46947 6.65549 2.51626C6.72124 2.56306 6.79716 2.59359 6.877 2.60532C6.95685 2.61706 7.03834 2.60967 7.11478 2.58377C7.15037 2.57073 7.17943 2.54423 7.19568 2.50999C7.21194 2.47574 7.2141 2.43648 7.20169 2.40066C7.18929 2.36483 7.16331 2.33531 7.12935 2.31846C7.0954 2.3016 7.05618 2.29875 7.02014 2.31052C6.98728 2.32165 6.95224 2.32483 6.9179 2.31978C6.88357 2.31473 6.85092 2.30161 6.82265 2.28149C6.79438 2.26137 6.77128 2.23482 6.75526 2.20404C6.73925 2.17325 6.73077 2.13911 6.73052 2.1044V1.82465H7.79996C7.92797 1.82555 8.0504 1.87718 8.14038 1.96823C8.23037 2.05927 8.28057 2.18229 8.27997 2.3103V3.03836C8.25865 3.02512 8.23417 3.01782 8.20908 3.01724L0.976717 3.02479V2.3103C0.976117 2.18229 1.02632 2.05927 1.1163 1.96823C1.20629 1.87719 1.3287 1.82555 1.45671 1.82465ZM7.79996 8.38742H1.45672C1.32871 8.38652 1.20629 8.33489 1.1163 8.24384C1.02632 8.1528 0.976117 8.02978 0.976717 7.90177V3.31401L8.20935 3.30646C8.23435 3.30584 8.25872 3.29856 8.27997 3.28538V7.90177C8.28057 8.02978 8.23037 8.1528 8.14038 8.24385C8.0504 8.33489 7.92797 8.38652 7.79996 8.38742Z" fill="#4F5464"/>
<path d="M2.90186 3.97754H1.96883C1.94983 3.97753 1.93103 3.98127 1.91348 3.98854C1.89593 3.9958 1.87999 4.00645 1.86656 4.01988C1.85313 4.03331 1.84248 4.04925 1.83522 4.0668C1.82795 4.08435 1.82421 4.10316 1.82422 4.12215V4.96494C1.82421 4.98393 1.82795 5.00273 1.83522 5.02028C1.84248 5.03783 1.85313 5.05377 1.86656 5.0672C1.87999 5.08063 1.89593 5.09128 1.91348 5.09855C1.93103 5.10581 1.94983 5.10955 1.96883 5.10954H2.90186C2.92085 5.10955 2.93965 5.10581 2.9572 5.09855C2.97475 5.09128 2.99069 5.08063 3.00412 5.0672C3.01755 5.05377 3.0282 5.03783 3.03547 5.02028C3.04273 5.00273 3.04647 4.98393 3.04646 4.96494V4.12215C3.04647 4.10316 3.04273 4.08435 3.03547 4.0668C3.0282 4.04925 3.01755 4.03331 3.00412 4.01988C2.99069 4.00645 2.97475 3.9958 2.9572 3.98854C2.93965 3.98127 2.92085 3.97753 2.90186 3.97754ZM2.75725 4.82033H2.11343V4.26675H2.75725V4.82033Z" fill="#4F5464"/>
<path d="M4.95264 3.97754H4.01961C4.00062 3.97753 3.98181 3.98127 3.96426 3.98854C3.94672 3.9958 3.93077 4.00645 3.91734 4.01988C3.90391 4.03331 3.89326 4.04925 3.886 4.0668C3.87873 4.08435 3.875 4.10316 3.875 4.12215V4.96494C3.875 4.98393 3.87873 5.00273 3.886 5.02028C3.89326 5.03783 3.90391 5.05377 3.91734 5.0672C3.93077 5.08063 3.94672 5.09128 3.96426 5.09855C3.98181 5.10581 4.00062 5.10955 4.01961 5.10954H4.95264C4.97163 5.10955 4.99044 5.10581 5.00798 5.09855C5.02553 5.09128 5.04147 5.08063 5.0549 5.0672C5.06833 5.05377 5.07898 5.03783 5.08625 5.02028C5.09351 5.00273 5.09725 4.98393 5.09724 4.96494V4.12215C5.09725 4.10316 5.09351 4.08435 5.08625 4.0668C5.07898 4.04925 5.06833 4.03331 5.0549 4.01988C5.04147 4.00645 5.02553 3.9958 5.00798 3.98854C4.99044 3.98127 4.97163 3.97753 4.95264 3.97754ZM4.80803 4.82033H4.16422V4.26675H4.80803V4.82033Z" fill="#4F5464"/>
<path d="M7.00551 3.97754H6.07234C6.05335 3.97753 6.03454 3.98127 6.017 3.98854C5.99945 3.9958 5.98351 4.00645 5.97008 4.01988C5.95665 4.03331 5.946 4.04925 5.93873 4.0668C5.93147 4.08435 5.92773 4.10316 5.92773 4.12215V4.96494C5.92773 4.98393 5.93147 5.00273 5.93873 5.02028C5.946 5.03783 5.95665 5.05377 5.97008 5.0672C5.98351 5.08063 5.99945 5.09128 6.017 5.09855C6.03454 5.10581 6.05335 5.10955 6.07234 5.10954H7.00551C7.0245 5.10955 7.04331 5.10581 7.06086 5.09855C7.0784 5.09128 7.09435 5.08063 7.10778 5.0672C7.1212 5.05377 7.13186 5.03783 7.13912 5.02028C7.14639 5.00273 7.15012 4.98393 7.15012 4.96494V4.12215C7.15012 4.10316 7.14639 4.08435 7.13912 4.0668C7.13186 4.04925 7.1212 4.03331 7.10778 4.01988C7.09435 4.00645 7.0784 3.9958 7.06086 3.98854C7.04331 3.98127 7.0245 3.97753 7.00551 3.97754ZM6.8609 4.82033H6.21695V4.26675H6.8609V4.82033Z" fill="#4F5464"/>
<path d="M2.90186 6.0293H1.96883C1.94983 6.02929 1.93103 6.03303 1.91348 6.04029C1.89593 6.04756 1.87999 6.05821 1.86656 6.07164C1.85313 6.08507 1.84248 6.10101 1.83522 6.11856C1.82795 6.13611 1.82421 6.15491 1.82422 6.1739V7.01669C1.82421 7.03569 1.82795 7.05449 1.83522 7.07204C1.84248 7.08959 1.85313 7.10553 1.86656 7.11896C1.87999 7.13239 1.89593 7.14304 1.91348 7.1503C1.93103 7.15757 1.94983 7.16131 1.96883 7.1613H2.90186C2.92085 7.16131 2.93965 7.15757 2.9572 7.1503C2.97475 7.14304 2.99069 7.13239 3.00412 7.11896C3.01755 7.10553 3.0282 7.08959 3.03547 7.07204C3.04273 7.05449 3.04647 7.03569 3.04646 7.01669V6.1739C3.04647 6.15491 3.04273 6.13611 3.03547 6.11856C3.0282 6.10101 3.01755 6.08507 3.00412 6.07164C2.99069 6.05821 2.97475 6.04756 2.9572 6.04029C2.93965 6.03303 2.92085 6.02929 2.90186 6.0293ZM2.75725 6.87209H2.11343V6.31851H2.75725V6.87209Z" fill="#4F5464"/>
<path d="M4.95264 6.0293H4.01961C4.00062 6.02929 3.98181 6.03303 3.96426 6.04029C3.94672 6.04756 3.93077 6.05821 3.91734 6.07164C3.90391 6.08507 3.89326 6.10101 3.886 6.11856C3.87873 6.13611 3.875 6.15491 3.875 6.1739V7.01669C3.875 7.03569 3.87873 7.05449 3.886 7.07204C3.89326 7.08959 3.90391 7.10553 3.91734 7.11896C3.93077 7.13239 3.94672 7.14304 3.96426 7.1503C3.98181 7.15757 4.00062 7.16131 4.01961 7.1613H4.95264C4.97163 7.16131 4.99044 7.15757 5.00798 7.1503C5.02553 7.14304 5.04147 7.13239 5.0549 7.11896C5.06833 7.10553 5.07898 7.08959 5.08625 7.07204C5.09351 7.05449 5.09725 7.03569 5.09724 7.01669V6.1739C5.09725 6.15491 5.09351 6.13611 5.08625 6.11856C5.07898 6.10101 5.06833 6.08507 5.0549 6.07164C5.04147 6.05821 5.02553 6.04756 5.00798 6.04029C4.99044 6.03303 4.97163 6.02929 4.95264 6.0293ZM4.80803 6.87209H4.16422V6.31851H4.80803V6.87209Z" fill="#4F5464"/>
<path d="M7.00551 6.0293H6.07234C6.05335 6.02929 6.03454 6.03303 6.017 6.04029C5.99945 6.04756 5.98351 6.05821 5.97008 6.07164C5.95665 6.08507 5.946 6.10101 5.93873 6.11856C5.93147 6.13611 5.92773 6.15491 5.92773 6.1739V7.01669C5.92773 7.03569 5.93147 7.05449 5.93873 7.07204C5.946 7.08959 5.95665 7.10553 5.97008 7.11896C5.98351 7.13239 5.99945 7.14304 6.017 7.1503C6.03454 7.15757 6.05335 7.16131 6.07234 7.1613H7.00551C7.0245 7.16131 7.04331 7.15757 7.06086 7.1503C7.0784 7.14304 7.09435 7.13239 7.10778 7.11896C7.12121 7.10553 7.13186 7.08959 7.13912 7.07204C7.14639 7.05449 7.15012 7.03569 7.15012 7.01669V6.1739C7.15012 6.15491 7.14639 6.13611 7.13912 6.11856C7.13186 6.10101 7.12121 6.08507 7.10778 6.07164C7.09435 6.05821 7.0784 6.04756 7.06086 6.04029C7.04331 6.03303 7.0245 6.02929 7.00551 6.0293ZM6.8609 6.87209H6.21695V6.31851H6.8609V6.87209Z" fill="#4F5464"/>
</g>
<defs>
<clipPath id="clip0_753_23045">
<rect width="9.25488" height="9.25488" fill="white"/>
</clipPath>
</defs>
</svg>
