<svg width="15" height="15" viewBox="0 0 15 15" fill="none" xmlns="http://www.w3.org/2000/svg">
<path fill-rule="evenodd" clip-rule="evenodd" d="M13.7531 3.40272C12.3505 4.80524 9.05864 8.09648 8.25579 8.89669C8.08229 9.06954 7.8758 9.20609 7.65415 9.29515C7.01028 9.56233 5.43954 10.1785 4.97775 10.2095C4.70266 10.228 4.43284 10.1264 4.23757 9.9311C4.0423 9.73583 3.9407 9.46601 3.95917 9.19092C3.99018 8.72913 4.60634 7.15971 4.8689 6.51848C4.9606 6.29088 5.09715 6.0844 5.27066 5.91156L10.7659 0.41561C11.0318 0.149752 11.3933 0 11.7693 0C12.1454 0 12.5069 0.149752 12.7727 0.41561L13.7531 1.39592C14.0189 1.66178 14.1687 2.0233 14.1687 2.39932C14.1687 2.77535 14.0189 3.13687 13.7531 3.40272ZM4.9507 9.21797C5.40194 9.16123 6.72067 8.61104 7.27482 8.38081C7.2768 8.38015 7.27878 8.37949 7.2801 8.37883C7.38367 8.33727 7.47735 8.27526 7.55585 8.19675L7.55651 8.19609C8.36068 7.39588 11.6513 4.1053 13.0531 2.70278C13.1336 2.6223 13.1791 2.51345 13.1791 2.39932C13.1791 2.2852 13.1336 2.17635 13.0531 2.09586L12.0728 1.11555C11.9923 1.03507 11.8835 0.989548 11.7693 0.989548C11.6552 0.989548 11.5464 1.03507 11.4659 1.11555L5.96994 6.6115C5.89077 6.69 5.82876 6.78434 5.7872 6.88791L5.78588 6.89055C5.55828 7.44602 5.00744 8.76607 4.9507 9.21797Z" fill="#4F5464"/>
<path fill-rule="evenodd" clip-rule="evenodd" d="M12.4465 4.00977C12.6392 4.20307 12.6392 4.51642 12.4465 4.70971C12.2532 4.90301 11.9399 4.90301 11.7466 4.70971L9.45942 2.42254C9.26613 2.22925 9.26613 1.91589 9.45942 1.7226C9.65271 1.52997 9.96607 1.52997 10.1594 1.7226L12.4465 4.00977Z" fill="#4F5464"/>
<path fill-rule="evenodd" clip-rule="evenodd" d="M8.40877 8.04787C8.60206 8.2405 8.60206 8.55451 8.40877 8.74715C8.21614 8.94044 7.90212 8.94044 7.70949 8.74715L5.42231 6.45997C5.22902 6.26734 5.22902 5.95332 5.42231 5.76069C5.61494 5.5674 5.92896 5.5674 6.12159 5.76069L8.40877 8.04787Z" fill="#4F5464"/>
<path fill-rule="evenodd" clip-rule="evenodd" d="M4.78281 1.30566C5.05593 1.30566 5.27759 1.52732 5.27759 1.80044C5.27759 2.07355 5.05593 2.29521 4.78281 2.29521H2.47387C1.65386 2.29521 0.989548 2.95953 0.989548 3.77953V11.6959C0.989548 12.0898 1.1459 12.4671 1.42429 12.7455C1.70268 13.0239 2.08003 13.1802 2.47387 13.1802H11.0499C11.4438 13.1802 11.8211 13.0239 12.0995 12.7455C12.3779 12.4671 12.5343 12.0898 12.5343 11.6959V9.38697C12.5343 9.11386 12.7559 8.8922 13.029 8.8922C13.3022 8.8922 13.5238 9.11386 13.5238 9.38697V11.6959C13.5238 12.3523 13.2632 12.981 12.7995 13.4454C12.335 13.9092 11.7063 14.1698 11.0499 14.1698H2.47387C1.81747 14.1698 1.18878 13.9092 0.724349 13.4454C0.260581 12.981 0 12.3523 0 11.6959V3.77953C0 2.4133 1.10763 1.30566 2.47387 1.30566H4.78281Z" fill="#4F5464"/>
</svg>
