<svg width="16" height="16" viewBox="0 0 16 16" fill="none" xmlns="http://www.w3.org/2000/svg">
<g clip-path="url(#clip0_881_2003)">
<path fill-rule="evenodd" clip-rule="evenodd" d="M10.2215 12.1004L11.1545 13.0334C11.2833 13.1622 11.4923 13.1622 11.621 13.0334L13.487 11.1674C13.6158 11.0387 13.6158 10.8297 13.487 10.7009C13.3582 10.5722 13.1493 10.5722 13.0205 10.7009L11.3878 12.3337L10.688 11.6339C10.5593 11.5052 10.3503 11.5052 10.2215 11.6339C10.0928 11.7627 10.0928 11.9717 10.2215 12.1004Z" fill="#3F78D8"/>
<path fill-rule="evenodd" clip-rule="evenodd" d="M3.29866 6.92838H9.8969C10.079 6.92838 10.2268 6.78058 10.2268 6.59847C10.2268 6.41636 10.079 6.26855 9.8969 6.26855H3.29866C3.11655 6.26855 2.96875 6.41636 2.96875 6.59847C2.96875 6.78058 3.11655 6.92838 3.29866 6.92838Z" fill="#3F78D8"/>
<path fill-rule="evenodd" clip-rule="evenodd" d="M3.29866 8.90787H7.91743C8.09954 8.90787 8.24734 8.76007 8.24734 8.57796C8.24734 8.39585 8.09954 8.24805 7.91743 8.24805H3.29866C3.11655 8.24805 2.96875 8.39585 2.96875 8.57796C2.96875 8.76007 3.11655 8.90787 3.29866 8.90787Z" fill="#3F78D8"/>
<path fill-rule="evenodd" clip-rule="evenodd" d="M3.29866 10.8874H7.25761C7.43972 10.8874 7.58752 10.7396 7.58752 10.5575C7.58752 10.3753 7.43972 10.2275 7.25761 10.2275H3.29866C3.11655 10.2275 2.96875 10.3753 2.96875 10.5575C2.96875 10.7396 3.11655 10.8874 3.29866 10.8874Z" fill="#3F78D8"/>
<path fill-rule="evenodd" clip-rule="evenodd" d="M3.29866 12.8669H7.25761C7.43972 12.8669 7.58752 12.7191 7.58752 12.5369C7.58752 12.3548 7.43972 12.207 7.25761 12.207H3.29866C3.11655 12.207 2.96875 12.3548 2.96875 12.5369C2.96875 12.7191 3.11655 12.8669 3.29866 12.8669Z" fill="#3F78D8"/>
<path fill-rule="evenodd" clip-rule="evenodd" d="M11.877 15.506H1.97964C1.54217 15.506 1.12253 15.3322 0.813071 15.023C0.503943 14.7136 0.330078 14.2939 0.330078 13.8565C0.330078 11.395 0.330078 6.19955 0.330078 4.50578C0.330078 4.06832 0.503943 3.64866 0.813071 3.33921L3.33921 0.813066C3.64866 0.503938 4.06831 0.330078 4.50577 0.330078H11.2172C11.6546 0.330078 12.0743 0.503938 12.3837 0.813066C12.6929 1.12252 12.8667 1.54217 12.8667 1.97964V8.38488C14.3893 8.81608 15.506 10.2172 15.506 11.877C15.506 13.8799 13.8799 15.506 11.877 15.506ZM12.2069 8.26282V1.97964C12.2069 1.71703 12.1027 1.4653 11.9169 1.27989C11.7315 1.09415 11.4798 0.989902 11.2172 0.989902C9.30368 0.989902 5.84192 0.989902 4.50577 0.989902C4.4322 0.989902 4.35962 0.998149 4.28902 1.01399V2.63946C4.28902 3.07693 4.11516 3.49658 3.80603 3.80603C3.49657 4.11516 3.07693 4.28902 2.63946 4.28902H1.01399C0.998149 4.35962 0.989902 4.43221 0.989902 4.50578V13.8565C0.989902 14.1191 1.09415 14.3708 1.27989 14.5562C1.4653 14.742 1.71703 14.8462 1.97964 14.8462H9.79097C8.85797 14.1894 8.24797 13.1039 8.24797 11.877C8.24797 9.8741 9.8741 8.24797 11.877 8.24797C11.9882 8.24797 12.098 8.25292 12.2069 8.26282ZM11.877 8.90779C13.5157 8.90779 14.8462 10.2383 14.8462 11.877C14.8462 13.5157 13.5157 14.8462 11.877 14.8462C10.2383 14.8462 8.90779 13.5157 8.90779 11.877C8.90779 10.2383 10.2383 8.90779 11.877 8.90779ZM3.6292 1.4564L1.4564 3.6292H2.63946C2.90207 3.6292 3.1538 3.52495 3.33921 3.33921C3.52495 3.1538 3.6292 2.90207 3.6292 2.63946V1.4564Z" fill="#3F78D8"/>
</g>
<defs>
<clipPath id="clip0_881_2003">
<rect width="15.8358" height="15.8358" fill="white"/>
</clipPath>
</defs>
</svg>
