<svg width="13" height="16" viewBox="0 0 13 16" fill="none" xmlns="http://www.w3.org/2000/svg">
<path fill-rule="evenodd" clip-rule="evenodd" d="M12.5367 1.64956C12.5367 1.2121 12.3628 0.79245 12.0537 0.482993C11.7442 0.173865 11.3246 0 10.8871 0C8.97361 0 5.51184 0 4.17569 0C3.73823 0 3.31859 0.173865 3.00913 0.482993L0.482993 3.00913C0.173865 3.31859 0 3.73823 0 4.1757V13.5264C0 13.9639 0.173865 14.3835 0.482993 14.693C0.79245 15.0021 1.2121 15.176 1.64956 15.176H10.8871C11.798 15.176 12.5367 14.4373 12.5367 13.5264V1.64956ZM0.683907 3.95894C0.668071 4.02955 0.659824 4.10213 0.659824 4.1757V13.5264C0.659824 13.789 0.764075 14.0407 0.949816 14.2261C1.13523 14.4119 1.38695 14.5161 1.64956 14.5161H10.8871C11.4338 14.5161 11.8768 14.0731 11.8768 13.5264V1.64956C11.8768 1.38695 11.7726 1.13523 11.5868 0.949816C11.4014 0.764075 11.1497 0.659824 10.8871 0.659824C8.97361 0.659824 5.51184 0.659824 4.17569 0.659824C4.10212 0.659824 4.02954 0.668071 3.95894 0.683907V2.30938C3.95894 2.74685 3.78508 3.16649 3.47595 3.47595C3.16649 3.78508 2.74685 3.95894 2.30938 3.95894H0.683907ZM3.29912 1.12632L1.12632 3.29912H2.30938C2.57199 3.29912 2.82372 3.19487 3.00913 3.00913C3.19487 2.82372 3.29912 2.57199 3.29912 2.30938V1.12632Z" fill="#3F78D8"/>
<path fill-rule="evenodd" clip-rule="evenodd" d="M2.96858 12.5368H9.56682C9.74893 12.5368 9.89674 12.389 9.89674 12.2069C9.89674 12.0248 9.74893 11.877 9.56682 11.877H2.96858C2.78647 11.877 2.63867 12.0248 2.63867 12.2069C2.63867 12.389 2.78647 12.5368 2.96858 12.5368Z" fill="#3F78D8"/>
<path fill-rule="evenodd" clip-rule="evenodd" d="M2.96858 10.5573H9.56682C9.74893 10.5573 9.89674 10.4095 9.89674 10.2274C9.89674 10.0453 9.74893 9.89746 9.56682 9.89746H2.96858C2.78647 9.89746 2.63867 10.0453 2.63867 10.2274C2.63867 10.4095 2.78647 10.5573 2.96858 10.5573Z" fill="#3F78D8"/>
<path fill-rule="evenodd" clip-rule="evenodd" d="M2.96858 8.57779H9.56682C9.74893 8.57779 9.89674 8.42999 9.89674 8.24788C9.89674 8.06577 9.74893 7.91797 9.56682 7.91797H2.96858C2.78647 7.91797 2.63867 8.06577 2.63867 8.24788C2.63867 8.42999 2.78647 8.57779 2.96858 8.57779Z" fill="#3F78D8"/>
<path fill-rule="evenodd" clip-rule="evenodd" d="M2.96858 6.5983H9.56682C9.74893 6.5983 9.89674 6.4505 9.89674 6.26839C9.89674 6.08628 9.74893 5.93848 9.56682 5.93848H2.96858C2.78647 5.93848 2.63867 6.08628 2.63867 6.26839C2.63867 6.4505 2.78647 6.5983 2.96858 6.5983Z" fill="#3F78D8"/>
</svg>
