<svg width="13" height="17" viewBox="0 0 13 17" fill="none" xmlns="http://www.w3.org/2000/svg">
<path d="M4.55939 0.641113V5.21973L0.8965 13.4612C0.720593 13.7581 0.63212 14.0986 0.641269 14.4435C0.650419 14.7884 0.75682 15.1237 0.948216 15.4108C1.13961 15.6979 1.40822 15.9251 1.72309 16.0662C2.03796 16.2073 2.38629 16.2566 2.72795 16.2084H10.0537C10.3954 16.2566 10.7437 16.2073 11.0586 16.0662C11.3735 15.9251 11.6421 15.6979 11.8335 15.4108C12.0249 15.1237 12.1313 14.7884 12.1404 14.4435C12.1496 14.0986 12.0611 13.7581 11.8852 13.4612L8.22228 5.21973V0.641113" stroke="#4A7BD9" stroke-width="1.28201" stroke-linecap="round" stroke-linejoin="round"/>
<path d="M3.64453 0.641113H9.13887" stroke="#4A7BD9" stroke-width="1.28201" stroke-linecap="round" stroke-linejoin="round"/>
</svg>
