<svg width="19" height="17" viewBox="0 0 19 17" fill="none" xmlns="http://www.w3.org/2000/svg">
<path d="M4.65354 10.7326C4.42896 11.2092 4.06469 11.5762 3.62647 11.7652C2.58844 12.2143 2.00507 13.3099 2.205 14.4328C2.34195 15.2024 2.84316 15.8543 3.54978 16.1802C4.23724 16.4979 5.02876 16.487 5.72443 16.1419C6.44202 15.7858 7.26641 15.7858 7.98399 16.1419C8.34278 16.3199 8.72896 16.4103 9.11514 16.4103C9.47119 16.4103 9.82725 16.3336 10.1586 16.1802C10.8625 15.8543 11.3665 15.1997 11.5034 14.4328C11.7006 13.3263 11.1282 12.2335 10.1066 11.7761C9.66291 11.5762 9.3096 11.2119 9.11514 10.7463C8.81661 10.0315 8.18393 9.17969 6.88023 9.17969C6.87202 9.17969 6.86106 9.17969 6.85284 9.17969C5.88329 9.19338 5.12462 9.72746 4.65354 10.7326ZM6.85558 9.7302H6.87749C7.68546 9.7302 8.26609 10.1438 8.60845 10.9599C8.85769 11.5543 9.3096 12.0226 9.88202 12.2801C10.6708 12.6334 11.1145 13.4797 10.9611 14.3397C10.8571 14.9231 10.4599 15.4407 9.92584 15.6872C9.38903 15.9365 8.76731 15.9255 8.22501 15.6571C7.78953 15.4407 7.32119 15.3339 6.85284 15.3339C6.3845 15.3339 5.91616 15.4407 5.48068 15.6571C4.93838 15.9255 4.31666 15.9365 3.77985 15.6872C3.24577 15.4407 2.84863 14.9231 2.74456 14.3397C2.58844 13.4687 3.04309 12.6197 3.84558 12.2719C4.40704 12.0281 4.86991 11.5652 5.14928 10.9682C5.52998 10.1547 6.10514 9.73841 6.85558 9.7302Z" fill="#185FA5"/>
<path d="M12.9105 7.84507C12.5079 7.65335 12.0313 7.69443 11.5712 7.9601C11.1412 8.2066 10.7742 8.62291 10.5304 9.13507C10.2867 9.64724 10.199 10.195 10.2785 10.6853C10.3661 11.2111 10.6345 11.6028 11.0371 11.7945C11.2042 11.8739 11.385 11.9123 11.5712 11.9123C11.8341 11.9123 12.108 11.8328 12.3764 11.6795C12.8037 11.433 13.1734 11.0167 13.4172 10.5045C13.661 9.99233 13.7486 9.44456 13.6692 8.95431C13.5843 8.43119 13.3131 8.03679 12.9105 7.84507ZM12.9242 10.2717C12.7297 10.6825 12.4394 11.0139 12.1053 11.2056C11.804 11.3782 11.5082 11.4111 11.2727 11.3015C11.0371 11.1892 10.8755 10.94 10.8208 10.5976C10.7578 10.2197 10.8317 9.78418 11.0262 9.37335C11.2206 8.96252 11.511 8.63112 11.8451 8.4394C12.0286 8.33259 12.2121 8.28055 12.3792 8.28055C12.486 8.28055 12.5846 8.30246 12.6777 8.34628C12.9132 8.45857 13.0748 8.70781 13.1296 9.05017C13.1926 9.42539 13.1187 9.85813 12.9242 10.2717Z" fill="#185FA5"/>
<path d="M8.49587 8.62862C8.60542 8.65601 8.71498 8.66971 8.82453 8.66971C9.18332 8.66971 9.55033 8.52181 9.87899 8.23697C10.2816 7.88913 10.5884 7.37423 10.7417 6.78537C10.8951 6.19652 10.8787 5.59671 10.6952 5.0955C10.5035 4.56416 10.1419 4.20263 9.67906 4.08486C8.76702 3.84658 7.75638 4.67371 7.43045 5.92537C7.09905 7.19894 7.5674 8.3876 8.49587 8.62862ZM7.96179 6.06231C8.18364 5.21053 8.79167 4.58881 9.35587 4.58881C9.41887 4.58881 9.48186 4.59703 9.54211 4.61346C9.82422 4.68741 10.0515 4.92569 10.183 5.28722C10.3282 5.68435 10.3391 6.16639 10.2131 6.65117C10.0871 7.13321 9.84065 7.55225 9.52294 7.82614C9.23262 8.07537 8.91491 8.17397 8.63281 8.10002C8.02205 7.94117 7.7153 7.00722 7.96179 6.06231Z" fill="#185FA5"/>
<path d="M1.32547 11.6796C1.59388 11.8357 1.8705 11.9124 2.13069 11.9124C2.31694 11.9124 2.4977 11.8741 2.66477 11.7947C3.06738 11.6029 3.33853 11.2085 3.42343 10.6854C3.50286 10.1979 3.41522 9.6474 3.17146 9.13523C2.6456 8.02873 1.60209 7.46179 0.791392 7.84523C-0.0193099 8.22867 -0.241157 9.39816 0.284703 10.5047C0.525723 11.0168 0.895469 11.4331 1.32547 11.6796ZM1.02693 8.34096C1.12005 8.29714 1.21865 8.27523 1.32273 8.27523C1.79929 8.27523 2.3635 8.71071 2.67847 9.36803C2.87292 9.77886 2.94687 10.2143 2.88388 10.5923C2.82636 10.9347 2.66751 11.1839 2.43197 11.2962C2.19643 11.4085 1.90063 11.3756 1.59936 11.2003C1.26795 11.0086 0.974896 10.6772 0.780437 10.2664C0.399735 9.46937 0.512028 8.58472 1.02693 8.34096Z" fill="#185FA5"/>
<path d="M2.9611 6.78802C3.24868 7.89726 4.07307 8.66961 4.88925 8.66961C4.99607 8.66961 5.10288 8.65592 5.2097 8.62853C6.12174 8.39025 6.60104 7.17694 6.27238 5.92254C5.94645 4.66814 4.93581 3.84375 4.02377 4.08203C3.11173 4.32031 2.63243 5.53362 2.9611 6.78802ZM4.16072 4.61337C4.77148 4.45451 5.49454 5.11731 5.74104 6.06222C5.98753 7.00713 5.68078 7.94108 5.07002 8.09993C4.46199 8.25878 3.73619 7.59598 3.4897 6.65108C3.2432 5.70617 3.55269 4.77222 4.16072 4.61337Z" fill="#185FA5"/>
<path d="M15.0056 6.06196C16.6796 6.06196 18.0366 4.70494 18.0366 3.03098C18.0366 1.35702 16.6796 0 15.0056 0C13.3316 0 11.9746 1.35702 11.9746 3.03098C11.9746 4.70494 13.3316 6.06196 15.0056 6.06196Z" fill="#185FA5"/>
<path d="M15.0061 1.34668V4.71443V1.34668ZM13.3223 3.03056H16.69H13.3223Z" fill="black"/>
<path d="M15.0061 1.34668V4.71443M13.3223 3.03056H16.69" stroke="white" stroke-width="0.875616" stroke-linecap="round"/>
</svg>
