<svg width="9" height="35" viewBox="0 0 9 35" fill="none" xmlns="http://www.w3.org/2000/svg">
<path d="M7.10962 34.1136H1.55277C0.696705 34.1136 0 33.4445 0 32.6217V1.49191C0 0.669396 0.696376 0 1.55277 0H7.10962C7.96568 0 8.66239 0.66908 8.66239 1.49191V32.622C8.66239 33.4445 7.96601 34.1139 7.10962 34.1139V34.1136ZM1.55277 0.569746C1.02333 0.569746 0.59266 0.983531 0.59266 1.49222V32.6223C0.59266 33.131 1.02333 33.5448 1.55277 33.5448H7.10962C7.63906 33.5448 8.06973 33.131 8.06973 32.6223V1.49191C8.06973 0.983215 7.63906 0.56943 7.10962 0.56943H1.55277V0.569746Z" fill="#4F5464"/>
<path d="M6.54486 7.0149H2.02616C1.46675 7.0149 1.01172 6.5777 1.01172 6.04022V2.0694C1.01172 1.53192 1.46675 1.09473 2.02616 1.09473H6.54519C7.1046 1.09473 7.55963 1.53192 7.55963 2.0694V6.04022C7.55963 6.5777 7.1046 7.0149 6.54519 7.0149H6.54486ZM2.02616 1.66384C1.7937 1.66384 1.60438 1.84574 1.60438 2.06908V6.03991C1.60438 6.26325 1.7937 6.44515 2.02616 6.44515H6.54519C6.77765 6.44515 6.96697 6.26325 6.96697 6.03991V2.06908C6.96697 1.84574 6.77765 1.66384 6.54519 1.66384H2.02616Z" fill="#4F5464"/>
<path d="M6.54486 13.2698H2.02616C1.46675 13.2698 1.01172 12.8326 1.01172 12.2951V8.32428C1.01172 7.7868 1.46675 7.34961 2.02616 7.34961H6.54519C7.1046 7.34961 7.55963 7.7868 7.55963 8.32428V12.2951C7.55963 12.8326 7.1046 13.2698 6.54519 13.2698H6.54486ZM2.02616 7.91872C1.7937 7.91872 1.60438 8.10062 1.60438 8.32397V12.2948C1.60438 12.5181 1.7937 12.7 2.02616 12.7H6.54519C6.77765 12.7 6.96697 12.5181 6.96697 12.2948V8.32397C6.96697 8.10062 6.77765 7.91872 6.54519 7.91872H2.02616Z" fill="#4F5464"/>
<path d="M6.54486 19.9143H2.02616C1.46675 19.9143 1.01172 19.4771 1.01172 18.9396V14.9688C1.01172 14.4313 1.46675 13.9941 2.02616 13.9941H6.54519C7.1046 13.9941 7.55963 14.4313 7.55963 14.9688V18.9396C7.55963 19.4771 7.1046 19.9143 6.54519 19.9143H6.54486ZM2.02616 14.5633C1.7937 14.5633 1.60438 14.7452 1.60438 14.9685V18.9393C1.60438 19.1627 1.7937 19.3446 2.02616 19.3446H6.54519C6.77765 19.3446 6.96697 19.1627 6.96697 18.9393V14.9685C6.96697 14.7452 6.77765 14.5633 6.54519 14.5633H2.02616Z" fill="#4F5464"/>
<path d="M6.54486 26.2786H2.02616C1.46675 26.2786 1.01172 25.8414 1.01172 25.3039V21.3331C1.01172 20.7956 1.46675 20.3584 2.02616 20.3584H6.54519C7.1046 20.3584 7.55963 20.7956 7.55963 21.3331V25.3039C7.55963 25.8414 7.1046 26.2786 6.54519 26.2786H6.54486ZM2.02616 20.9278C1.7937 20.9278 1.60438 21.1097 1.60438 21.3331V25.3039C1.60438 25.5272 1.7937 25.7091 2.02616 25.7091H6.54519C6.77765 25.7091 6.96697 25.5272 6.96697 25.3039V21.3331C6.96697 21.1097 6.77765 20.9278 6.54519 20.9278H2.02616Z" fill="#4F5464"/>
</svg>
