<svg width="16" height="15" viewBox="0 0 16 15" fill="none" xmlns="http://www.w3.org/2000/svg">
<path d="M5.43419 7.81349C5.17192 8.37001 4.74653 8.79859 4.23479 9.01928C3.0226 9.54382 2.34134 10.8232 2.57482 12.1345C2.73474 13.0333 3.32005 13.7945 4.14524 14.1751C4.94803 14.5461 5.87237 14.5333 6.68476 14.1303C7.52274 13.7145 8.48545 13.7145 9.32343 14.1303C9.74242 14.3382 10.1934 14.4438 10.6444 14.4438C11.0602 14.4438 11.4759 14.3542 11.863 14.1751C12.6849 13.7945 13.2734 13.0301 13.4334 12.1345C13.6636 10.8424 12.9952 9.56621 11.8022 9.03208C11.284 8.79859 10.8715 8.37321 10.6444 7.82948C10.2957 6.9947 9.55691 6 8.03448 6C8.02488 6 8.01209 6 8.0025 6C6.87026 6.01599 5.98431 6.63968 5.43419 7.81349ZM8.00569 6.64288H8.03128C8.97481 6.64288 9.65286 7.12583 10.0527 8.07895C10.3437 8.773 10.8715 9.31993 11.5399 9.62058C12.4611 10.0332 12.9792 11.0215 12.8001 12.0258C12.6785 12.707 12.2148 13.3115 11.5911 13.5994C10.9642 13.8904 10.2382 13.8776 9.60489 13.5642C9.09635 13.3115 8.54942 13.1868 8.0025 13.1868C7.45557 13.1868 6.90865 13.3115 6.4001 13.5642C5.76682 13.8776 5.04079 13.8904 4.4139 13.5994C3.79021 13.3115 3.32645 12.707 3.20491 12.0258C3.0226 11.0087 3.55353 10.0172 4.49066 9.61098C5.14633 9.32633 5.68686 8.7858 6.0131 8.08855C6.45767 7.13863 7.12933 6.65247 8.00569 6.64288Z" fill="#3F78D8"/>
<path d="M15.0776 4.44218C14.6074 4.2183 14.0509 4.26627 13.5136 4.57652C13.0114 4.86437 12.5829 5.35053 12.2982 5.94863C12.0135 6.54673 11.9112 7.1864 12.0039 7.75892C12.1063 8.37301 12.4197 8.83038 12.8899 9.05426C13.085 9.14702 13.2961 9.19179 13.5136 9.19179C13.8206 9.19179 14.1405 9.09904 14.4539 8.91993C14.9529 8.63208 15.3846 8.14592 15.6693 7.54782C15.954 6.94972 16.0563 6.31004 15.9636 5.73753C15.8644 5.12664 15.5478 4.66607 15.0776 4.44218ZM15.0936 7.27596C14.8665 7.75572 14.5275 8.14272 14.1373 8.36661C13.7855 8.56811 13.44 8.60649 13.165 8.47855C12.8899 8.34742 12.7012 8.05637 12.6372 7.65657C12.5637 7.21519 12.65 6.70664 12.8771 6.22689C13.1042 5.74713 13.4432 5.36012 13.8334 5.13623C14.0477 5.0115 14.262 4.95073 14.4571 4.95073C14.5819 4.95073 14.697 4.97631 14.8057 5.02749C15.0808 5.15862 15.2695 5.44968 15.3335 5.84948C15.407 6.28766 15.3207 6.793 15.0936 7.27596Z" fill="#3F78D8"/>
<path d="M9.92097 5.35684C10.0489 5.38882 10.1768 5.40481 10.3048 5.40481C10.7238 5.40481 11.1523 5.2321 11.5362 4.89947C12.0063 4.49327 12.3645 3.89198 12.5436 3.20432C12.7228 2.51667 12.7036 1.81622 12.4893 1.23091C12.2654 0.610426 11.8432 0.188238 11.3027 0.0507076C10.2376 -0.227552 9.0574 0.738362 8.67679 2.20003C8.28979 3.68728 8.83671 5.07538 9.92097 5.35684ZM9.29728 2.35995C9.55635 1.36525 10.2664 0.639211 10.9253 0.639211C10.9988 0.639211 11.0724 0.648807 11.1428 0.667997C11.4722 0.754354 11.7377 1.03261 11.8912 1.4548C12.0607 1.91857 12.0735 2.48149 11.9264 3.0476C11.7792 3.61052 11.4914 4.09987 11.1204 4.41971C10.7813 4.71076 10.4103 4.82591 10.0809 4.73955C9.36765 4.55404 9.00943 3.46339 9.29728 2.35995Z" fill="#3F78D8"/>
<path d="M1.54786 8.9202C1.8613 9.10251 2.18434 9.19206 2.48819 9.19206C2.70568 9.19206 2.91677 9.14728 3.11187 9.05453C3.58204 8.83064 3.89868 8.37007 3.99783 7.75918C4.09058 7.18987 3.98823 6.54699 3.70358 5.94889C3.08948 4.65674 1.8709 3.99467 0.924174 4.44245C-0.0225498 4.89022 -0.281619 6.25594 0.332472 7.54809C0.61393 8.14619 1.04571 8.63234 1.54786 8.9202ZM1.19924 5.02136C1.30798 4.97018 1.42312 4.9446 1.54466 4.9446C2.10118 4.9446 2.76005 5.45314 3.12787 6.22076C3.35495 6.70051 3.44131 7.20906 3.36775 7.65044C3.30058 8.05024 3.11507 8.34129 2.84001 8.47242C2.56495 8.60356 2.21952 8.56518 1.8677 8.36048C1.48069 8.13659 1.13847 7.74959 0.91138 7.26983C0.466804 6.3391 0.597938 5.30602 1.19924 5.02136Z" fill="#3F78D8"/>
<path d="M3.45701 3.2079C3.79284 4.50325 4.75555 5.4052 5.70867 5.4052C5.83341 5.4052 5.95815 5.3892 6.08289 5.35722C7.14795 5.07896 7.70767 3.66207 7.32386 2.19721C6.94325 0.732348 5.76305 -0.230368 4.69798 0.0478921C3.63292 0.326152 3.0732 1.74304 3.45701 3.2079ZM4.8579 0.66838C5.57114 0.482873 6.41552 1.25688 6.70337 2.36033C6.99123 3.46377 6.63301 4.55442 5.91977 4.73993C5.20973 4.92544 4.36215 4.15143 4.0743 3.04798C3.78644 1.94454 4.14786 0.853887 4.8579 0.66838Z" fill="#3F78D8"/>
</svg>
