<svg width="15" height="17" viewBox="0 0 15 17" fill="none" xmlns="http://www.w3.org/2000/svg">
<path d="M12.4599 1.68457H1.68304C0.939055 1.68457 0.335938 2.28769 0.335938 3.03167V15.1556C0.335938 15.8996 0.939055 16.5027 1.68304 16.5027H12.4599C13.2038 16.5027 13.807 15.8996 13.807 15.1556V3.03167C13.807 2.28769 13.2038 1.68457 12.4599 1.68457Z" stroke="#185FA5" stroke-width="0.673551"/>
<path d="M9.09376 0H5.05246C4.68047 0 4.37891 0.301559 4.37891 0.673551V2.35743C4.37891 2.72942 4.68047 3.03098 5.05246 3.03098H9.09376C9.46575 3.03098 9.76731 2.72942 9.76731 2.35743V0.673551C9.76731 0.301559 9.46575 0 9.09376 0Z" fill="#185FA5"/>
<path d="M3.03125 7.40967H11.1139H3.03125ZM3.03125 10.1039H11.1139H3.03125ZM3.03125 12.7981H8.41966H3.03125Z" fill="black"/>
<path d="M3.03125 7.40967H11.1139M3.03125 10.1039H11.1139M3.03125 12.7981H8.41966" stroke="#185FA5" stroke-width="0.673551" stroke-linecap="round"/>
</svg>
