<svg width="36" height="34" viewBox="0 0 36 34" fill="none" xmlns="http://www.w3.org/2000/svg">
<rect width="36" height="34" fill="#70C3FF"/>
<rect width="1440" height="1346" transform="translate(-15 -27)" fill="white"/>
<rect x="-16" y="-27" width="282" height="1346" fill="white"/>
<rect x="-15.5" y="-26.5" width="281" height="1345" stroke="black" stroke-opacity="0.1"/>
<rect x="-16" y="-13" width="282" height="66" stroke="#E5E7EB"/>
<path d="M12.6 0C13.6789 0 14.6688 0.420612 15.3893 1.19776C16.1099 1.97573 16.5375 3.08641 16.5375 4.42628C16.5375 5.75959 16.1154 7.09783 15.4271 8.11076C14.742 9.11871 13.7498 9.85808 12.6 9.85808C11.4502 9.85808 10.458 9.11871 9.77291 8.11076C9.08459 7.09783 8.66251 5.75959 8.66251 4.42711C8.66251 3.08641 9.0901 1.97573 9.81144 1.19776C10.5313 0.420612 11.5211 0 12.6 0ZM3.93749 7.39357C5.01637 7.39357 6.00628 7.81419 6.72679 8.59131C7.44738 9.36928 7.87497 10.48 7.87497 11.8198C7.87497 13.1532 7.45288 14.4914 6.76464 15.5043C6.07949 16.5123 5.08724 17.2517 3.93749 17.2517C2.78773 17.2517 1.79548 16.5123 1.1104 15.5043C0.422085 14.4914 0 13.1524 0 11.8207C0 10.48 0.42759 9.36928 1.14893 8.59131C1.86876 7.81419 2.8586 7.39357 3.93749 7.39357ZM17.7187 13.1441C12.1086 13.1441 7.4608 18.1266 5.99761 24.3742C5.34873 27.1459 6.33856 30.1189 8.77983 31.5278C10.7195 32.6484 13.6222 33.6818 17.718 33.6818C21.8142 33.6818 24.7171 32.6484 26.6578 31.5278C29.0985 30.1189 30.0877 27.1459 29.4393 24.3749C27.9765 18.1266 23.3282 13.1441 17.7187 13.1441ZM31.4999 7.39357C30.421 7.39357 29.431 7.81419 28.7117 8.59131C27.9901 9.36928 27.5626 10.48 27.5626 11.8198C27.5626 13.1532 27.9848 14.4914 28.6732 15.5043C29.3579 16.5123 30.3501 17.2517 31.4999 17.2517C32.6498 17.2517 33.642 16.5123 34.3274 15.5043C35.015 14.4914 35.4373 13.1532 35.4373 11.8207C35.4373 10.48 35.0098 9.36928 34.2897 8.59131C33.5689 7.81419 32.5789 7.39357 31.4999 7.39357ZM22.8374 0C21.7584 0 20.7684 0.420612 20.0491 1.19776C19.3275 1.97573 18.9 3.08641 18.9 4.42628C18.9 5.75959 19.3223 7.09783 20.0106 8.11076C20.6953 9.11871 21.6875 9.85808 22.8374 9.85808C23.9872 9.85808 24.9794 9.11871 25.6648 8.11076C26.3532 7.09783 26.7747 5.75959 26.7747 4.42711C26.7747 3.08641 26.3472 1.97573 25.6271 1.19776C24.9063 0.420612 23.9163 0 22.8374 0Z" fill="#3F78D8"/>
<path d="M17.1232 24.5241H14.1453C13.9765 24.5241 13.8351 24.4645 13.7212 24.3453C13.6072 24.2261 13.5501 24.0787 13.5497 23.9033C13.5493 23.7278 13.6065 23.5804 13.7212 23.4611C13.836 23.342 13.9773 23.2823 14.1453 23.2823H17.1232V20.1781C17.1232 20.0022 17.1804 19.8548 17.2947 19.736C17.4091 19.6172 17.5504 19.5576 17.7188 19.5571C17.8872 19.5568 18.0287 19.6164 18.1434 19.736C18.2582 19.8556 18.3152 20.003 18.3144 20.1781V23.2823H21.2925C21.4614 23.2823 21.6024 23.342 21.717 23.4611C21.8316 23.5804 21.8881 23.7278 21.8881 23.9033C21.8874 24.0787 21.8301 24.2263 21.7162 24.3459C21.6024 24.4656 21.4614 24.5249 21.2925 24.5241H18.3144V27.6284C18.3144 27.8044 18.2572 27.9519 18.1428 28.0711C18.0285 28.1903 17.8872 28.2497 17.7188 28.2493C17.5504 28.2488 17.4091 28.1893 17.2947 28.0705C17.1804 27.9516 17.1232 27.8044 17.1232 27.6284V24.5241Z" fill="white"/>
</svg>
