<svg width="13" height="28" viewBox="0 0 13 28" fill="none" xmlns="http://www.w3.org/2000/svg">
<path d="M10.1619 0.42334H2.54081C1.37163 0.42334 0.423828 1.37115 0.423828 2.54032V25.4037C0.423828 26.5729 1.37163 27.5207 2.54081 27.5207H10.1619C11.3311 27.5207 12.2789 26.5729 12.2789 25.4037V2.54032C12.2789 1.37115 11.3311 0.42334 10.1619 0.42334Z" fill="white" stroke="#185FA5" stroke-width="0.846793"/>
<path d="M9.48472 3.38818H3.21845C2.84431 3.38818 2.54102 3.69148 2.54102 4.06562V6.52132C2.54102 6.89545 2.84431 7.19875 3.21845 7.19875H9.48472C9.85885 7.19875 10.1622 6.89545 10.1622 6.52132V4.06562C10.1622 3.69148 9.85885 3.38818 9.48472 3.38818Z" fill="#185FA5"/>
<path d="M9.48472 8.46875H3.21845C2.84431 8.46875 2.54102 8.77205 2.54102 9.14618V11.6019C2.54102 11.976 2.84431 12.2793 3.21845 12.2793H9.48472C9.85885 12.2793 10.1622 11.976 10.1622 11.6019V9.14618C10.1622 8.77205 9.85885 8.46875 9.48472 8.46875Z" fill="#85B7EB"/>
<path d="M9.48472 13.5503H3.21845C2.84431 13.5503 2.54102 13.8536 2.54102 14.2277V16.6834C2.54102 17.0576 2.84431 17.3609 3.21845 17.3609H9.48472C9.85885 17.3609 10.1622 17.0576 10.1622 16.6834V14.2277C10.1622 13.8536 9.85885 13.5503 9.48472 13.5503Z" fill="#B5D4F4"/>
<path d="M9.48472 18.6309H3.21845C2.84431 18.6309 2.54102 18.9342 2.54102 19.3083V21.764C2.54102 22.1381 2.84431 22.4414 3.21845 22.4414H9.48472C9.85885 22.4414 10.1622 22.1381 10.1622 21.764V19.3083C10.1622 18.9342 9.85885 18.6309 9.48472 18.6309Z" fill="#E6F1FB"/>
</svg>
