<svg width="20" height="20" viewBox="0 0 20 20" fill="none" xmlns="http://www.w3.org/2000/svg">
<path d="M7.76992 1.85597H11.9944C12.0763 1.85433 12.1544 1.82061 12.2118 1.76204C12.2692 1.70348 12.3014 1.62474 12.3014 1.54273C12.3014 1.46072 12.2692 1.38198 12.2118 1.32342C12.1544 1.26485 12.0763 1.23113 11.9944 1.22949H7.76994C7.68795 1.23113 7.60987 1.26485 7.55246 1.32341C7.49505 1.38197 7.46289 1.46071 7.46289 1.54272C7.46289 1.62473 7.49504 1.70347 7.55245 1.76204C7.60985 1.8206 7.68793 1.85433 7.76992 1.85597Z" fill="#3F78D8"/>
<path d="M17.6215 5.08573C17.6805 5.14235 17.7593 5.1736 17.8411 5.17277C17.9228 5.17193 18.001 5.13909 18.0588 5.08128C18.1166 5.02347 18.1494 4.9453 18.1502 4.86356C18.1511 4.78181 18.1198 4.703 18.0632 4.64404L16.0397 2.62055C15.9808 2.5638 15.9019 2.53244 15.8201 2.53322C15.7383 2.53399 15.66 2.56684 15.6022 2.62469C15.5443 2.68254 15.5115 2.76079 15.5107 2.8426C15.5099 2.92442 15.5413 3.00327 15.598 3.06221L16.3842 3.84844L15.3036 4.91657C14.1638 3.85269 12.738 3.14503 11.2015 2.88056C9.6649 2.6161 8.08455 2.80636 6.65468 3.42796C5.2248 4.04956 4.00771 5.07541 3.153 6.37942C2.2983 7.68342 1.84324 9.20874 1.84375 10.7679C2.28353 21.3823 17.4151 21.3852 17.8534 10.7678C17.8546 8.76394 17.102 6.83291 15.7452 5.35825L16.8259 4.2901L17.6215 5.08573ZM17.2269 10.7679C17.2241 12.7235 16.446 14.5981 15.0632 15.9809C13.6804 17.3637 11.8057 18.1418 9.85011 18.1446C0.0596472 17.738 0.0626471 3.79424 9.85017 3.39109C11.8059 3.39337 13.6809 4.17131 15.0638 5.55423C16.4467 6.93716 17.2246 8.81215 17.2269 10.7679Z" fill="#3F78D8"/>
<path d="M10.1627 10.6383L10.2057 5.53C10.2052 5.44772 10.1723 5.36895 10.1142 5.31071C10.056 5.25248 9.97732 5.21945 9.89504 5.21876C9.81276 5.21808 9.73351 5.24979 9.67442 5.30705C9.61533 5.36431 9.58114 5.44252 9.57923 5.52478L9.53517 10.7643C9.53482 10.8059 9.54275 10.8471 9.55851 10.8856C9.57427 10.9241 9.59753 10.959 9.62694 10.9884L12.3055 13.6668C12.3346 13.696 12.3691 13.7191 12.4071 13.7348C12.4451 13.7506 12.4858 13.7586 12.527 13.7586C12.5885 13.7576 12.6484 13.7387 12.6992 13.7041C12.7501 13.6695 12.7897 13.6208 12.8133 13.564C12.8368 13.5071 12.8432 13.4447 12.8317 13.3842C12.8202 13.3238 12.7912 13.2681 12.7485 13.2239L10.1627 10.6383Z" fill="#3F78D8"/>
</svg>
