<svg width="20" height="20" viewBox="0 0 20 20" fill="none" xmlns="http://www.w3.org/2000/svg">
<g clip-path="url(#clip0_915_1974)">
<path fill-rule="evenodd" clip-rule="evenodd" d="M17.6731 14.4774C17.7317 14.536 17.7646 14.6156 17.7645 14.6985C17.7645 14.7814 17.7315 14.8608 17.6729 14.9194C17.6142 14.978 17.5347 15.0109 17.4518 15.0108C17.3689 15.0108 17.2894 14.9778 17.2308 14.9191L16.4375 14.1258V16.6368C16.4375 16.7197 16.4046 16.7992 16.346 16.8578C16.2874 16.9164 16.2079 16.9493 16.125 16.9493C16.0421 16.9493 15.9626 16.9164 15.904 16.8578C15.8454 16.7992 15.8125 16.7197 15.8125 16.6368V14.1258L15.0191 14.919C14.9599 14.9743 14.8815 15.0044 14.8005 15.003C14.7195 15.0017 14.6422 14.9689 14.5849 14.9116C14.5276 14.8543 14.4948 14.777 14.4934 14.696C14.492 14.615 14.5221 14.5366 14.5774 14.4774L15.9039 13.1505C15.9626 13.0919 16.0422 13.059 16.1251 13.059C16.208 13.059 16.2876 13.0919 16.3463 13.1505L17.6731 14.4774ZM19.3509 15.3957C19.4023 14.9721 19.3698 14.5425 19.2552 14.1314C19.1406 13.7204 18.9461 13.3359 18.6829 13C18.4197 12.6641 18.0929 12.3834 17.7212 12.1738C17.3495 11.9642 16.9402 11.8299 16.5165 11.7785C16.3844 11.7625 16.2515 11.7543 16.1185 11.7542C15.4928 11.7555 14.8808 11.9374 14.356 12.278C13.8311 12.6187 13.4158 13.1036 13.1599 13.6745C12.904 14.2455 12.8183 14.8782 12.9132 15.4966C13.0082 16.1151 13.2796 16.693 13.695 17.1609C14.1104 17.6288 14.652 17.9669 15.2548 18.1344C15.8576 18.302 16.496 18.292 17.0933 18.1056C17.6906 17.9192 18.2213 17.5643 18.6218 17.0835C19.0223 16.6028 19.2754 16.0167 19.3509 15.3955V15.3957ZM2.45828 16.6809H12.6314C12.316 16.0239 12.1923 15.2912 12.2746 14.5671C12.357 13.843 12.6419 13.1567 13.0967 12.5873C13.5515 12.0178 14.1577 11.5882 14.8457 11.3479C15.5338 11.1075 16.2756 11.0661 16.9861 11.2284V8.76563L14.9282 6.70731L10.6591 9.78473L11.9318 10.6769C11.9663 10.7001 11.9958 10.7299 12.0186 10.7646C12.0415 10.7993 12.0571 10.8382 12.0647 10.8791C12.0723 10.92 12.0717 10.9619 12.0629 11.0025C12.0541 11.0431 12.0373 11.0816 12.0134 11.1156C11.9896 11.1496 11.9592 11.1786 11.924 11.2007C11.8888 11.2229 11.8496 11.2378 11.8086 11.2446C11.7676 11.2514 11.7257 11.2499 11.6853 11.2403C11.6448 11.2307 11.6067 11.2131 11.5732 11.1886L5.1591 6.6925L0.625 10.5269V14.8472C0.625517 15.3332 0.818804 15.7992 1.16246 16.143C1.50612 16.4867 1.97208 16.6801 2.45813 16.6807L2.45828 16.6809ZM2.45828 1.75H15.1528C15.6389 1.75051 16.1049 1.94381 16.4486 2.2875C16.7923 2.63119 16.9856 3.09719 16.9861 3.58324V7.8816L15.1821 6.07777C15.1296 6.02525 15.0602 5.9931 14.9862 5.98709C14.9121 5.98108 14.8384 6.00159 14.7781 6.04496L10.1172 9.40512L5.3207 6.04258C5.26412 6.00302 5.19605 5.98328 5.12708 5.98644C5.05811 5.98961 4.99213 6.0155 4.93941 6.06008L0.625 9.70863V3.58324C0.625496 3.09718 0.818805 2.63116 1.1625 2.28746C1.5062 1.94377 1.97222 1.7505 2.45828 1.75ZM19.1747 12.6148C18.7649 12.0905 18.2262 11.6813 17.611 11.4273V3.58324C17.6103 2.9315 17.3511 2.30666 16.8902 1.8458C16.4294 1.38495 15.8046 1.12572 15.1528 1.125H2.45828C1.80653 1.1257 1.18167 1.38492 0.720804 1.84578C0.259941 2.30663 0.000713447 2.93149 0 3.58324V14.8473C0.000733886 15.4991 0.259951 16.124 0.720792 16.5849C1.18163 17.0458 1.80647 17.3051 2.45824 17.3059H13.009C13.0306 17.3352 13.0529 17.3645 13.0754 17.3933C13.3892 17.7938 13.7788 18.1285 14.2219 18.3785C14.665 18.6284 15.153 18.7886 15.6581 18.8499C16.1631 18.9113 16.6753 18.8725 17.1654 18.7359C17.6555 18.5993 18.1138 18.3675 18.5143 18.0537C18.9148 17.74 19.2495 17.3504 19.4995 16.9073C19.7494 16.4641 19.9096 15.9761 19.9709 15.4711C20.0323 14.966 19.9935 14.4538 19.8569 13.9638C19.7203 13.4737 19.4885 13.0153 19.1747 12.6148ZM9.8532 3.97063C10.1365 3.97062 10.4135 4.05462 10.6491 4.21202C10.8846 4.36942 11.0683 4.59314 11.1767 4.8549C11.2851 5.11665 11.3135 5.40468 11.2582 5.68255C11.203 5.96043 11.0665 6.21568 10.8662 6.41603C10.6659 6.61637 10.4106 6.75281 10.1327 6.80809C9.85487 6.86337 9.56684 6.83501 9.30509 6.7266C9.04333 6.61818 8.8196 6.43458 8.66218 6.19901C8.50477 5.96344 8.42075 5.68649 8.42074 5.40316C8.42127 5.02341 8.57236 4.65937 8.84088 4.39084C9.10941 4.12232 9.47345 3.97123 9.8532 3.9707V3.97063ZM9.8532 7.46051C9.44628 7.46052 9.0485 7.33986 8.71015 7.11379C8.3718 6.88772 8.10809 6.5664 7.95237 6.19045C7.79664 5.81451 7.75589 5.40083 7.83527 5.00173C7.91465 4.60262 8.1106 4.23602 8.39833 3.94828C8.68607 3.66054 9.05267 3.46459 9.45177 3.3852C9.85087 3.30581 10.2646 3.34655 10.6405 3.50227C11.0164 3.65799 11.3378 3.9217 11.5638 4.26004C11.7899 4.59838 11.9106 4.99617 11.9106 5.40309C11.91 5.94855 11.693 6.47149 11.3073 6.85719C10.9216 7.2429 10.3987 7.45987 9.8532 7.46051Z" fill="#4F5464"/>
</g>
<defs>
<clipPath id="clip0_915_1974">
<rect width="20" height="20" fill="white"/>
</clipPath>
</defs>
</svg>
