<svg width="19" height="19" viewBox="0 0 19 19" fill="none" xmlns="http://www.w3.org/2000/svg">
<path d="M14.4569 16.7604H3.57974C3.30342 16.7597 3.03862 16.6448 2.84323 16.441C2.64784 16.2371 2.53778 15.9608 2.53711 15.6724C2.53711 12.0557 5.44465 9.11523 9.01834 9.11523C12.592 9.11523 15.4996 12.0557 15.4996 15.6724C15.4989 15.9608 15.3888 16.2371 15.1935 16.441C14.9981 16.6448 14.7333 16.7597 14.4569 16.7604ZM9.01834 9.70332C5.75518 9.70332 3.10069 12.3791 3.10069 15.6724C3.10107 15.8049 3.15166 15.9318 3.24142 16.0255C3.33117 16.1191 3.45281 16.1719 3.57974 16.1723H14.4569C14.5839 16.1719 14.7055 16.1191 14.7953 16.0255C14.885 15.9318 14.9356 15.8049 14.936 15.6724C14.936 12.3806 12.2815 9.70332 9.01834 9.70332Z" fill="#5284DB"/>
<path d="M9.01823 8.5268C8.34943 8.5268 7.69565 8.31985 7.13956 7.93213C6.58348 7.54441 6.15006 6.99333 5.89412 6.34857C5.63818 5.70382 5.57122 4.99435 5.7017 4.30988C5.83217 3.62541 6.15423 2.99669 6.62714 2.50321C7.10006 2.00974 7.70258 1.67368 8.35853 1.53753C9.01448 1.40138 9.69439 1.47126 10.3123 1.73832C10.9302 2.00539 11.4583 2.45765 11.8299 3.03791C12.2014 3.61818 12.3997 4.30038 12.3997 4.99826C12.3988 5.93378 12.0422 6.83069 11.4083 7.4922C10.7743 8.15371 9.91477 8.52578 9.01823 8.5268ZM9.01823 2.05782C8.4609 2.05782 7.91608 2.23027 7.45268 2.55337C6.98927 2.87647 6.62809 3.33571 6.41481 3.873C6.20152 4.4103 6.14572 5.00152 6.25445 5.57191C6.36318 6.14231 6.63156 6.66624 7.02566 7.07747C7.41975 7.4887 7.92186 7.76875 8.46848 7.88221C9.01511 7.99567 9.5817 7.93744 10.0966 7.71488C10.6115 7.49232 11.0516 7.11544 11.3613 6.63189C11.6709 6.14833 11.8362 5.57983 11.8362 4.99826C11.8353 4.21867 11.5382 3.47125 11.0099 2.92C10.4816 2.36874 9.76534 2.05867 9.01823 2.05782Z" fill="#5284DB"/>
</svg>
