<svg width="15" height="17" viewBox="0 0 15 17" fill="none" xmlns="http://www.w3.org/2000/svg">
<path d="M4.81402 6.24966C5.65283 6.10566 6.27563 5.34246 6.36923 4.43166C6.46642 3.50286 6.68243 -0.226738 5.28203 0.0108617C1.64963 0.626462 1.90523 6.74286 4.81402 6.24966ZM9.59123 6.24966C12.5 6.74286 12.7556 0.626462 9.12323 0.0108617C7.72283 -0.226738 7.93883 3.50286 8.03603 4.43166C8.12963 5.34606 8.75243 6.10926 9.59123 6.24966ZM3.32003 9.13326C3.32003 8.64726 3.14723 8.20806 2.86643 7.88766C2.40923 7.28646 0.947625 6.07686 0.591225 6.38646C-0.157575 7.03806 -0.132375 8.63646 0.317625 9.79926C0.548025 10.4473 1.10963 10.9009 1.76123 10.9009C2.62163 10.9009 3.32003 10.1089 3.32003 9.13326ZM13.8104 6.38646C13.454 6.07686 11.9924 7.29006 11.5352 7.88766C11.258 8.20806 11.0816 8.64726 11.0816 9.13326C11.0816 10.1089 11.78 10.9009 12.6404 10.9009C13.2956 10.9009 13.8536 10.4473 14.084 9.79926C14.534 8.63646 14.5592 7.03806 13.8104 6.38646ZM10.88 11.8873C9.55523 11.2285 9.59843 9.95766 9.29603 8.79846C9.05843 7.87326 8.20883 7.18926 7.20083 7.18926C6.21443 7.18926 5.37923 7.84446 5.12003 8.74086C4.79963 9.84966 4.99043 11.1421 3.55043 11.8801C2.38043 12.2617 1.90523 12.8197 1.90523 14.1373C1.90523 15.2065 2.82323 16.3549 4.01123 16.4953C5.33603 16.6933 6.36563 16.4341 7.20443 15.9589C8.03963 16.4341 9.07283 16.6969 10.3976 16.4953C11.582 16.3513 12.5036 15.2101 12.5036 14.1373C12.5036 12.7909 12.0572 12.2905 10.8836 11.8873H10.88ZM9.31763 13.4965H7.94603L7.94963 14.9365H6.45203L6.45563 13.4965H5.00123V12.0565H6.45923L6.45563 10.6165H7.95323V12.0565H9.32483V13.4965H9.31763Z" fill="white"/>
</svg>
