<svg width="15" height="17" viewBox="0 0 15 17" fill="none" xmlns="http://www.w3.org/2000/svg">
<path d="M12.6884 1.24224C10.318 0.990075 8.90547 0.548699 8.13832 0.222755C7.43954 -0.0742517 6.63789 -0.0742517 5.93912 0.222755C5.17196 0.548699 3.75976 0.990393 1.389 1.24224C0.597117 1.32651 0 2.01116 0 2.83476V6.2885C0 8.23621 0.494545 10.1461 1.43021 11.8114C2.3787 13.5 3.74297 14.8654 5.37527 15.7603C5.53249 15.8465 5.69459 15.9301 5.85669 16.0086C6.23218 16.1905 6.63545 16.2812 7.03841 16.2812C7.44137 16.2812 7.84464 16.1902 8.22013 16.0086C8.38192 15.9304 8.54403 15.8468 8.70155 15.7603C9.75719 15.1815 11.3632 13.5321 12.1597 12.5931C12.2244 12.4865 12.2372 12.3504 12.1426 12.263C12.0477 12.1758 11.9033 12.1851 11.8193 12.2836C11.0598 13.1791 9.54807 14.9205 8.48846 15.338C8.33766 15.4207 8.18227 15.5008 8.02719 15.5758C7.39863 15.8802 6.67788 15.8802 6.04932 15.5758C5.89394 15.5005 5.73886 15.4207 5.58836 15.338C4.03176 14.4845 2.73068 13.1817 1.82524 11.5704C0.930782 9.97818 0.457912 8.15162 0.457912 6.2885V2.83476C0.457912 2.25665 0.878275 1.77584 1.4354 1.71669C2.77372 1.57423 4.67131 1.27627 6.1119 0.664131C6.70078 0.41387 7.37635 0.41387 7.96522 0.664131C9.40551 1.27627 11.3034 1.57423 12.6417 1.71669C13.1989 1.77584 13.6192 2.25665 13.6192 2.83476V6.2885C13.6192 7.37063 13.4605 8.441 13.1476 9.46908C12.8377 10.4873 12.3835 11.4413 11.7983 12.304C11.7253 12.4115 11.7497 12.5603 11.8532 12.6363C11.9567 12.7123 12.0993 12.6869 12.1722 12.5791C12.7849 11.6763 13.2599 10.6784 13.5841 9.61313C13.9114 8.53799 14.0771 7.4196 14.0771 6.28818V2.83444C14.0771 2.01084 13.48 1.32588 12.6881 1.24193L12.6884 1.24224Z" fill="#3F78D8"/>
<path d="M1.98477 6.28848C1.98477 6.15683 1.8822 6.04999 1.75581 6.04999C1.62943 6.04999 1.52686 6.15683 1.52686 6.28848C1.52686 7.95414 1.94905 9.5864 2.74795 11.0082C3.55235 12.4401 4.7069 13.5966 6.08644 14.3531C6.22137 14.4272 6.36057 14.4988 6.50008 14.5665C6.66646 14.647 6.85268 14.6896 7.03889 14.6896C7.22511 14.6896 7.41102 14.647 7.5777 14.5662C7.7166 14.4988 7.85581 14.4272 7.99135 14.3528C9.37119 13.5963 10.5254 12.4398 11.3298 11.0078C12.1287 9.58608 12.5509 7.95382 12.5509 6.28816V3.6062C12.5509 3.16641 12.2344 2.79341 11.8146 2.73839C10.0919 2.51262 8.66112 2.16123 7.56183 1.69442C7.39576 1.62382 7.21962 1.58789 7.03889 1.58789C6.85817 1.58789 6.68203 1.62382 6.51596 1.69442C5.41666 2.16155 3.98584 2.51262 2.26348 2.73839C1.84373 2.79341 1.52716 3.16641 1.52716 3.6062V6.27767C1.52716 6.40932 1.62973 6.51617 1.75612 6.51617C1.8825 6.51617 1.98507 6.40932 1.98507 6.27767V3.6062C1.98507 3.40618 2.12947 3.23669 2.32087 3.21157C4.08322 2.98071 5.55282 2.61883 6.68935 2.13579C6.80017 2.08873 6.918 2.06456 7.0395 2.06456C7.161 2.06456 7.27853 2.08841 7.38965 2.13548C8.52589 2.61819 9.99578 2.98007 11.7581 3.21125C11.9495 3.23637 12.0936 3.40586 12.0936 3.60588V6.28785C12.0936 7.86891 11.6931 9.41786 10.9351 10.7668C10.1741 12.1218 9.0824 13.2157 7.77857 13.9305C7.64975 14.0011 7.51756 14.0692 7.38538 14.1334C7.1723 14.2364 6.90671 14.2364 6.69393 14.1334C6.56114 14.0692 6.42895 14.0008 6.30074 13.9305C4.99661 13.2157 3.90525 12.1215 3.14389 10.7668C2.3862 9.41786 1.98538 7.86923 1.98538 6.28785L1.98477 6.28848Z" fill="#3F78D8"/>
<path d="M8.50334 7.79597C8.07962 7.33138 7.5402 7.0754 6.9843 7.0754C6.42839 7.0754 5.88867 7.33138 5.46525 7.79597C5.06137 8.23894 4.7793 8.85394 4.67093 9.52777C4.60193 9.95738 4.72801 10.3711 5.0168 10.6624C5.31719 10.9654 5.70947 11.0576 6.0935 10.9152C6.37802 10.8096 6.6778 10.7559 6.9843 10.7559C7.29079 10.7559 7.59057 10.8093 7.87509 10.9152C7.99353 10.9591 8.11259 10.9807 8.22982 10.9807C8.49235 10.9807 8.7442 10.8719 8.95179 10.6624C9.24058 10.3711 9.36666 9.95738 9.29767 9.52777C9.18929 8.85426 8.90753 8.23925 8.50334 7.79597ZM8.58455 10.2677C8.42947 10.4245 8.24539 10.4693 8.05215 10.3975C7.71054 10.2706 7.35124 10.2064 6.98399 10.2064C6.61675 10.2064 6.25744 10.2706 5.91614 10.3975C5.7229 10.4693 5.53882 10.4242 5.38374 10.2677C5.21889 10.1014 5.15051 9.87088 5.19111 9.6184C5.37672 8.46344 6.13075 7.62521 6.98399 7.62521C7.83723 7.62521 8.59126 8.46344 8.77687 9.6184C8.81747 9.87088 8.74909 10.1014 8.58424 10.2677H8.58455ZM8.24355 6.87379C8.53509 6.87379 8.8132 6.70493 9.00674 6.41015C9.18227 6.14304 9.27874 5.79324 9.27874 5.42469C9.27874 5.05613 9.18197 4.70634 9.00674 4.43922C8.8132 4.14476 8.53509 3.97559 8.24355 3.97559C7.95202 3.97559 7.67391 4.14444 7.48037 4.4389C7.30483 4.70602 7.20837 5.05581 7.20837 5.42437C7.20837 5.79292 7.30514 6.14272 7.48037 6.40983C7.67391 6.7043 7.95202 6.87347 8.24355 6.87347V6.87379ZM8.24355 4.5254C8.4838 4.5254 8.75122 4.89459 8.75122 5.42469C8.75122 5.95478 8.4835 6.32397 8.24355 6.32397C8.00361 6.32397 7.73588 5.95478 7.73588 5.42469C7.73588 4.89459 8.00361 4.5254 8.24355 4.5254ZM5.72473 6.87379C6.01627 6.87379 6.29438 6.70493 6.48792 6.41015C6.66345 6.14304 6.75992 5.79324 6.75992 5.42469C6.75992 5.05613 6.66315 4.70634 6.48792 4.43922C6.29438 4.14476 6.01627 3.97559 5.72473 3.97559C5.4332 3.97559 5.15509 4.14444 4.96155 4.43922C4.78601 4.70634 4.68955 5.05613 4.68955 5.42469C4.68955 5.79324 4.78632 6.14304 4.96155 6.41015C5.15509 6.70461 5.4332 6.87379 5.72473 6.87379ZM5.72473 4.5254C5.96498 4.5254 6.2324 4.89459 6.2324 5.42469C6.2324 5.95478 5.96468 6.32397 5.72473 6.32397C5.48479 6.32397 5.21706 5.95478 5.21706 5.42469C5.21706 4.89459 5.48479 4.5254 5.72473 4.5254ZM10.8842 6.76122C10.7834 6.48075 10.585 6.27818 10.3399 6.20536C10.0947 6.13254 9.82365 6.1955 9.59622 6.37835C9.38894 6.54498 9.23112 6.79651 9.15144 7.08716C9.07176 7.37781 9.07878 7.67831 9.17037 7.93366C9.27111 8.21413 9.46954 8.41638 9.71467 8.48952C9.78153 8.50923 9.85021 8.51909 9.91921 8.51909C10.1042 8.51909 10.2929 8.44945 10.4583 8.31653C10.6656 8.1499 10.8234 7.89836 10.9031 7.60772C10.9828 7.31707 10.9761 7.01657 10.8842 6.76122ZM10.3957 7.45731C10.2968 7.81887 10.0337 8.01316 9.85937 7.96133C9.68506 7.90949 9.5599 7.60009 9.65881 7.23853C9.74703 6.91576 9.96652 6.72624 10.1366 6.72624C10.157 6.72624 10.1766 6.7291 10.1952 6.7345C10.3081 6.76789 10.3655 6.88651 10.3899 6.95424C10.4415 7.09829 10.4437 7.28146 10.3957 7.45731ZM4.81715 7.08748C4.73748 6.79683 4.57965 6.5453 4.37237 6.37867C4.14494 6.19582 3.87385 6.13286 3.62872 6.20568C3.38358 6.2785 3.18515 6.48106 3.08441 6.76153C2.99253 7.01688 2.98581 7.31739 3.06549 7.60804C3.14516 7.89868 3.30299 8.15022 3.51027 8.31685C3.67573 8.44977 3.86439 8.51941 4.04939 8.51941C4.11868 8.51941 4.18737 8.50955 4.25392 8.48983C4.49906 8.41701 4.69748 8.21445 4.79822 7.93398C4.89011 7.67863 4.89683 7.37813 4.81715 7.08748ZM4.10922 7.96133C3.93491 8.01316 3.67176 7.81887 3.57285 7.45731C3.52462 7.28146 3.52676 7.09829 3.57865 6.95424C3.60307 6.88651 3.66077 6.76789 3.77342 6.7345C3.94804 6.68267 4.21088 6.87697 4.30979 7.23853C4.40869 7.60009 4.28353 7.90981 4.10922 7.96133Z" fill="#3F78D8"/>
</svg>
