<svg width="14" height="16" viewBox="0 0 14 16" fill="none" xmlns="http://www.w3.org/2000/svg">
<path d="M12.2396 1.19831C9.95302 0.955055 8.59047 0.529291 7.85045 0.214876C7.17639 -0.0716253 6.4031 -0.0716253 5.72904 0.214876C4.98902 0.529291 3.62677 0.955362 1.33987 1.19831C0.575996 1.27959 0 1.94002 0 2.73449V6.06606C0 7.94489 0.477052 9.78721 1.37962 11.3936C2.29456 13.0225 3.61058 14.3396 5.18514 15.2028C5.3368 15.2859 5.49317 15.3666 5.64953 15.4424C6.01174 15.6178 6.40074 15.7053 6.78945 15.7053C7.17816 15.7053 7.56717 15.6175 7.92937 15.4424C8.08545 15.3669 8.24181 15.2863 8.39376 15.2028C9.41206 14.6445 10.9613 13.0534 11.7296 12.1476C11.792 12.0449 11.8044 11.9136 11.7131 11.8292C11.6215 11.7452 11.4822 11.7541 11.4013 11.8492C10.6686 12.713 9.21035 14.3927 8.18822 14.7955C8.04275 14.8752 7.89286 14.9525 7.74326 15.0249C7.13694 15.3185 6.44168 15.3185 5.83535 15.0249C5.68546 14.9522 5.53587 14.8752 5.39069 14.7955C3.88915 13.9721 2.63409 12.7154 1.76068 11.1611C0.897859 9.62524 0.441715 7.86329 0.441715 6.06606V2.73449C0.441715 2.17683 0.847209 1.71303 1.38463 1.65597C2.67561 1.51855 4.50608 1.23113 5.89572 0.64064C6.46376 0.399231 7.11544 0.399231 7.68348 0.64064C9.07283 1.23113 10.9036 1.51855 12.1946 1.65597C12.732 1.71303 13.1375 2.17683 13.1375 2.73449V6.06606C13.1375 7.10992 12.9844 8.14243 12.6825 9.13414C12.3836 10.1163 11.9454 11.0366 11.3809 11.8688C11.3106 11.9725 11.3341 12.116 11.4339 12.1893C11.5338 12.2627 11.6713 12.2381 11.7417 12.1341C12.3327 11.2633 12.7909 10.3007 13.1036 9.2731C13.4193 8.23599 13.5792 7.15716 13.5792 6.06576V2.73418C13.5792 1.93971 13.0032 1.27898 12.2393 1.198L12.2396 1.19831Z" fill="#4F5464"/>
<path d="M1.91535 6.06655C1.91535 5.93956 1.8164 5.83649 1.69449 5.83649C1.57258 5.83649 1.47363 5.93956 1.47363 6.06655C1.47363 7.67329 1.88089 9.24782 2.65154 10.6193C3.42749 12.0006 4.5412 13.1162 5.87194 13.846C6.00209 13.9174 6.13638 13.9864 6.27095 14.0518C6.43144 14.1294 6.61107 14.1705 6.7907 14.1705C6.97033 14.1705 7.14967 14.1294 7.31045 14.0515C7.44444 13.9864 7.57872 13.9174 7.70947 13.8456C9.0405 13.1159 10.1539 12.0003 10.9299 10.619C11.7005 9.24751 12.1078 7.67298 12.1078 6.06625V3.47915C12.1078 3.05492 11.8024 2.6951 11.3975 2.64204C9.73576 2.42425 8.35555 2.08529 7.29514 1.63499C7.13495 1.56689 6.96503 1.53223 6.7907 1.53223C6.61637 1.53223 6.44646 1.56689 6.28626 1.63499C5.22585 2.0856 3.84564 2.42425 2.1842 2.64204C1.7793 2.6951 1.47393 3.05492 1.47393 3.47915V6.05612C1.47393 6.18312 1.57287 6.28618 1.69478 6.28618C1.8167 6.28618 1.91564 6.18312 1.91564 6.05612V3.47915C1.91564 3.2862 2.05493 3.12271 2.23957 3.09847C3.93958 2.87578 5.35719 2.5267 6.45353 2.06075C6.56042 2.01535 6.67409 1.99204 6.79129 1.99204C6.90849 1.99204 7.02187 2.01505 7.12906 2.06044C8.2251 2.52609 9.643 2.87516 11.343 3.09817C11.5277 3.1224 11.6666 3.2859 11.6666 3.47884V6.06594C11.6666 7.59108 11.2803 9.08525 10.5491 10.3865C9.81498 11.6935 8.76193 12.7487 7.50422 13.4383C7.37995 13.5064 7.25244 13.572 7.12493 13.634C6.91939 13.7334 6.66319 13.7334 6.45794 13.634C6.32985 13.572 6.20234 13.5061 6.07866 13.4383C4.82065 12.7487 3.7679 11.6932 3.03348 10.3865C2.30258 9.08525 1.91594 7.59139 1.91594 6.06594L1.91535 6.06655Z" fill="#4F5464"/>
<path d="M8.20187 7.5207C7.79313 7.07255 7.27279 6.82561 6.73655 6.82561C6.20031 6.82561 5.67967 7.07255 5.27124 7.5207C4.88164 7.948 4.60955 8.54125 4.50501 9.19124C4.43846 9.60566 4.56007 10.0047 4.83865 10.2857C5.12841 10.578 5.50682 10.667 5.87727 10.5296C6.15172 10.4277 6.4409 10.3759 6.73655 10.3759C7.03221 10.3759 7.32138 10.4274 7.59583 10.5296C7.71009 10.5719 7.82494 10.5928 7.93802 10.5928C8.19127 10.5928 8.43421 10.4879 8.63445 10.2857C8.91303 10.0047 9.03465 9.60566 8.9681 9.19124C8.86356 8.54155 8.59175 7.94831 8.20187 7.5207ZM8.2802 9.90504C8.1306 10.0563 7.95303 10.0995 7.76663 10.0302C7.43711 9.9078 7.09051 9.84584 6.73626 9.84584C6.382 9.84584 6.0354 9.9078 5.70618 10.0302C5.51977 10.0995 5.3422 10.056 5.19261 9.90504C5.03359 9.74461 4.96763 9.52222 5.0068 9.27867C5.18584 8.16456 5.91319 7.35598 6.73626 7.35598C7.55932 7.35598 8.28668 8.16456 8.46572 9.27867C8.50488 9.52222 8.43892 9.74461 8.2799 9.90504H8.2802ZM7.95127 6.63114C8.23249 6.63114 8.50076 6.46825 8.68746 6.1839C8.85678 5.92623 8.94984 5.58881 8.94984 5.23329C8.94984 4.87777 8.85649 4.54035 8.68746 4.28269C8.50076 3.99864 8.23249 3.83545 7.95127 3.83545C7.67004 3.83545 7.40177 3.99833 7.21508 4.28238C7.04575 4.54005 6.9527 4.87747 6.9527 5.23299C6.9527 5.58851 7.04605 5.92593 7.21508 6.18359C7.40177 6.46764 7.67004 6.63083 7.95127 6.63083V6.63114ZM7.95127 4.36581C8.18302 4.36581 8.44098 4.72195 8.44098 5.23329C8.44098 5.74464 8.18273 6.10077 7.95127 6.10077C7.71981 6.10077 7.46155 5.74464 7.46155 5.23329C7.46155 4.72195 7.71981 4.36581 7.95127 4.36581ZM5.52154 6.63114C5.80277 6.63114 6.07103 6.46825 6.25773 6.1839C6.42706 5.92623 6.52011 5.58881 6.52011 5.23329C6.52011 4.87777 6.42676 4.54035 6.25773 4.28269C6.07103 3.99864 5.80277 3.83545 5.52154 3.83545C5.24032 3.83545 4.97205 3.99833 4.78535 4.28269C4.61603 4.54035 4.52297 4.87777 4.52297 5.23329C4.52297 5.58881 4.61632 5.92623 4.78535 6.1839C4.97205 6.46795 5.24032 6.63114 5.52154 6.63114ZM5.52154 4.36581C5.75329 4.36581 6.01126 4.72195 6.01126 5.23329C6.01126 5.74464 5.753 6.10077 5.52154 6.10077C5.29008 6.10077 5.03183 5.74464 5.03183 5.23329C5.03183 4.72195 5.29008 4.36581 5.52154 4.36581ZM10.4985 6.52255C10.4013 6.252 10.2099 6.0566 9.97344 5.98636C9.73697 5.91611 9.47548 5.97685 9.25609 6.15323C9.05614 6.31396 8.9039 6.5566 8.82704 6.83696C8.75018 7.11733 8.75696 7.40721 8.8453 7.65352C8.94248 7.92407 9.13389 8.11916 9.37035 8.18972C9.43484 8.20873 9.5011 8.21824 9.56765 8.21824C9.7461 8.21824 9.92809 8.15107 10.0877 8.02285C10.2876 7.86211 10.4399 7.61947 10.5167 7.33911C10.5936 7.05874 10.5871 6.76887 10.4985 6.52255ZM10.0273 7.19402C9.93192 7.54279 9.67808 7.73021 9.50993 7.68021C9.34179 7.63021 9.22105 7.33175 9.31646 6.98298C9.40157 6.67163 9.61329 6.48881 9.77732 6.48881C9.79705 6.48881 9.81589 6.49157 9.83386 6.49678C9.94281 6.52899 9.99817 6.64341 10.0217 6.70874C10.0715 6.8477 10.0736 7.02439 10.0273 7.19402ZM4.64606 6.83727C4.5692 6.5569 4.41696 6.31427 4.21701 6.15353C3.99762 5.97715 3.73613 5.91642 3.49966 5.98666C3.2632 6.05691 3.07179 6.25231 2.97461 6.52286C2.88598 6.76917 2.8795 7.05905 2.95635 7.33941C3.03321 7.61978 3.18546 7.86242 3.38541 8.02315C3.54501 8.15137 3.727 8.21855 3.90545 8.21855C3.9723 8.21855 4.03856 8.20904 4.10275 8.19002C4.33922 8.11978 4.53063 7.92438 4.6278 7.65383C4.71644 7.40751 4.72292 7.11764 4.64606 6.83727ZM3.96317 7.68021C3.79502 7.73021 3.54119 7.54279 3.44578 7.19402C3.39925 7.02439 3.40131 6.8477 3.45137 6.70874C3.47493 6.64341 3.53058 6.52899 3.63925 6.49678C3.80769 6.44678 4.06123 6.6342 4.15664 6.98298C4.25205 7.33175 4.13132 7.63052 3.96317 7.68021Z" fill="#4F5464"/>
</svg>
