<svg width="11" height="12" viewBox="0 0 11 12" fill="none" xmlns="http://www.w3.org/2000/svg">
<path d="M9.65534 11.8693H0.844557C0.620733 11.8688 0.406232 11.7796 0.247964 11.6213C0.0896966 11.4631 0.000542459 11.2486 0 11.0247C0 8.21716 2.35517 5.93457 5.24995 5.93457C8.14472 5.93457 10.4999 8.21716 10.4999 11.0247C10.4994 11.2486 10.4102 11.4631 10.2519 11.6213C10.0937 11.7796 9.87916 11.8688 9.65534 11.8693ZM5.24995 6.39109C2.60671 6.39109 0.456517 8.46824 0.456517 11.0247C0.456818 11.1276 0.497798 11.2261 0.570504 11.2988C0.64321 11.3715 0.741735 11.4125 0.844557 11.4128H9.65534C9.75816 11.4125 9.85669 11.3715 9.92939 11.2988C10.0021 11.2261 10.0431 11.1276 10.0434 11.0247C10.0434 8.46938 7.89318 6.39109 5.24995 6.39109Z" fill="#4F5464"/>
<path d="M5.25009 5.47821C4.70835 5.47821 4.17877 5.31756 3.72833 5.01659C3.27788 4.71561 2.92681 4.28782 2.71949 3.78731C2.51217 3.28681 2.45793 2.73607 2.56362 2.20473C2.66931 1.6734 2.93018 1.18534 3.31325 0.802266C3.69632 0.419196 4.18438 0.158321 4.71572 0.0526323C5.24705 -0.0530566 5.79779 0.00118682 6.2983 0.208503C6.79881 0.415819 7.2266 0.766897 7.52757 1.21734C7.82855 1.66778 7.98919 2.19736 7.98919 2.7391C7.98841 3.46532 7.69957 4.16156 7.18606 4.67508C6.67255 5.18859 5.97631 5.47742 5.25009 5.47821ZM5.25009 0.456519C4.79864 0.456519 4.35732 0.59039 3.98195 0.841204C3.60658 1.09202 3.31402 1.44851 3.14126 1.8656C2.96849 2.28269 2.92329 2.74164 3.01136 3.18442C3.09944 3.62719 3.31683 4.03391 3.63606 4.35314C3.95528 4.67236 4.362 4.88976 4.80478 4.97783C5.24756 5.06591 5.70651 5.0207 6.1236 4.84794C6.54069 4.67518 6.89718 4.38261 7.14799 4.00724C7.39881 3.63187 7.53268 3.19056 7.53268 2.7391C7.53201 2.13393 7.29131 1.55373 6.86339 1.12581C6.43547 0.697883 5.85527 0.457183 5.25009 0.456519Z" fill="#4F5464"/>
</svg>
