<svg width="11" height="12" viewBox="0 0 11 12" fill="none" xmlns="http://www.w3.org/2000/svg">
<path d="M9.31382 11.4494H0.814684C0.598777 11.4489 0.391863 11.3629 0.239193 11.2102C0.0865239 11.0576 0.000523272 10.8506 0 10.6347C0 7.92646 2.27187 5.72461 5.06425 5.72461C7.85664 5.72461 10.1285 7.92646 10.1285 10.6347C10.128 10.8506 10.042 11.0576 9.88931 11.2102C9.73664 11.3629 9.52973 11.4489 9.31382 11.4494ZM5.06425 6.16498C2.51451 6.16498 0.44037 8.16866 0.44037 10.6347C0.44066 10.7339 0.48019 10.829 0.550325 10.8991C0.620459 10.9692 0.715499 11.0088 0.814684 11.009H9.31382C9.413 11.0088 9.50804 10.9692 9.57818 10.8991C9.64831 10.829 9.68784 10.7339 9.68813 10.6347C9.68813 8.16976 7.61399 6.16498 5.06425 6.16498Z" fill="#3F78D8"/>
<path d="M5.06556 5.28444C4.54298 5.28444 4.03213 5.12947 3.59762 4.83914C3.16311 4.54881 2.82445 4.13615 2.62447 3.65335C2.42448 3.17055 2.37216 2.63929 2.47411 2.12675C2.57606 1.61421 2.82771 1.14341 3.19723 0.773889C3.56675 0.404368 4.03755 0.152721 4.55009 0.0507707C5.06263 -0.0511799 5.59389 0.00114484 6.07669 0.201128C6.55949 0.401111 6.97215 0.739771 7.26248 1.17428C7.55281 1.60879 7.70778 2.11964 7.70778 2.64222C7.70702 3.34275 7.4284 4.01437 6.93305 4.50971C6.4377 5.00506 5.76609 5.28368 5.06556 5.28444ZM5.06556 0.440371C4.63007 0.440371 4.20437 0.569507 3.84228 0.811449C3.48019 1.05339 3.19797 1.39727 3.03132 1.79961C2.86466 2.20194 2.82106 2.64466 2.90602 3.07178C2.99098 3.4989 3.20068 3.89123 3.50862 4.19916C3.81655 4.5071 4.20888 4.7168 4.636 4.80176C5.06312 4.88672 5.50584 4.84311 5.90817 4.67646C6.31051 4.50981 6.65439 4.22759 6.89633 3.8655C7.13827 3.50341 7.26741 3.0777 7.26741 2.64222C7.26677 2.05845 7.03458 1.49877 6.62179 1.08599C6.209 0.673198 5.64933 0.441012 5.06556 0.440371Z" fill="#3F78D8"/>
</svg>
