<svg width="20" height="20" viewBox="0 0 20 20" fill="none" xmlns="http://www.w3.org/2000/svg">
<path d="M11.8998 8.4C13.1998 8.4 13.9998 6.5 13.9998 5.3C13.9998 4.3 13.4998 3.1 12.4998 3.1C11.1998 3.1 10.3998 5 10.3998 6.2C10.3998 7.2 10.8998 8.4 11.8998 8.4ZM8.0998 8.4C9.0998 8.4 9.5998 7.2 9.5998 6.2C9.5998 4.9 8.7998 3 7.4998 3C6.4998 3 5.9998 4.2 5.9998 5.2C5.8998 6.5 6.6998 8.4 8.0998 8.4ZM15.4998 7.4C14.1998 7.4 13.2998 9.2 13.2998 10.5C13.2998 11.4 13.6998 12.3 14.5998 12.3C15.8998 12.3 16.7998 10.5 16.7998 9.2C16.7998 8.3 16.2998 7.4 15.4998 7.4ZM6.7998 10.5C6.7998 9.2 5.7998 7.4 4.5998 7.4C3.6998 7.4 3.2998 8.3 3.2998 9.2C3.2998 10.5 4.2998 12.3 5.4998 12.3C6.3998 12.3 6.7998 11.4 6.7998 10.5ZM9.9998 10.3C7.9998 10.3 5.2998 13.5 5.2998 15.7C5.2998 16.7 5.9998 17 6.7998 17C7.9998 17 8.8998 16.2 9.9998 16.2C10.9998 16.2 11.8998 17 12.9998 17C13.7998 17 14.6998 16.8 14.6998 15.7C14.6998 13.5 11.9998 10.3 9.9998 10.3Z" fill="#839297"/>
</svg>
