<svg width="20" height="20" viewBox="0 0 20 20" fill="none" xmlns="http://www.w3.org/2000/svg">
<path d="M9.99967 10.0002C9.08301 10.0002 8.29829 9.67377 7.64551 9.021C6.99273 8.36822 6.66634 7.5835 6.66634 6.66683C6.66634 5.75016 6.99273 4.96544 7.64551 4.31266C8.29829 3.65989 9.08301 3.3335 9.99967 3.3335C10.9163 3.3335 11.7011 3.65989 12.3538 4.31266C13.0066 4.96544 13.333 5.75016 13.333 6.66683C13.333 7.5835 13.0066 8.36822 12.3538 9.021C11.7011 9.67377 10.9163 10.0002 9.99967 10.0002ZM3.33301 15.0002V14.3335C3.33301 13.8613 3.45467 13.4274 3.69801 13.0318C3.94134 12.6363 4.26412 12.3341 4.66634 12.1252C5.52745 11.6946 6.40245 11.3718 7.29134 11.1568C8.18023 10.9418 9.08301 10.8341 9.99967 10.8335C10.9163 10.8329 11.8191 10.9407 12.708 11.1568C13.5969 11.3729 14.4719 11.6957 15.333 12.1252C15.7358 12.3335 16.0588 12.6357 16.3022 13.0318C16.5455 13.4279 16.6669 13.8618 16.6663 14.3335V15.0002C16.6663 15.4585 16.5033 15.851 16.1772 16.1777C15.8511 16.5043 15.4586 16.6674 14.9997 16.6668H4.99967C4.54134 16.6668 4.14912 16.5038 3.82301 16.1777C3.4969 15.8516 3.33356 15.4591 3.33301 15.0002Z" fill="#3F78D8"/>
</svg>
