<svg width="24" height="24" viewBox="0 0 24 24" fill="none" xmlns="http://www.w3.org/2000/svg">
<path d="M3.71387 4.9555C3.71387 4.55057 3.90577 4.16222 4.24735 3.8759C4.58894 3.58957 5.05222 3.42871 5.5353 3.42871H16.4639C16.9469 3.42871 17.4102 3.58957 17.7518 3.8759C18.0934 4.16222 18.2853 4.55057 18.2853 4.9555V18.1876C18.2853 18.5926 18.0934 18.9809 17.7518 19.2672C17.4102 19.5536 16.9469 19.7144 16.4639 19.7144H5.5353C5.05222 19.7144 4.58894 19.5536 4.24735 19.2672C3.90577 18.9809 3.71387 18.5926 3.71387 18.1876V4.9555ZM6.14244 8.00907C6.14244 8.14404 6.20641 8.27349 6.32027 8.36894C6.43413 8.46438 6.58856 8.518 6.74958 8.518H15.2496C15.4106 8.518 15.565 8.46438 15.6789 8.36894C15.7928 8.27349 15.8567 8.14404 15.8567 8.00907C15.8567 7.87409 15.7928 7.74464 15.6789 7.6492C15.565 7.55376 15.4106 7.50014 15.2496 7.50014H6.74958C6.58856 7.50014 6.43413 7.55376 6.32027 7.6492C6.20641 7.74464 6.14244 7.87409 6.14244 8.00907ZM6.74958 9.53585C6.58856 9.53585 6.43413 9.58947 6.32027 9.68492C6.20641 9.78036 6.14244 9.90981 6.14244 10.0448C6.14244 10.1798 6.20641 10.3092 6.32027 10.4046C6.43413 10.5001 6.58856 10.5537 6.74958 10.5537H15.2496C15.4106 10.5537 15.565 10.5001 15.6789 10.4046C15.7928 10.3092 15.8567 10.1798 15.8567 10.0448C15.8567 9.90981 15.7928 9.78036 15.6789 9.68492C15.565 9.58947 15.4106 9.53585 15.2496 9.53585H6.74958ZM6.14244 12.0805C6.14244 12.2155 6.20641 12.3449 6.32027 12.4404C6.43413 12.5358 6.58856 12.5894 6.74958 12.5894H11.6067C11.7677 12.5894 11.9222 12.5358 12.036 12.4404C12.1499 12.3449 12.2139 12.2155 12.2139 12.0805C12.2139 11.9455 12.1499 11.8161 12.036 11.7206C11.9222 11.6252 11.7677 11.5716 11.6067 11.5716H6.74958C6.58856 11.5716 6.43413 11.6252 6.32027 11.7206C6.20641 11.8161 6.14244 11.9455 6.14244 12.0805Z" fill="#3F78D8"/>
</svg>
