<svg width="24" height="24" viewBox="0 0 24 24" fill="none" xmlns="http://www.w3.org/2000/svg">
<path d="M3.71387 4.95525C3.71387 4.55032 3.90577 4.16198 4.24735 3.87565C4.58894 3.58932 5.05222 3.42847 5.5353 3.42847H16.4639C16.9469 3.42847 17.4102 3.58932 17.7518 3.87565C18.0934 4.16198 18.2853 4.55032 18.2853 4.95525V18.1874C18.2853 18.5923 18.0934 18.9807 17.7518 19.267C17.4102 19.5533 16.9469 19.7142 16.4639 19.7142H5.5353C5.05222 19.7142 4.58894 19.5533 4.24735 19.267C3.90577 18.9807 3.71387 18.5923 3.71387 18.1874V4.95525ZM6.14244 8.00882C6.14244 8.1438 6.20641 8.27325 6.32027 8.36869C6.43413 8.46413 6.58856 8.51775 6.74958 8.51775H15.2496C15.4106 8.51775 15.565 8.46413 15.6789 8.36869C15.7928 8.27325 15.8567 8.1438 15.8567 8.00882C15.8567 7.87385 15.7928 7.7444 15.6789 7.64896C15.565 7.55351 15.4106 7.4999 15.2496 7.4999H6.74958C6.58856 7.4999 6.43413 7.55351 6.32027 7.64896C6.20641 7.7444 6.14244 7.87385 6.14244 8.00882ZM6.74958 9.53561C6.58856 9.53561 6.43413 9.58923 6.32027 9.68467C6.20641 9.78011 6.14244 9.90956 6.14244 10.0445C6.14244 10.1795 6.20641 10.309 6.32027 10.4044C6.43413 10.4998 6.58856 10.5535 6.74958 10.5535H15.2496C15.4106 10.5535 15.565 10.4998 15.6789 10.4044C15.7928 10.309 15.8567 10.1795 15.8567 10.0445C15.8567 9.90956 15.7928 9.78011 15.6789 9.68467C15.565 9.58923 15.4106 9.53561 15.2496 9.53561H6.74958ZM6.14244 12.0803C6.14244 12.2152 6.20641 12.3447 6.32027 12.4401C6.43413 12.5356 6.58856 12.5892 6.74958 12.5892H11.6067C11.7677 12.5892 11.9222 12.5356 12.036 12.4401C12.1499 12.3447 12.2139 12.2152 12.2139 12.0803C12.2139 11.9453 12.1499 11.8158 12.036 11.7204C11.9222 11.6249 11.7677 11.5713 11.6067 11.5713H6.74958C6.58856 11.5713 6.43413 11.6249 6.32027 11.7204C6.20641 11.8158 6.14244 11.9453 6.14244 12.0803Z" fill="#2B2B2B"/>
</svg>
