<svg width="9" height="35" viewBox="0 0 9 35" fill="none" xmlns="http://www.w3.org/2000/svg">
<path d="M7.10962 34.1136H1.55277C0.696705 34.1136 0 33.4445 0 32.6217V1.49191C0 0.669396 0.696376 0 1.55277 0H7.10962C7.96568 0 8.66239 0.66908 8.66239 1.49191V32.622C8.66239 33.4445 7.96601 34.1139 7.10962 34.1139V34.1136ZM1.55277 0.569746C1.02333 0.569746 0.59266 0.983531 0.59266 1.49222V32.6223C0.59266 33.131 1.02333 33.5448 1.55277 33.5448H7.10962C7.63906 33.5448 8.06973 33.131 8.06973 32.6223V1.49191C8.06973 0.983215 7.63906 0.56943 7.10962 0.56943H1.55277V0.569746Z" fill="#4F5464"/>
<path d="M6.54559 7.0149H2.02689C1.46748 7.0149 1.01245 6.5777 1.01245 6.04022V2.0694C1.01245 1.53192 1.46748 1.09473 2.02689 1.09473H6.54592C7.10533 1.09473 7.56036 1.53192 7.56036 2.0694V6.04022C7.56036 6.5777 7.10533 7.0149 6.54592 7.0149H6.54559ZM2.02689 1.66384C1.79443 1.66384 1.60511 1.84574 1.60511 2.06908V6.03991C1.60511 6.26325 1.79443 6.44515 2.02689 6.44515H6.54592C6.77838 6.44515 6.9677 6.26325 6.9677 6.03991V2.06908C6.9677 1.84574 6.77838 1.66384 6.54592 1.66384H2.02689Z" fill="#4F5464"/>
<path d="M6.54559 13.2698H2.02689C1.46748 13.2698 1.01245 12.8326 1.01245 12.2951V8.32428C1.01245 7.7868 1.46748 7.34961 2.02689 7.34961H6.54592C7.10533 7.34961 7.56036 7.7868 7.56036 8.32428V12.2951C7.56036 12.8326 7.10533 13.2698 6.54592 13.2698H6.54559ZM2.02689 7.91872C1.79443 7.91872 1.60511 8.10062 1.60511 8.32397V12.2948C1.60511 12.5181 1.79443 12.7 2.02689 12.7H6.54592C6.77838 12.7 6.9677 12.5181 6.9677 12.2948V8.32397C6.9677 8.10062 6.77838 7.91872 6.54592 7.91872H2.02689Z" fill="#4F5464"/>
<path d="M6.54559 19.9143H2.02689C1.46748 19.9143 1.01245 19.4771 1.01245 18.9396V14.9688C1.01245 14.4313 1.46748 13.9941 2.02689 13.9941H6.54592C7.10533 13.9941 7.56036 14.4313 7.56036 14.9688V18.9396C7.56036 19.4771 7.10533 19.9143 6.54592 19.9143H6.54559ZM2.02689 14.5633C1.79443 14.5633 1.60511 14.7452 1.60511 14.9685V18.9393C1.60511 19.1627 1.79443 19.3446 2.02689 19.3446H6.54592C6.77838 19.3446 6.9677 19.1627 6.9677 18.9393V14.9685C6.9677 14.7452 6.77838 14.5633 6.54592 14.5633H2.02689Z" fill="#4F5464"/>
<path d="M6.54559 26.2786H2.02689C1.46748 26.2786 1.01245 25.8414 1.01245 25.3039V21.3331C1.01245 20.7956 1.46748 20.3584 2.02689 20.3584H6.54592C7.10533 20.3584 7.56036 20.7956 7.56036 21.3331V25.3039C7.56036 25.8414 7.10533 26.2786 6.54592 26.2786H6.54559ZM2.02689 20.9278C1.79443 20.9278 1.60511 21.1097 1.60511 21.3331V25.3039C1.60511 25.5272 1.79443 25.7091 2.02689 25.7091H6.54592C6.77838 25.7091 6.9677 25.5272 6.9677 25.3039V21.3331C6.9677 21.1097 6.77838 20.9278 6.54592 20.9278H2.02689Z" fill="#4F5464"/>
</svg>
