<svg width="9" height="35" viewBox="0 0 9 35" fill="none" xmlns="http://www.w3.org/2000/svg">
<path d="M7.10962 34.1136H1.55277C0.696705 34.1136 0 33.4445 0 32.6217V1.49191C0 0.669396 0.696376 0 1.55277 0H7.10962C7.96568 0 8.66239 0.66908 8.66239 1.49191V32.622C8.66239 33.4445 7.96601 34.1139 7.10962 34.1139V34.1136ZM1.55277 0.569746C1.02333 0.569746 0.59266 0.983531 0.59266 1.49222V32.6223C0.59266 33.131 1.02333 33.5448 1.55277 33.5448H7.10962C7.63906 33.5448 8.06973 33.131 8.06973 32.6223V1.49191C8.06973 0.983215 7.63906 0.56943 7.10962 0.56943H1.55277V0.569746Z" fill="#5285DC"/>
<path d="M6.54535 7.0149H2.02664C1.46724 7.0149 1.01221 6.5777 1.01221 6.04022V2.0694C1.01221 1.53192 1.46724 1.09473 2.02664 1.09473H6.54568C7.10508 1.09473 7.56012 1.53192 7.56012 2.0694V6.04022C7.56012 6.5777 7.10508 7.0149 6.54568 7.0149H6.54535ZM2.02664 1.66384C1.79419 1.66384 1.60487 1.84574 1.60487 2.06908V6.03991C1.60487 6.26325 1.79419 6.44515 2.02664 6.44515H6.54568C6.77813 6.44515 6.96746 6.26325 6.96746 6.03991V2.06908C6.96746 1.84574 6.77813 1.66384 6.54568 1.66384H2.02664Z" fill="#5285DC"/>
<path d="M6.54535 13.2698H2.02664C1.46724 13.2698 1.01221 12.8326 1.01221 12.2951V8.32428C1.01221 7.7868 1.46724 7.34961 2.02664 7.34961H6.54568C7.10508 7.34961 7.56012 7.7868 7.56012 8.32428V12.2951C7.56012 12.8326 7.10508 13.2698 6.54568 13.2698H6.54535ZM2.02664 7.91872C1.79419 7.91872 1.60487 8.10062 1.60487 8.32397V12.2948C1.60487 12.5181 1.79419 12.7 2.02664 12.7H6.54568C6.77813 12.7 6.96746 12.5181 6.96746 12.2948V8.32397C6.96746 8.10062 6.77813 7.91872 6.54568 7.91872H2.02664Z" fill="#5285DC"/>
<path d="M6.54535 19.9143H2.02664C1.46724 19.9143 1.01221 19.4771 1.01221 18.9396V14.9688C1.01221 14.4313 1.46724 13.9941 2.02664 13.9941H6.54568C7.10508 13.9941 7.56012 14.4313 7.56012 14.9688V18.9396C7.56012 19.4771 7.10508 19.9143 6.54568 19.9143H6.54535ZM2.02664 14.5633C1.79419 14.5633 1.60487 14.7452 1.60487 14.9685V18.9393C1.60487 19.1627 1.79419 19.3446 2.02664 19.3446H6.54568C6.77813 19.3446 6.96746 19.1627 6.96746 18.9393V14.9685C6.96746 14.7452 6.77813 14.5633 6.54568 14.5633H2.02664Z" fill="#5285DC"/>
<path d="M6.54535 26.2786H2.02664C1.46724 26.2786 1.01221 25.8414 1.01221 25.3039V21.3331C1.01221 20.7956 1.46724 20.3584 2.02664 20.3584H6.54568C7.10508 20.3584 7.56012 20.7956 7.56012 21.3331V25.3039C7.56012 25.8414 7.10508 26.2786 6.54568 26.2786H6.54535ZM2.02664 20.9278C1.79419 20.9278 1.60487 21.1097 1.60487 21.3331V25.3039C1.60487 25.5272 1.79419 25.7091 2.02664 25.7091H6.54568C6.77813 25.7091 6.96746 25.5272 6.96746 25.3039V21.3331C6.96746 21.1097 6.77813 20.9278 6.54568 20.9278H2.02664Z" fill="#5285DC"/>
</svg>
