<svg width="24" height="24" viewBox="0 0 24 24" fill="none" xmlns="http://www.w3.org/2000/svg">
<path d="M2.4002 6.60019C3.0227 6.60019 3.5327 7.07269 3.5927 7.67645L3.60395 7.92394C3.6677 8.5277 4.1777 9.0002 4.8002 9.0002H11.5164L16.8002 11.2652V20.4002C16.8002 21.0639 16.2639 21.6002 15.6002 21.6002H14.4002C13.7364 21.6002 13.2002 21.0639 13.2002 20.4002V15.4764C12.3002 15.9377 11.2802 16.2002 10.2002 16.2002C9.12019 16.2002 8.10019 15.9377 7.20019 15.4764V20.4002C7.20019 21.0639 6.66395 21.6002 6.0002 21.6002H4.8002C4.13645 21.6002 3.6002 21.0639 3.6002 20.4002V11.1902C2.20145 10.6952 1.2002 9.36769 1.2002 7.80019C1.2002 7.13645 1.73645 6.60019 2.4002 6.60019ZM14.5427 1.2002C14.8314 1.2002 15.1014 1.3352 15.2777 1.5677L15.9002 2.4002H17.8539C18.3302 2.4002 18.7877 2.59145 19.1252 2.92895L19.8002 3.6002H21.9002C22.3989 3.6002 22.8002 4.00145 22.8002 4.5002V5.4002C22.8002 7.05769 21.4577 8.4002 19.8002 8.4002H17.4002L17.1377 9.45019L12.4614 7.4477L13.6464 1.9277C13.7364 1.50395 14.1077 1.2002 14.5427 1.2002ZM18.0002 4.0502C17.5877 4.0502 17.2502 4.3877 17.2502 4.8002C17.2502 5.2127 17.5877 5.5502 18.0002 5.5502C18.4127 5.5502 18.7502 5.2127 18.7502 4.8002C18.7502 4.3877 18.4127 4.0502 18.0002 4.0502Z" fill="#3F78D8"/>
</svg>
