<svg width="20" height="23" viewBox="0 0 20 23" fill="none" xmlns="http://www.w3.org/2000/svg">
<path d="M3.30227 6.64194C3.24307 6.64194 3.18513 6.61549 3.14482 6.56636C2.68508 5.98948 2.00869 6.02979 1.56154 6.05624C1.40661 6.06505 1.28317 6.07261 1.1824 6.05624C0.786898 5.99074 0.446812 5.45542 0.354863 5.30049C0.159629 5.07881 0.109245 4.49184 0.0966496 4.23111L0.00218151 3.56983C-0.0104142 3.48544 0.0324108 3.40357 0.107985 3.36326L1.12698 2.83172L1.45321 2.08354C1.46329 2.05961 1.47966 2.03693 1.49856 2.01804C2.75813 0.813885 4.40188 1.3026 4.73567 1.41974C5.14881 1.32275 5.48763 0.919689 5.82772 0.122378C5.86047 0.0468034 5.93856 -0.00357975 6.01665 0.000198971C6.09853 0.00271812 6.17158 0.0543618 6.19929 0.131196C6.73209 1.58097 6.58472 2.68309 5.74962 3.50182C5.67027 3.57865 5.54305 3.57739 5.46622 3.4993C5.38813 3.41995 5.39065 3.29273 5.46874 3.21589C6.09853 2.5987 6.26353 1.80643 5.97635 0.745867C5.70554 1.25474 5.32767 1.72582 4.7533 1.82532C4.71677 1.83162 4.67898 1.82784 4.64498 1.81399C4.57822 1.78754 2.99241 1.18042 1.80463 2.28129L1.46707 3.05719C1.44817 3.09875 1.41668 3.13402 1.37638 3.15544L0.420361 3.65423L0.495935 4.18325C0.495935 4.18325 0.497196 4.19584 0.497196 4.20214C0.51483 4.5712 0.587884 4.95915 0.652123 5.03094C0.668497 5.0448 0.679833 5.05991 0.691169 5.07881C0.815867 5.29671 1.07912 5.63176 1.24916 5.65947C1.30584 5.66829 1.4192 5.66199 1.53886 5.65569C2.0364 5.62672 2.87023 5.5776 3.45971 6.31697C3.52899 6.40388 3.51514 6.52984 3.42823 6.59911C3.3917 6.62808 3.34761 6.6432 3.30353 6.6432L3.30227 6.64194Z" fill="#3F78D8"/>
<path d="M9.01634 9.33265C9.01634 9.33265 9.005 9.33265 8.99997 9.33265C8.88912 9.32383 8.80725 9.22684 8.81733 9.116C8.92439 7.82998 7.84242 6.3273 7.83108 6.31219C7.80337 6.2744 7.78951 6.2278 7.79329 6.18119C7.91169 4.2679 6.72013 2.77404 6.7088 2.75893C6.67605 2.71862 6.65967 2.66572 6.66471 2.61407C6.77052 1.49557 5.86488 0.338022 5.85607 0.326686C5.78679 0.239775 5.8019 0.113819 5.88881 0.0445421C5.97572 -0.0247345 6.10168 -0.00962032 6.17096 0.0772904C6.21127 0.128933 7.14587 1.31923 7.07156 2.57125C7.31088 2.88866 8.28453 4.30568 8.19888 6.13459C8.41174 6.44192 9.32745 7.85013 9.21913 9.14875C9.21031 9.2533 9.12214 9.33265 9.02012 9.33265H9.01634Z" fill="#3F78D8"/>
<path d="M4.35885 15.2643C4.2921 15.2643 4.22786 15.2315 4.18881 15.1711L2.47453 12.4617L1.72004 11.4452C1.33336 10.925 1.2729 10.2411 1.56134 9.66043L2.06391 8.64773L2.43044 6.5795L2.11051 5.96357C2.05887 5.86533 2.09792 5.74441 2.19616 5.69276C2.29441 5.64112 2.41533 5.68017 2.46697 5.77841L2.81839 6.45481C2.83855 6.49385 2.84611 6.5392 2.83729 6.58202L2.45438 8.74471C2.4506 8.76361 2.44556 8.78124 2.43674 8.79888L1.92032 9.83803C1.69989 10.2827 1.7465 10.8066 2.0425 11.2047L2.80076 12.2274C2.80076 12.2274 2.80706 12.235 2.80958 12.24L4.52764 14.9557C4.58684 15.0489 4.55913 15.1736 4.46592 15.2328C4.43317 15.2542 4.39538 15.2643 4.35885 15.2643Z" fill="#3F78D8"/>
<path d="M5.07916 22.3538H3.25782C3.12556 22.3538 3.00465 22.2934 2.92655 22.1863C2.84846 22.0805 2.82579 21.947 2.86357 21.8197C3.06762 21.156 3.51099 20.5992 4.11181 20.2516L4.16219 20.2226V15.1553C4.16219 14.3832 3.97704 13.6111 3.62562 12.9221L3.22759 12.1412C3.17721 12.0429 3.21625 11.922 3.3145 11.8716C3.41275 11.8212 3.53367 11.8603 3.58405 11.9585L3.98208 12.7395C4.36247 13.4839 4.56274 14.319 4.56274 15.1553V20.3385C4.56274 20.4103 4.52495 20.4758 4.46197 20.5123L4.31083 20.5992C3.79818 20.8952 3.41905 21.3701 3.24522 21.9369L3.2553 21.9507H5.07665C5.51372 21.9507 5.90167 21.6573 6.02259 21.2378L6.84887 18.3496C6.8791 18.2426 6.98994 18.1808 7.097 18.2123C7.20407 18.2426 7.26453 18.3534 7.2343 18.4605L6.40802 21.3487C6.23923 21.9394 5.69132 22.3526 5.07665 22.3526L5.07916 22.3538Z" fill="#3F78D8"/>
<path d="M15.4943 22.9445C14.6781 22.9445 13.8342 22.8992 13.057 22.8563L12.6804 22.8362C10.0113 22.6964 8.16355 21.5552 7.18738 19.4467C6.2301 17.3772 7.78693 14.2824 8.67493 13.5834C9.04399 13.2937 9.28079 13.3957 9.38911 13.4813C9.87909 13.8705 9.59694 14.5835 9.27071 15.4097C8.90292 16.3406 8.44569 17.4994 8.8412 18.6053C9.55286 20.5979 15.5421 21.4431 16.8924 21.1005C17.2489 21.0098 17.5046 20.8347 17.6532 20.579C17.9278 20.1067 17.764 19.4983 17.7628 19.492C17.7338 19.385 17.7955 19.2754 17.9026 19.2451C18.0096 19.2149 18.1192 19.2766 18.1495 19.3837C18.1583 19.4152 18.3611 20.1571 18.0021 20.7781C17.798 21.132 17.4567 21.3713 16.9906 21.4897C15.4867 21.8701 9.27323 21.0086 8.46332 18.7401C8.01743 17.4918 8.50615 16.2562 8.89788 15.2624C9.16617 14.5847 9.39667 13.999 9.13972 13.795C9.12838 13.7862 9.05533 13.7937 8.92307 13.8983C8.07915 14.562 6.70874 17.4566 7.55139 19.2779C8.45955 21.2403 10.1927 22.3034 12.7018 22.4357L13.0797 22.4558C15.1265 22.5666 17.929 22.7191 18.9329 21.8348C19.3612 21.4582 19.4531 20.7642 19.4544 20.249C19.4582 19.1305 19.0538 17.9579 18.7792 17.7122C18.7352 17.6732 18.7112 17.6165 18.7125 17.5573C18.7125 17.5359 18.7503 15.4148 17.5247 13.1274C15.9062 10.1082 12.8164 8.16215 8.58928 7.49961C8.4797 7.48198 8.40538 7.37995 8.42176 7.27037C8.43939 7.16079 8.54142 7.08647 8.651 7.10285C11.6941 7.57897 15.7663 8.98087 17.8862 12.9536C19.0299 15.0961 19.1105 17.0485 19.113 17.4805C19.4796 17.905 19.8587 19.1116 19.8549 20.2478C19.8524 21.1043 19.6244 21.7567 19.1974 22.1321C18.4618 22.7795 17.0247 22.9407 15.493 22.9407L15.4943 22.9445Z" fill="#3F78D8"/>
<path d="M10.6741 20.5258C10.6325 20.5258 10.591 20.5132 10.5544 20.4868C10.5053 20.4503 9.35532 19.5812 9.18024 18.0949C9.05681 17.0456 9.45231 15.9687 10.3554 14.8943C13.1215 11.6005 17.5098 14.6109 17.5539 14.6424C17.6446 14.7053 17.6673 14.8313 17.603 14.922C17.5388 15.0127 17.4141 15.0353 17.3234 14.9711C17.3133 14.9636 16.2666 14.2406 14.9201 13.9105C13.1517 13.4773 11.7183 13.8954 10.6628 15.1525C9.83522 16.1375 9.46995 17.1099 9.57827 18.0445C9.73068 19.3569 10.7824 20.158 10.7938 20.1656C10.8819 20.2324 10.9008 20.3571 10.8353 20.4465C10.7963 20.4994 10.7358 20.5271 10.6741 20.5271V20.5258Z" fill="#3F78D8"/>
<path d="M10.3111 22.3541H8.09676C7.98592 22.3541 7.89648 22.2646 7.89648 22.1538V22.0656C7.89648 21.6185 8.10809 21.1889 8.46329 20.9156C8.55146 20.8476 8.67742 20.8652 8.74418 20.9522C8.81094 21.0391 8.79456 21.1663 8.70765 21.233C8.48093 21.4069 8.33482 21.6701 8.30333 21.951H10.3111C10.4219 21.951 10.5114 22.0404 10.5114 22.1513C10.5114 22.2621 10.4219 22.3515 10.3111 22.3515V22.3541Z" fill="#3F78D8"/>
<path d="M8.62561 14.1009C8.60294 14.1009 8.58027 14.0972 8.5576 14.0883C8.45305 14.0506 8.40015 13.9359 8.43794 13.8314C8.7352 13.0152 8.74275 12.1133 8.45809 11.2921L8.19484 10.5326C8.15831 10.428 8.21373 10.3134 8.31828 10.2769C8.42282 10.2403 8.53744 10.2958 8.57397 10.4003L8.83722 11.1598C9.15212 12.068 9.1433 13.0643 8.81455 13.9674C8.78432 14.0493 8.70749 14.0997 8.62561 14.0997V14.1009Z" fill="#3F78D8"/>
<path d="M4.622 6.64164C4.54139 6.64164 4.46581 6.59251 4.43558 6.51316C4.39528 6.40988 4.44692 6.29399 4.55021 6.25369L4.88399 6.12395C5.73547 5.79268 6.35392 5.06087 6.53782 4.16531C6.56049 4.05699 6.66503 3.98645 6.77462 4.00912C6.88294 4.0318 6.95348 4.1376 6.9308 4.24593C6.7192 5.275 6.00879 6.11639 5.0301 6.49804L4.69632 6.62778C4.67239 6.6366 4.64719 6.64164 4.62326 6.64164H4.622Z" fill="#3F78D8"/>
<path d="M3.15282 22.3544H2.00787C1.82397 22.3544 1.65392 22.2536 1.56575 22.0924C1.47758 21.9311 1.48388 21.7334 1.58339 21.5785L1.94237 21.0167C2.29505 20.4637 2.86689 20.072 3.50802 19.9398L3.55966 19.9297L3.19942 13.5588C3.19313 13.4479 3.27752 13.3534 3.38836 13.3471C3.49668 13.3396 3.59367 13.4252 3.59997 13.5361L3.97028 20.0796C3.97532 20.1791 3.90731 20.2673 3.81032 20.2874L3.58989 20.3327C3.05331 20.4423 2.57593 20.7711 2.28119 21.2321L1.92221 21.7939C1.89198 21.8405 1.90962 21.8833 1.91844 21.8997C1.92725 21.916 1.9537 21.9538 2.00912 21.9538H3.15408C3.26492 21.9538 3.35435 22.0432 3.35435 22.1541C3.35435 22.2649 3.26492 22.3544 3.15408 22.3544H3.15282Z" fill="#3F78D8"/>
</svg>
