<svg width="20" height="23" viewBox="0 0 20 23" fill="none" xmlns="http://www.w3.org/2000/svg">
<path d="M3.30227 6.64194C3.24307 6.64194 3.18513 6.61549 3.14482 6.56636C2.68508 5.98948 2.00869 6.02979 1.56154 6.05624C1.40661 6.06505 1.28317 6.07261 1.1824 6.05624C0.786898 5.99074 0.446812 5.45542 0.354863 5.30049C0.159629 5.07881 0.109245 4.49184 0.0966496 4.23111L0.00218151 3.56983C-0.0104142 3.48544 0.0324108 3.40357 0.107985 3.36326L1.12698 2.83172L1.45321 2.08354C1.46329 2.05961 1.47966 2.03693 1.49856 2.01804C2.75813 0.813885 4.40188 1.3026 4.73567 1.41974C5.14881 1.32275 5.48763 0.919689 5.82772 0.122378C5.86047 0.0468034 5.93856 -0.00357975 6.01665 0.000198971C6.09853 0.00271812 6.17158 0.0543618 6.19929 0.131196C6.73209 1.58097 6.58472 2.68309 5.74962 3.50182C5.67027 3.57865 5.54305 3.57739 5.46622 3.4993C5.38813 3.41995 5.39065 3.29273 5.46874 3.21589C6.09853 2.5987 6.26353 1.80643 5.97635 0.745867C5.70554 1.25474 5.32767 1.72582 4.7533 1.82532C4.71677 1.83162 4.67898 1.82784 4.64498 1.81399C4.57822 1.78754 2.99241 1.18042 1.80463 2.28129L1.46707 3.05719C1.44817 3.09875 1.41668 3.13402 1.37638 3.15544L0.420361 3.65423L0.495935 4.18325C0.495935 4.18325 0.497196 4.19584 0.497196 4.20214C0.51483 4.5712 0.587884 4.95915 0.652123 5.03094C0.668497 5.0448 0.679833 5.05991 0.691169 5.07881C0.815867 5.29671 1.07912 5.63176 1.24916 5.65947C1.30584 5.66829 1.4192 5.66199 1.53886 5.65569C2.0364 5.62672 2.87023 5.5776 3.45971 6.31697C3.52899 6.40388 3.51514 6.52984 3.42823 6.59911C3.3917 6.62808 3.34761 6.6432 3.30353 6.6432L3.30227 6.64194Z" fill="#373D4D"/>
<path d="M9.01585 9.33216C9.01585 9.33216 9.00452 9.33216 8.99948 9.33216C8.88863 9.32334 8.80676 9.22636 8.81684 9.11551C8.9239 7.82949 7.84193 6.32681 7.83059 6.3117C7.80288 6.27391 7.78903 6.22731 7.7928 6.1807C7.9112 4.26741 6.71965 2.77355 6.70831 2.75844C6.67556 2.71813 6.65919 2.66523 6.66422 2.61359C6.77003 1.49508 5.86439 0.337534 5.85558 0.326197C5.7863 0.239287 5.80141 0.11333 5.88833 0.0440538C5.97524 -0.0252228 6.10119 -0.0101086 6.17047 0.0768021C6.21078 0.128445 7.14538 1.31874 7.07107 2.57076C7.31039 2.88817 8.28404 4.3052 8.19839 6.1341C8.41126 6.44143 9.32697 7.84964 9.21864 9.14826C9.20983 9.25281 9.12165 9.33216 9.01963 9.33216H9.01585Z" fill="#373D4D"/>
<path d="M4.35861 15.2638C4.29185 15.2638 4.22761 15.231 4.18857 15.1706L2.47429 12.4612L1.7198 11.4448C1.33311 10.9246 1.27265 10.2406 1.56109 9.65994L2.06367 8.64724L2.4302 6.57902L2.11027 5.96308C2.05863 5.86484 2.09767 5.74392 2.19592 5.69228C2.29417 5.64063 2.41509 5.67968 2.46673 5.77793L2.81815 6.45432C2.8383 6.49337 2.84586 6.53871 2.83704 6.58154L2.45413 8.74423C2.45035 8.76312 2.44532 8.78075 2.4365 8.79839L1.92007 9.83754C1.69965 10.2822 1.74625 10.8061 2.04225 11.2042L2.80052 12.227C2.80052 12.227 2.80681 12.2345 2.80933 12.2395L4.52739 14.9552C4.58659 15.0484 4.55888 15.1731 4.46567 15.2323C4.43293 15.2537 4.39514 15.2638 4.35861 15.2638Z" fill="#373D4D"/>
<path d="M5.07916 22.3538H3.25782C3.12556 22.3538 3.00465 22.2934 2.92655 22.1863C2.84846 22.0805 2.82579 21.947 2.86357 21.8197C3.06762 21.156 3.51099 20.5992 4.11181 20.2516L4.16219 20.2226V15.1553C4.16219 14.3832 3.97704 13.6111 3.62562 12.9221L3.22759 12.1412C3.17721 12.0429 3.21625 11.922 3.3145 11.8716C3.41275 11.8212 3.53367 11.8603 3.58405 11.9585L3.98208 12.7395C4.36247 13.4839 4.56274 14.319 4.56274 15.1553V20.3385C4.56274 20.4103 4.52495 20.4758 4.46197 20.5123L4.31083 20.5992C3.79818 20.8952 3.41905 21.3701 3.24522 21.9369L3.2553 21.9507H5.07665C5.51372 21.9507 5.90167 21.6573 6.02259 21.2378L6.84887 18.3496C6.8791 18.2426 6.98994 18.1808 7.097 18.2123C7.20407 18.2426 7.26453 18.3534 7.2343 18.4605L6.40802 21.3487C6.23923 21.9394 5.69132 22.3526 5.07665 22.3526L5.07916 22.3538Z" fill="#373D4D"/>
<path d="M15.4935 22.9445C14.6773 22.9445 13.8334 22.8992 13.0563 22.8563L12.6797 22.8362C10.0106 22.6964 8.16281 21.5552 7.18664 19.4467C6.22937 17.3772 7.7862 14.2824 8.6742 13.5834C9.04326 13.2937 9.28006 13.3957 9.38838 13.4813C9.87835 13.8705 9.59621 14.5835 9.26998 15.4097C8.90218 16.3406 8.44496 17.4994 8.84046 18.6053C9.55212 20.5979 15.5414 21.4431 16.8917 21.1005C17.2481 21.0098 17.5038 20.8347 17.6525 20.579C17.927 20.1067 17.7633 19.4983 17.762 19.492C17.7331 19.385 17.7948 19.2754 17.9018 19.2451C18.0089 19.2149 18.1185 19.2766 18.1487 19.3837C18.1575 19.4152 18.3603 20.1571 18.0014 20.7781C17.7973 21.132 17.456 21.3713 16.9899 21.4897C15.486 21.8701 9.2725 21.0086 8.46259 18.7401C8.0167 17.4918 8.50542 16.2562 8.89715 15.2624C9.16544 14.5847 9.39594 13.999 9.13898 13.795C9.12765 13.7862 9.05459 13.7937 8.92234 13.8983C8.07842 14.562 6.708 17.4566 7.55066 19.2779C8.45881 21.2403 10.192 22.3034 12.7011 22.4357L13.0789 22.4558C15.1257 22.5666 17.9283 22.7191 18.9322 21.8348C19.3604 21.4582 19.4524 20.7642 19.4536 20.249C19.4574 19.1305 19.0531 17.9579 18.7785 17.7122C18.7344 17.6732 18.7105 17.6165 18.7118 17.5573C18.7118 17.5359 18.7495 15.4148 17.524 13.1274C15.9054 10.1082 12.8157 8.16215 8.58855 7.49961C8.47897 7.48198 8.40465 7.37995 8.42103 7.27037C8.43866 7.16079 8.54069 7.08647 8.65027 7.10285C11.6934 7.57897 15.7656 8.98087 17.8855 12.9536C19.0292 15.0961 19.1098 17.0485 19.1123 17.4805C19.4788 17.905 19.858 19.1116 19.8542 20.2478C19.8517 21.1043 19.6237 21.7567 19.1967 22.1321C18.4611 22.7795 17.0239 22.9407 15.4923 22.9407L15.4935 22.9445Z" fill="#373D4D"/>
<path d="M10.6731 20.5263C10.6316 20.5263 10.59 20.5137 10.5535 20.4873C10.5043 20.4508 9.35435 19.5816 9.17927 18.0953C9.05583 17.0461 9.45134 15.9692 10.3545 14.8948C13.1205 11.601 17.5088 14.6114 17.5529 14.6429C17.6436 14.7058 17.6663 14.8318 17.602 14.9225C17.5378 15.0132 17.4131 15.0358 17.3224 14.9716C17.3123 14.964 16.2656 14.241 14.9192 13.911C13.1507 13.4777 11.7173 13.8959 10.6618 15.153C9.83425 16.138 9.46897 17.1104 9.57729 18.045C9.7297 19.3574 10.7814 20.1585 10.7928 20.1661C10.881 20.2328 10.8998 20.3575 10.8344 20.447C10.7953 20.4999 10.7348 20.5276 10.6731 20.5276V20.5263Z" fill="#373D4D"/>
<path d="M10.3104 22.3541H8.09603C7.98518 22.3541 7.89575 22.2646 7.89575 22.1538V22.0656C7.89575 21.6185 8.10736 21.1889 8.46256 20.9156C8.55073 20.8476 8.67669 20.8652 8.74345 20.9522C8.8102 21.0391 8.79383 21.1663 8.70692 21.233C8.48019 21.4069 8.33409 21.6701 8.3026 21.951H10.3104C10.4212 21.951 10.5106 22.0404 10.5106 22.1513C10.5106 22.2621 10.4212 22.3515 10.3104 22.3515V22.3541Z" fill="#373D4D"/>
<path d="M8.62635 14.1014C8.60367 14.1014 8.581 14.0976 8.55833 14.0888C8.45378 14.051 8.40088 13.9364 8.43867 13.8319C8.73593 13.0157 8.74349 12.1138 8.45882 11.2926L8.19557 10.5331C8.15904 10.4285 8.21446 10.3139 8.31901 10.2774C8.42355 10.2408 8.53817 10.2963 8.5747 10.4008L8.83795 11.1603C9.15285 12.0685 9.14403 13.0648 8.81528 13.9679C8.78505 14.0498 8.70822 14.1002 8.62635 14.1002V14.1014Z" fill="#373D4D"/>
<path d="M4.622 6.64212C4.54139 6.64212 4.46581 6.593 4.43558 6.51365C4.39528 6.41036 4.44692 6.29448 4.55021 6.25418L4.88399 6.12444C5.73547 5.79317 6.35392 5.06136 6.53782 4.1658C6.56049 4.05748 6.66503 3.98694 6.77462 4.00961C6.88294 4.03229 6.95348 4.13809 6.9308 4.24641C6.7192 5.27549 6.00879 6.11688 5.0301 6.49853L4.69632 6.62827C4.67239 6.63709 4.64719 6.64212 4.62326 6.64212H4.622Z" fill="#373D4D"/>
<path d="M3.15331 22.3539H2.00835C1.82446 22.3539 1.65441 22.2531 1.56624 22.0919C1.47807 21.9307 1.48437 21.7329 1.58388 21.578L1.94286 21.0162C2.29554 20.4633 2.86738 20.0715 3.50851 19.9393L3.56015 19.9292L3.19991 13.5583C3.19361 13.4474 3.27801 13.353 3.38885 13.3467C3.49717 13.3391 3.59416 13.4247 3.60046 13.5356L3.97077 20.0791C3.97581 20.1786 3.90779 20.2668 3.81081 20.2869L3.59038 20.3323C3.0538 20.4418 2.57642 20.7706 2.28168 21.2316L1.9227 21.7934C1.89247 21.84 1.91011 21.8828 1.91892 21.8992C1.92774 21.9155 1.95419 21.9533 2.00961 21.9533H3.15457C3.26541 21.9533 3.35484 22.0428 3.35484 22.1536C3.35484 22.2644 3.26541 22.3539 3.15457 22.3539H3.15331Z" fill="#373D4D"/>
</svg>
