<svg width="24" height="24" viewBox="0 0 24 24" fill="none" xmlns="http://www.w3.org/2000/svg">
<path d="M2.4002 6.59995C3.0227 6.59995 3.5327 7.07245 3.5927 7.6762L3.60395 7.9237C3.6677 8.52745 4.1777 8.99995 4.8002 8.99995H11.5164L16.8002 11.265V20.4C16.8002 21.0637 16.2639 21.6 15.6002 21.6H14.4002C13.7364 21.6 13.2002 21.0637 13.2002 20.4V15.4762C12.3002 15.9375 11.2802 16.2 10.2002 16.2C9.12019 16.2 8.10019 15.9375 7.20019 15.4762V20.4C7.20019 21.0637 6.66395 21.6 6.0002 21.6H4.8002C4.13645 21.6 3.6002 21.0637 3.6002 20.4V11.1899C2.20145 10.695 1.2002 9.36745 1.2002 7.79995C1.2002 7.1362 1.73645 6.59995 2.4002 6.59995ZM14.5427 1.19995C14.8314 1.19995 15.1014 1.33495 15.2777 1.56745L15.9002 2.39995H17.8539C18.3302 2.39995 18.7877 2.5912 19.1252 2.9287L19.8002 3.59995H21.9002C22.3989 3.59995 22.8002 4.0012 22.8002 4.49995V5.39995C22.8002 7.05745 21.4577 8.39995 19.8002 8.39995H17.4002L17.1377 9.44995L12.4614 7.44745L13.6464 1.92745C13.7364 1.5037 14.1077 1.19995 14.5427 1.19995ZM18.0002 4.04995C17.5877 4.04995 17.2502 4.38745 17.2502 4.79995C17.2502 5.21245 17.5877 5.54995 18.0002 5.54995C18.4127 5.54995 18.7502 5.21245 18.7502 4.79995C18.7502 4.38745 18.4127 4.04995 18.0002 4.04995Z" fill="#2B2B2B"/>
</svg>
