<svg width="21" height="20" viewBox="0 0 21 20" fill="none" xmlns="http://www.w3.org/2000/svg">
<path d="M10.2535 10.5433L14.1332 13.4531C14.419 13.6674 14.8241 13.6096 15.0384 13.3238C15.2528 13.038 15.1949 12.6329 14.9091 12.4185L11.3172 9.69949V4.20326C11.3172 3.846 11.0278 3.55664 10.6705 3.55664C10.3133 3.55664 10.0239 3.846 10.0239 4.20326V10.0228C10.0239 10.2375 10.1138 10.4308 10.2535 10.5433Z" fill="#4F5464"/>
<path d="M10.9934 0C6.26052 0 2.21885 3.41607 1.42997 8.0827L1.18426 7.71736C0.984133 7.42089 0.581938 7.34265 0.285465 7.54277C-0.0110088 7.7429 -0.0892493 8.1451 0.110878 8.44157L1.40411 10.3814C1.51048 10.5431 1.68377 10.6488 1.87614 10.6692H1.9408C2.11215 10.6685 2.27607 10.6 2.39666 10.4784L4.0132 8.86187C4.26571 8.60937 4.26571 8.19941 4.0132 7.94691C3.7607 7.6944 3.35075 7.6944 3.09824 7.94691L2.69734 8.35104C3.44192 3.76848 7.76034 0.657608 12.3426 1.40219C16.9248 2.14676 20.0363 6.46486 19.2918 11.0474C18.6306 15.1166 15.1159 18.1059 10.9934 18.1052C8.39338 18.1524 5.9343 16.9258 4.40764 14.8204C4.2004 14.5295 3.79659 14.4612 3.50561 14.6685C3.21463 14.8757 3.14642 15.2795 3.35366 15.5705C5.1215 18.0186 7.97437 19.4479 10.9934 19.3985C16.3503 19.3985 20.6927 15.0561 20.6927 9.69924C20.6927 4.34235 16.3503 0 10.9934 0Z" fill="#4F5464"/>
</svg>
