<svg width="21" height="21" viewBox="0 0 21 21" fill="none" xmlns="http://www.w3.org/2000/svg">
<g clipPath="url(#clip0_2_3240)">
<path d="M17.7563 2.69374H16.0421V0.979561C16.0421 0.440773 15.6013 0 15.0627 0H2.57327C2.03452 0 1.59375 0.440773 1.59375 0.979561V16.6523C1.59375 17.1911 2.03452 17.6319 2.57331 17.6319H4.28753V19.3461C4.28753 19.8849 4.72811 20.3257 5.26709 20.3257H13.593C14.1315 20.3257 14.8936 20.0235 15.2857 19.6545L18.0221 17.0787C18.4146 16.7097 18.7354 15.9667 18.7354 15.428L18.7359 3.67338C18.7358 3.13456 18.295 2.69374 17.7563 2.69374ZM4.28745 3.67334V16.8972H2.57327C2.44056 16.8972 2.32841 16.7851 2.32841 16.6524V0.979561C2.32841 0.846849 2.44056 0.734701 2.57327 0.734701H15.0628C15.1953 0.734701 15.3076 0.846849 15.3076 0.979561V2.69378H5.26701C4.72803 2.69378 4.28745 3.13456 4.28745 3.67334ZM17.5185 16.5438L14.7822 19.1194C14.7261 19.172 14.6531 19.2237 14.5725 19.2729V17.0197C14.5725 16.8514 14.6404 16.7001 14.7523 16.5874C14.8652 16.4755 15.0165 16.4075 15.1847 16.4075H17.6349C17.5969 16.4591 17.558 16.5066 17.5185 16.5438ZM18.0007 15.4279C18.0007 15.5006 17.9874 15.5848 17.9674 15.6727H15.1847C14.4415 15.6742 13.8393 16.2764 13.8378 17.0196V19.5613C13.7504 19.579 13.6662 19.5909 13.5929 19.5909H5.26701V19.5909C5.13402 19.5909 5.02215 19.4788 5.02215 19.3461V3.6733C5.02215 3.54059 5.13406 3.42844 5.26701 3.42844H17.7562C17.889 3.42844 18.0011 3.54059 18.0011 3.6733L18.0007 15.4279Z" fill="#3F78D8"/>
<path d="M15.0628 6.12305H7.96108C7.75806 6.12305 7.59375 6.28736 7.59375 6.49038C7.59375 6.6934 7.7581 6.85771 7.96108 6.85771H15.0628C15.2656 6.85771 15.4301 6.6934 15.4301 6.49038C15.4301 6.28736 15.2656 6.12305 15.0628 6.12305Z" fill="#3F78D8"/>
<path d="M15.0628 11.0205H7.96108C7.75806 11.0205 7.59375 11.1848 7.59375 11.3878C7.59375 11.5909 7.7581 11.7552 7.96108 11.7552H15.0628C15.2656 11.7552 15.4301 11.5909 15.4301 11.3878C15.4301 11.1848 15.2656 11.0205 15.0628 11.0205Z" fill="#3F78D8"/>
<path d="M11.8792 13.4697H7.96108C7.75806 13.4697 7.59375 13.634 7.59375 13.8371C7.59375 14.0401 7.75806 14.2044 7.96108 14.2044H11.8792C12.082 14.2044 12.2463 14.0401 12.2463 13.8371C12.2463 13.634 12.082 13.4697 11.8792 13.4697Z" fill="#3F78D8"/>
<path d="M15.0628 8.57129H7.96108C7.75806 8.57129 7.59375 8.7356 7.59375 8.93862C7.59375 9.14164 7.7581 9.30595 7.96108 9.30595H15.0628C15.2656 9.30595 15.4301 9.14164 15.4301 8.93862C15.4301 8.7356 15.2656 8.57129 15.0628 8.57129Z" fill="#3F78D8"/>
</g>
<defs>
<clipPath id="clip0_2_3240">
<rect width="20.3257" height="20.3257" fill="white"/>
</clipPath>
</defs>
</svg>
