<svg width="19" height="19" viewBox="0 0 19 19" fill="none" xmlns="http://www.w3.org/2000/svg">
<path d="M9.28608 18.5679C7.44978 18.569 5.65441 18.0254 4.1272 17.0058C2.6 15.9861 1.40963 14.5364 0.706745 12.8399C0.00386375 11.1434 -0.179923 9.2766 0.178645 7.47565C0.537213 5.67469 1.42202 4.0206 2.72107 2.72273C3.80031 1.64233 5.1294 0.84483 6.59055 0.400913C8.05171 -0.0430033 9.59981 -0.119632 11.0977 0.177818C12.5955 0.475268 13.9969 1.13761 15.1775 2.10615C16.3582 3.07469 17.2817 4.31952 17.8662 5.73032C18.4508 7.14112 18.6782 8.67433 18.5285 10.1941C18.3788 11.7138 17.8566 13.1732 17.008 14.4428C16.1594 15.7124 15.0107 16.7531 13.6638 17.4727C12.3168 18.1922 10.8132 18.5684 9.28608 18.5679ZM3.258 3.25966C2.06537 4.45197 1.2531 5.97118 0.923935 7.62515C0.594767 9.27912 0.763479 10.9936 1.40874 12.5516C2.05399 14.1097 3.14681 15.4415 4.54897 16.3784C5.95114 17.3154 7.59967 17.8155 9.28608 17.8155C10.9725 17.8155 12.621 17.3154 14.0232 16.3784C15.4254 15.4415 16.5182 14.1097 17.1634 12.5516C17.8087 10.9936 17.9774 9.27912 17.6482 7.62515C17.3191 5.97118 16.5068 4.45197 15.3142 3.25966C13.7133 1.66491 11.5457 0.769505 9.28608 0.769505C7.02644 0.769505 4.85886 1.66491 3.258 3.25966Z" fill="#5285DC"/>
<path d="M9.28586 14.6798C8.22079 14.6779 7.18014 14.3606 6.29517 13.768C5.41021 13.1754 4.72056 12.3339 4.31324 11.3498C3.90591 10.3657 3.79914 9.28304 4.00641 8.23834C4.21367 7.19363 4.72568 6.2337 5.47785 5.47963C6.10457 4.85133 6.87668 4.38742 7.72568 4.12907C8.57468 3.87071 9.47432 3.8259 10.3448 3.99859C11.2153 4.17129 12.0296 4.55616 12.7157 5.11906C13.4018 5.68197 13.9383 6.4055 14.2777 7.22547C14.6171 8.04545 14.7489 8.93651 14.6613 9.81962C14.5738 10.7027 14.2696 11.5506 13.7758 12.2879C13.282 13.0253 12.6139 13.6294 11.8306 14.0467C11.0474 14.4639 10.1733 14.6814 9.28586 14.6798ZM9.28586 4.6571C8.67756 4.6559 8.07503 4.77507 7.51297 5.00773C6.95092 5.2404 6.44045 5.58196 6.01097 6.01275C5.25234 6.77059 4.77999 7.76805 4.6744 8.83514C4.56882 9.90223 4.83655 10.9729 5.43195 11.8647C6.02736 12.7565 6.9136 13.4143 7.93963 13.7259C8.96567 14.0374 10.068 13.9836 11.0588 13.5734C12.0495 13.1633 12.8674 12.4223 13.373 11.4767C13.8787 10.5311 14.0407 9.43937 13.8316 8.38766C13.6225 7.33595 13.0551 6.38929 12.2262 5.70904C11.3973 5.02878 10.3582 4.65702 9.28586 4.6571Z" fill="#5285DC"/>
<path d="M11.5079 5.17871C11.4333 5.17813 11.3605 5.15561 11.2985 5.11397C11.2563 5.08661 11.22 5.05117 11.1916 5.00969C11.1632 4.96821 11.1433 4.92153 11.133 4.87232C11.1228 4.82311 11.1223 4.77236 11.1318 4.72299C11.1412 4.67361 11.1604 4.6266 11.1881 4.58466L13.3548 1.33642C13.3812 1.29185 13.4163 1.25311 13.4582 1.22259C13.5 1.19207 13.5476 1.1704 13.5981 1.15891C13.6486 1.14742 13.7009 1.14635 13.7519 1.15576C13.8028 1.16518 13.8512 1.18488 13.8943 1.21366C13.9373 1.24245 13.9741 1.27971 14.0022 1.32318C14.0304 1.36664 14.0494 1.41539 14.058 1.46644C14.0667 1.5175 14.0649 1.56978 14.0527 1.62011C14.0404 1.67043 14.0181 1.71773 13.987 1.75911L11.8202 5.00735C11.7861 5.0592 11.7398 5.10192 11.6853 5.13179C11.6309 5.16165 11.57 5.17776 11.5079 5.17871Z" fill="#5285DC"/>
<path d="M13.7753 7.44494C13.694 7.44431 13.6149 7.41764 13.5498 7.36884C13.4848 7.32004 13.437 7.25167 13.4136 7.17375C13.3902 7.09583 13.3923 7.01247 13.4197 6.93586C13.4471 6.85926 13.4984 6.79345 13.5659 6.74807L16.8141 4.5775C16.8559 4.54975 16.9027 4.53049 16.9519 4.52083C17.0011 4.51117 17.0517 4.51129 17.1009 4.52119C17.15 4.53109 17.1967 4.55058 17.2383 4.57853C17.28 4.60649 17.3157 4.64237 17.3434 4.68413C17.3712 4.72588 17.3904 4.7727 17.4001 4.8219C17.4098 4.87109 17.4096 4.92172 17.3997 4.97087C17.3898 5.02002 17.3704 5.06674 17.3424 5.10836C17.3144 5.14998 17.2786 5.18569 17.2368 5.21344L13.9886 7.38401C13.9251 7.42503 13.8509 7.44623 13.7753 7.44494Z" fill="#5285DC"/>
<path d="M17.0255 14.0594C16.9499 14.0607 16.8757 14.0395 16.8122 13.9985L13.564 11.8279C13.483 11.7698 13.428 11.6821 13.4109 11.5838C13.3938 11.4856 13.416 11.3845 13.4726 11.3024C13.5276 11.2215 13.6118 11.1648 13.7075 11.1442C13.8032 11.1237 13.9032 11.1408 13.9867 11.192L17.2349 13.3587C17.2768 13.3864 17.3127 13.4221 17.3408 13.4637C17.3688 13.5053 17.3883 13.5521 17.3982 13.6012C17.4082 13.6504 17.4082 13.7011 17.3985 13.7503C17.3888 13.7995 17.3694 13.8463 17.3415 13.8881C17.307 13.9404 17.2601 13.9835 17.205 14.0134C17.1499 14.0433 17.0882 14.0591 17.0255 14.0594Z" fill="#5285DC"/>
<path d="M13.6767 17.4102C13.6139 17.4099 13.5523 17.3941 13.4971 17.3642C13.442 17.3343 13.3951 17.2912 13.3606 17.2388L11.19 13.9906C11.1388 13.9072 11.1217 13.8072 11.1423 13.7115C11.1628 13.6157 11.2195 13.5316 11.3005 13.4765C11.3844 13.4214 11.4867 13.4017 11.5852 13.4217C11.6836 13.4416 11.7701 13.4997 11.826 13.5832L13.9927 16.8314C14.0208 16.8729 14.0404 16.9195 14.0504 16.9686C14.0605 17.0176 14.0607 17.0682 14.0511 17.1174C14.0416 17.1665 14.0224 17.2133 13.9948 17.2551C13.9671 17.2969 13.9315 17.3327 13.8899 17.3607C13.8252 17.3977 13.7511 17.4149 13.6767 17.4102Z" fill="#5285DC"/>
<path d="M4.89416 17.4102C4.81821 17.4104 4.74395 17.3878 4.68091 17.3455C4.63935 17.3175 4.60372 17.2816 4.57606 17.2399C4.54839 17.1981 4.52923 17.1513 4.51968 17.1021C4.51013 17.053 4.51037 17.0024 4.5204 16.9533C4.53042 16.9043 4.55003 16.8576 4.57809 16.8162L6.74485 13.5679C6.77261 13.5262 6.80831 13.4903 6.84993 13.4623C6.89155 13.4344 6.93827 13.4149 6.98743 13.405C7.03658 13.3951 7.0872 13.395 7.1364 13.4046C7.1856 13.4143 7.23241 13.4335 7.27417 13.4613C7.31592 13.489 7.3518 13.5248 7.37976 13.5664C7.40772 13.608 7.4272 13.6547 7.4371 13.7039C7.447 13.753 7.44713 13.8036 7.43746 13.8528C7.4278 13.902 7.40854 13.9488 7.38079 13.9906L5.21022 17.2388C5.17573 17.2912 5.12883 17.3343 5.07369 17.3642C5.01855 17.3941 4.95688 17.4099 4.89416 17.4102Z" fill="#5285DC"/>
<path d="M1.54435 14.0596C1.48197 14.0597 1.42052 14.0444 1.36541 14.0152C1.3103 13.986 1.26321 13.9437 1.22828 13.892C1.2004 13.8503 1.18103 13.8035 1.1713 13.7543C1.16156 13.7051 1.16165 13.6544 1.17156 13.6052C1.18147 13.556 1.201 13.5093 1.22903 13.4677C1.25707 13.426 1.29304 13.3904 1.3349 13.3627L4.58314 11.1921C4.62485 11.1643 4.67167 11.1449 4.72089 11.1352C4.77011 11.1254 4.82077 11.1255 4.86996 11.1354C4.91915 11.1453 4.96589 11.1649 5.00751 11.1929C5.04912 11.2209 5.08479 11.2569 5.11245 11.2988C5.16757 11.3827 5.18729 11.4851 5.16732 11.5835C5.14735 11.6819 5.08931 11.7684 5.00583 11.8243L1.75759 13.9948C1.69456 14.0372 1.62029 14.0598 1.54435 14.0596Z" fill="#5285DC"/>
<path d="M4.796 7.44494C4.72005 7.44511 4.64579 7.42256 4.58275 7.3802L1.33452 5.21344C1.29276 5.18569 1.25688 5.14998 1.22892 5.10836C1.20097 5.06674 1.18148 5.02002 1.17158 4.97087C1.15159 4.8716 1.17184 4.76846 1.22789 4.68413C1.28395 4.5998 1.3712 4.54119 1.47047 4.52119C1.51962 4.51129 1.57024 4.51117 1.61944 4.52083C1.66864 4.53049 1.71545 4.54975 1.75721 4.5775L5.00544 6.74807C5.07297 6.79345 5.1242 6.85926 5.15161 6.93586C5.17901 7.01247 5.18117 7.09583 5.15775 7.17375C5.13433 7.25167 5.08657 7.32004 5.02148 7.36884C4.95638 7.41764 4.87736 7.44431 4.796 7.44494Z" fill="#5285DC"/>
<path d="M7.06418 5.17871C7.00146 5.17838 6.93979 5.16257 6.88465 5.13268C6.82951 5.10278 6.78261 5.05973 6.74812 5.00735L4.58136 1.75911C4.55023 1.71773 4.52787 1.67043 4.51564 1.62011C4.50342 1.56978 4.50159 1.5175 4.51026 1.46644C4.51893 1.41539 4.53793 1.36664 4.56608 1.32318C4.59424 1.27971 4.63097 1.24245 4.67401 1.21366C4.71706 1.18488 4.76553 1.16518 4.81645 1.15576C4.86737 1.14635 4.91968 1.14742 4.97018 1.15891C5.02067 1.1704 5.06829 1.19207 5.11013 1.22259C5.15196 1.25311 5.18713 1.29185 5.21349 1.33642L7.38405 4.58466C7.43527 4.66811 7.45237 4.76809 7.43181 4.86382C7.41124 4.95955 7.35459 5.04368 7.27362 5.09874C7.21341 5.14581 7.14044 5.17367 7.06418 5.17871Z" fill="#5285DC"/>
</svg>
