<svg width="20" height="15" viewBox="0 0 20 15" fill="none" xmlns="http://www.w3.org/2000/svg">
<path d="M3.3 0C2.42479 0 1.58542 0.347677 0.966548 0.966547C0.347678 1.58542 0 2.42479 0 3.3V4.8H19.2V3.3C19.2 2.42479 18.8523 1.58542 18.2335 0.966547C17.6146 0.347677 16.7752 0 15.9 0H3.3ZM19.2 6H0V11.1C0 11.9752 0.347678 12.8146 0.966548 13.4335C1.58542 14.0523 2.42479 14.4 3.3 14.4H15.9C16.7752 14.4 17.6146 14.0523 18.2335 13.4335C18.8523 12.8146 19.2 11.9752 19.2 11.1V6ZM13.8 10.8H16.2C16.3591 10.8 16.5117 10.8632 16.6243 10.9757C16.7368 11.0883 16.8 11.2409 16.8 11.4C16.8 11.5591 16.7368 11.7117 16.6243 11.8243C16.5117 11.9368 16.3591 12 16.2 12H13.8C13.6409 12 13.4883 11.9368 13.3757 11.8243C13.2632 11.7117 13.2 11.5591 13.2 11.4C13.2 11.2409 13.2632 11.0883 13.3757 10.9757C13.4883 10.8632 13.6409 10.8 13.8 10.8Z" fill="#2B2B2B"/>
</svg>
