<svg width="20" height="20" viewBox="0 0 20 20" fill="none" xmlns="http://www.w3.org/2000/svg">
<path d="M19.1753 8.57134C19.1747 8.57089 19.1742 8.57029 19.1738 8.56984L11.1351 0.53148C10.7925 0.188687 10.3369 0 9.85233 0C9.36776 0 8.9122 0.188687 8.56941 0.53148L0.534959 8.56578C0.532252 8.56849 0.529396 8.57134 0.52684 8.57405C-0.176789 9.28174 -0.175586 10.4299 0.530298 11.1358C0.852795 11.4585 1.27858 11.6452 1.73398 11.6649C1.75263 11.6667 1.77127 11.6676 1.79006 11.6676H2.11031V17.5832C2.11031 18.754 3.06291 19.7064 4.23367 19.7064H7.37865C7.69754 19.7064 7.95599 19.4478 7.95599 19.1291V14.4911C7.95599 13.957 8.39065 13.5225 8.92483 13.5225H10.7798C11.314 13.5225 11.7485 13.957 11.7485 14.4911V19.1291C11.7485 19.4478 12.007 19.7064 12.3259 19.7064H15.4708C16.6417 19.7064 17.5942 18.754 17.5942 17.5832V11.6676H17.8913C18.3757 11.6676 18.8313 11.4789 19.1742 11.136C19.8808 10.429 19.8811 9.27873 19.1753 8.57134ZM18.3577 10.3196C18.233 10.4442 18.0673 10.5129 17.8913 10.5129H17.0169C16.698 10.5129 16.4395 10.7714 16.4395 11.0903V17.5832C16.4395 18.1172 16.005 18.5517 15.4708 18.5517H12.9032V14.4911C12.9032 13.3204 11.9507 12.3678 10.7798 12.3678H8.92483C7.75392 12.3678 6.80132 13.3204 6.80132 14.4911V18.5517H4.23367C3.69964 18.5517 3.26498 18.1172 3.26498 17.5832V11.0903C3.26498 10.7714 3.00653 10.5129 2.68764 10.5129H1.82825C1.81923 10.5123 1.81036 10.5119 1.80119 10.5117C1.62919 10.5087 1.46787 10.4405 1.34699 10.3194C1.08989 10.0623 1.08989 9.64393 1.34699 9.38668C1.34714 9.38668 1.34714 9.38653 1.34729 9.38638L1.34774 9.38593L9.3861 1.34787C9.51059 1.22323 9.67612 1.15467 9.85233 1.15467C10.0284 1.15467 10.1939 1.22323 10.3186 1.34787L18.3551 9.38427C18.3563 9.38548 18.3577 9.38668 18.3589 9.38788C18.6146 9.64543 18.6142 10.0629 18.3577 10.3196Z" fill="#606472"/>
</svg>
