<svg width="20" height="18" viewBox="0 0 20 18" fill="none" xmlns="http://www.w3.org/2000/svg">
<path d="M6.70695 9.64435C6.38324 10.3312 5.8582 10.8602 5.22657 11.1326C3.73039 11.78 2.88953 13.3591 3.17772 14.9777C3.3751 16.087 4.09753 17.0265 5.11603 17.4963C6.1069 17.9542 7.24779 17.9384 8.2505 17.441C9.28479 16.9278 10.473 16.9278 11.5073 17.441C12.0245 17.6976 12.5811 17.8279 13.1377 17.8279C13.6509 17.8279 14.1641 17.7174 14.6418 17.4963C15.6564 17.0265 16.3827 16.083 16.5801 14.9777C16.8644 13.3828 16.0393 11.8077 14.5668 11.1484C13.9273 10.8602 13.418 10.3352 13.1377 9.66409C12.7074 8.63374 11.7955 7.40601 9.91643 7.40601C9.90458 7.40601 9.88879 7.40601 9.87695 7.40601C8.47947 7.42574 7.38595 8.19554 6.70695 9.64435ZM9.8809 8.19949H9.91248C11.077 8.19949 11.914 8.79559 12.4074 9.972C12.7667 10.8287 13.418 11.5037 14.2431 11.8748C15.38 12.384 16.0196 13.6039 15.7985 14.8435C15.6485 15.6843 15.0761 16.4304 14.3063 16.7857C13.5325 17.145 12.6364 17.1292 11.8547 16.7423C11.2271 16.4304 10.552 16.2765 9.87695 16.2765C9.20189 16.2765 8.52684 16.4304 7.89915 16.7423C7.11751 17.1292 6.22139 17.145 5.44764 16.7857C4.67784 16.4304 4.10542 15.6843 3.95541 14.8435C3.73039 13.5881 4.38571 12.3643 5.54238 11.8629C6.35166 11.5116 7.01882 10.8444 7.42148 9.98385C7.97021 8.81138 8.79923 8.21134 9.8809 8.19949Z" fill="#5285DC"/>
<path d="M18.6086 5.48304C18.0283 5.2067 17.3414 5.26592 16.6781 5.64884C16.0584 6.00413 15.5294 6.60418 15.178 7.3424C14.8267 8.08062 14.7004 8.87016 14.8148 9.5768C14.9412 10.3348 15.328 10.8993 15.9083 11.1756C16.1492 11.2901 16.4097 11.3454 16.6781 11.3454C17.0571 11.3454 17.4519 11.2309 17.8388 11.0098C18.4546 10.6545 18.9875 10.0545 19.3389 9.31625C19.6902 8.57803 19.8166 7.78849 19.7021 7.08185C19.5797 6.32785 19.1889 5.75938 18.6086 5.48304ZM18.6283 8.98069C18.348 9.57285 17.9296 10.0505 17.4479 10.3269C17.0137 10.5756 16.5874 10.6229 16.2479 10.465C15.9083 10.3032 15.6754 9.94393 15.5965 9.45047C15.5057 8.90569 15.6123 8.278 15.8926 7.68585C16.1728 7.0937 16.5913 6.61603 17.0729 6.33969C17.3374 6.18573 17.6019 6.11072 17.8427 6.11072C17.9967 6.11072 18.1388 6.1423 18.273 6.20547C18.6125 6.36732 18.8454 6.72656 18.9244 7.22002C19.0152 7.76086 18.9086 8.38459 18.6283 8.98069Z" fill="#5285DC"/>
<path d="M12.2446 6.61234C12.4025 6.65182 12.5604 6.67156 12.7183 6.67156C13.2355 6.67156 13.7645 6.45838 14.2382 6.04782C14.8185 5.54646 15.2607 4.8043 15.4817 3.95555C15.7028 3.10679 15.6791 2.24225 15.4146 1.51982C15.1383 0.753968 14.6172 0.232872 13.95 0.0631215C12.6354 -0.280328 11.1787 0.911875 10.709 2.71597C10.2313 4.55165 10.9064 6.26495 12.2446 6.61234ZM11.4748 2.91335C11.7946 1.68562 12.671 0.789497 13.4842 0.789497C13.575 0.789497 13.6658 0.80134 13.7526 0.825026C14.1593 0.931614 14.4869 1.27506 14.6764 1.79616C14.8856 2.36857 14.9014 3.06337 14.7198 3.76211C14.5382 4.4569 14.1829 5.0609 13.725 5.45567C13.3066 5.81491 12.8486 5.95702 12.442 5.85044C11.5617 5.62147 11.1195 4.27531 11.4748 2.91335Z" fill="#5285DC"/>
<path d="M1.91048 11.01C2.29736 11.235 2.69607 11.3456 3.07111 11.3456C3.33955 11.3456 3.6001 11.2903 3.84091 11.1758C4.42122 10.8995 4.81204 10.331 4.93442 9.57699C5.0489 8.87431 4.92257 8.08082 4.57123 7.3426C3.81327 5.74773 2.3092 4.93056 1.14068 5.48324C-0.0278326 6.03591 -0.347596 7.72158 0.410361 9.31645C0.757758 10.0547 1.2907 10.6547 1.91048 11.01ZM1.48019 6.19777C1.61441 6.13461 1.75652 6.10303 1.90654 6.10303C2.59343 6.10303 3.40666 6.73071 3.86064 7.67815C4.14093 8.27031 4.24752 8.89799 4.15672 9.44277C4.07382 9.93623 3.84485 10.2955 3.50535 10.4573C3.16585 10.6192 2.7395 10.5718 2.30525 10.3192C1.82758 10.0428 1.40518 9.56515 1.12489 8.973C0.576164 7.82422 0.738019 6.54911 1.48019 6.19777Z" fill="#5285DC"/>
<path d="M4.26711 3.95943C4.68162 5.55825 5.86987 6.67149 7.04628 6.67149C7.20024 6.67149 7.3542 6.65176 7.50816 6.61228C8.82275 6.26883 9.51359 4.52 9.03987 2.71196C8.57009 0.903918 7.11339 -0.284337 5.79881 0.0591119C4.48423 0.402561 3.79339 2.15139 4.26711 3.95943ZM5.9962 0.824964C6.87653 0.595998 7.91872 1.55134 8.27402 2.91329C8.62931 4.27525 8.18717 5.62141 7.30683 5.85037C6.43044 6.07934 5.38431 5.124 5.02901 3.76205C4.67372 2.40009 5.11981 1.05393 5.9962 0.824964Z" fill="#5285DC"/>
</svg>
