<svg width="20" height="18" viewBox="0 0 20 18" fill="none" xmlns="http://www.w3.org/2000/svg">
<path d="M6.70652 9.64459C6.38281 10.3315 5.85777 10.8605 5.22614 11.1329C3.72996 11.7803 2.88911 13.3594 3.17729 14.9779C3.37467 16.0872 4.0971 17.0268 5.1156 17.4966C6.10648 17.9545 7.24736 17.9387 8.25007 17.4413C9.28437 16.9281 10.4726 16.9281 11.5069 17.4413C12.0241 17.6979 12.5807 17.8282 13.1373 17.8282C13.6505 17.8282 14.1637 17.7176 14.6414 17.4966C15.6559 17.0268 16.3823 16.0833 16.5797 14.9779C16.8639 13.3831 16.0389 11.8079 14.5664 11.1487C13.9269 10.8605 13.4176 10.3354 13.1373 9.66433C12.707 8.63398 11.7951 7.40625 9.916 7.40625C9.90415 7.40625 9.88836 7.40625 9.87652 7.40625C8.47904 7.42599 7.38553 8.19579 6.70652 9.64459ZM9.88047 8.19974H9.91205C11.0766 8.19974 11.9135 8.79584 12.407 9.97225C12.7662 10.8289 13.4176 11.504 14.2427 11.875C15.3796 12.3843 16.0191 13.6041 15.7981 14.8437C15.648 15.6846 15.0756 16.4307 14.3058 16.786C13.5321 17.1452 12.636 17.1294 11.8543 16.7425C11.2266 16.4307 10.5516 16.2767 9.87652 16.2767C9.20147 16.2767 8.52641 16.4307 7.89873 16.7425C7.11708 17.1294 6.22096 17.1452 5.44721 16.786C4.67741 16.4307 4.105 15.6846 3.95498 14.8437C3.72996 13.5883 4.38528 12.3646 5.54196 11.8632C6.35123 11.5118 7.01839 10.8447 7.42106 9.98409C7.96979 8.81163 8.7988 8.21158 9.88047 8.19974Z" fill="#606472"/>
<path d="M18.6082 5.48304C18.0279 5.2067 17.341 5.26592 16.6778 5.64884C16.058 6.00413 15.529 6.60418 15.1777 7.3424C14.8263 8.08062 14.7 8.87016 14.8145 9.5768C14.9408 10.3348 15.3277 10.8993 15.908 11.1756C16.1488 11.2901 16.4093 11.3454 16.6778 11.3454C17.0568 11.3454 17.4515 11.2309 17.8384 11.0098C18.4542 10.6545 18.9872 10.0545 19.3385 9.31625C19.6899 8.57803 19.8162 7.78849 19.7017 7.08185C19.5793 6.32785 19.1885 5.75938 18.6082 5.48304ZM18.6279 8.98069C18.3477 9.57285 17.9292 10.0505 17.4476 10.3269C17.0133 10.5756 16.587 10.6229 16.2475 10.465C15.908 10.3032 15.6751 9.94393 15.5961 9.45047C15.5053 8.90569 15.6119 8.278 15.8922 7.68585C16.1725 7.0937 16.5909 6.61603 17.0726 6.33969C17.337 6.18573 17.6015 6.11072 17.8424 6.11072C17.9963 6.11072 18.1384 6.1423 18.2726 6.20547C18.6122 6.36732 18.8451 6.72656 18.924 7.22002C19.0148 7.76086 18.9082 8.38459 18.6279 8.98069Z" fill="#606472"/>
<path d="M12.2454 6.6121C12.4033 6.65158 12.5612 6.67131 12.7191 6.67131C13.2363 6.67131 13.7653 6.45814 14.239 6.04758C14.8193 5.54622 15.2615 4.80406 15.4825 3.9553C15.7036 3.10655 15.6799 2.242 15.4154 1.51958C15.1391 0.753723 14.618 0.232628 13.9508 0.0628773C12.6362 -0.280572 11.1795 0.911631 10.7098 2.71573C10.2321 4.5514 10.9071 6.2647 12.2454 6.6121ZM11.4756 2.91311C11.7954 1.68538 12.6718 0.789252 13.485 0.789252C13.5758 0.789252 13.6666 0.801096 13.7534 0.824782C14.16 0.931369 14.4877 1.27482 14.6772 1.79591C14.8864 2.36833 14.9022 3.06312 14.7206 3.76186C14.539 4.45666 14.1837 5.06065 13.7258 5.45542C13.3073 5.81466 12.8494 5.95678 12.4428 5.85019C11.5625 5.62123 11.1203 4.27506 11.4756 2.91311Z" fill="#606472"/>
<path d="M1.91048 11.0098C2.29736 11.2348 2.69607 11.3453 3.07111 11.3453C3.33955 11.3453 3.6001 11.29 3.84091 11.1756C4.42122 10.8992 4.81204 10.3308 4.93442 9.57675C5.0489 8.87406 4.92257 8.08057 4.57123 7.34236C3.81327 5.74749 2.3092 4.93032 1.14068 5.48299C-0.0278326 6.03567 -0.347596 7.72133 0.410361 9.3162C0.757758 10.0544 1.2907 10.6545 1.91048 11.0098ZM1.48019 6.19753C1.61441 6.13436 1.75652 6.10278 1.90654 6.10278C2.59343 6.10278 3.40666 6.73046 3.86064 7.67791C4.14093 8.27006 4.24752 8.89775 4.15672 9.44253C4.07382 9.93599 3.84485 10.2952 3.50535 10.4571C3.16585 10.6189 2.7395 10.5716 2.30525 10.3189C1.82758 10.0426 1.40518 9.56491 1.12489 8.97275C0.576164 7.82397 0.738019 6.54887 1.48019 6.19753Z" fill="#606472"/>
<path d="M4.26662 3.95943C4.68113 5.55825 5.86938 6.67149 7.0458 6.67149C7.19976 6.67149 7.35372 6.65176 7.50768 6.61228C8.82226 6.26883 9.5131 4.52 9.03938 2.71196C8.5696 0.903918 7.11291 -0.284337 5.79832 0.0591119C4.48374 0.402561 3.7929 2.15139 4.26662 3.95943ZM5.99571 0.824964C6.87604 0.595998 7.91824 1.55134 8.27353 2.91329C8.62882 4.27525 8.18668 5.62141 7.30634 5.85037C6.42996 6.07934 5.38382 5.124 5.02852 3.76205C4.67323 2.40009 5.11932 1.05393 5.99571 0.824964Z" fill="#606472"/>
</svg>
