<svg width="24" height="24" viewBox="0 0 24 24" fill="none" xmlns="http://www.w3.org/2000/svg">
<path d="M12 10.5C10.0109 10.5 8.10322 11.2902 6.6967 12.6967C5.29018 14.1032 4.5 16.0109 4.5 18C4.5 19.947 6.318 21 7.9275 21H16.0725C17.682 21 19.5 19.947 19.5 18C19.5 16.0109 18.7098 14.1032 17.3033 12.6967C15.8968 11.2902 13.9891 10.5 12 10.5Z" fill="#3F78D8"/>
<path d="M12.75 5.8125C12.75 4.407 13.707 3 15.1875 3C16.668 3 17.625 4.407 17.625 5.8125C17.625 7.218 16.668 8.625 15.1875 8.625C13.707 8.625 12.75 7.218 12.75 5.8125ZM3.5625 6.375C2.082 6.375 1.125 7.782 1.125 9.1875C1.125 10.593 2.082 12 3.5625 12C5.043 12 6 10.593 6 9.1875C6 7.782 5.043 6.375 3.5625 6.375ZM20.4375 6.375C18.957 6.375 18 7.782 18 9.1875C18 10.593 18.957 12 20.4375 12C21.918 12 22.875 10.593 22.875 9.1875C22.875 7.782 21.918 6.375 20.4375 6.375ZM8.8125 3C7.332 3 6.375 4.407 6.375 5.8125C6.375 7.218 7.332 8.625 8.8125 8.625C10.293 8.625 11.25 7.218 11.25 5.8125C11.25 4.407 10.293 3 8.8125 3Z" fill="#3F78D8"/>
</svg>
