<svg width="20" height="18" viewBox="0 0 20 18" fill="none" xmlns="http://www.w3.org/2000/svg">
<path d="M6.70701 9.6441C6.3833 10.331 5.85826 10.86 5.22663 11.1324C3.73045 11.7798 2.88959 13.3589 3.17778 14.9774C3.37516 16.0867 4.09759 17.0263 5.11609 17.4961C6.10696 17.954 7.24785 17.9382 8.25056 17.4408C9.28485 16.9276 10.4731 16.9276 11.5074 17.4408C12.0246 17.6974 12.5812 17.8277 13.1378 17.8277C13.651 17.8277 14.1642 17.7171 14.6419 17.4961C15.6564 17.0263 16.3828 16.0828 16.5802 14.9774C16.8644 13.3826 16.0394 11.8074 14.5669 11.1482C13.9273 10.86 13.4181 10.3349 13.1378 9.66384C12.7075 8.63349 11.7956 7.40576 9.91649 7.40576C9.90464 7.40576 9.88885 7.40576 9.87701 7.40576C8.47953 7.4255 7.38602 8.1953 6.70701 9.6441ZM9.88096 8.19925H9.91254C11.0771 8.19925 11.914 8.79535 12.4075 9.97176C12.7667 10.8284 13.4181 11.5035 14.2432 11.8745C15.3801 12.3838 16.0196 13.6036 15.7985 14.8432C15.6485 15.6841 15.0761 16.4302 14.3063 16.7855C13.5326 17.1447 12.6364 17.1289 11.8548 16.7421C11.2271 16.4302 10.5521 16.2762 9.87701 16.2762C9.20195 16.2762 8.5269 16.4302 7.89922 16.7421C7.11757 17.1289 6.22145 17.1447 5.4477 16.7855C4.6779 16.4302 4.10548 15.6841 3.95547 14.8432C3.73045 13.5878 4.38577 12.3641 5.54244 11.8627C6.35172 11.5114 7.01888 10.8442 7.42155 9.9836C7.97027 8.81114 8.79929 8.21109 9.88096 8.19925Z" fill="#4F5464"/>
<path d="M18.6087 5.48304C18.0284 5.2067 17.3415 5.26592 16.6783 5.64884C16.0585 6.00413 15.5295 6.60418 15.1781 7.3424C14.8268 8.08062 14.7005 8.87016 14.815 9.5768C14.9413 10.3348 15.3282 10.8993 15.9085 11.1756C16.1493 11.2901 16.4098 11.3454 16.6783 11.3454C17.0572 11.3454 17.452 11.2309 17.8389 11.0098C18.4547 10.6545 18.9877 10.0545 19.339 9.31625C19.6904 8.57803 19.8167 7.78849 19.7022 7.08185C19.5798 6.32785 19.189 5.75938 18.6087 5.48304ZM18.6284 8.98069C18.3481 9.57285 17.9297 10.0505 17.4481 10.3269C17.0138 10.5756 16.5875 10.6229 16.248 10.465C15.9085 10.3032 15.6756 9.94393 15.5966 9.45047C15.5058 8.90569 15.6124 8.278 15.8927 7.68585C16.173 7.0937 16.5914 6.61603 17.073 6.33969C17.3375 6.18573 17.602 6.11072 17.8428 6.11072C17.9968 6.11072 18.1389 6.1423 18.2731 6.20547C18.6126 6.36732 18.8456 6.72656 18.9245 7.22002C19.0153 7.76086 18.9087 8.38459 18.6284 8.98069Z" fill="#4F5464"/>
<path d="M12.2447 6.6121C12.4026 6.65158 12.5605 6.67131 12.7184 6.67131C13.2356 6.67131 13.7645 6.45814 14.2383 6.04758C14.8186 5.54622 15.2607 4.80406 15.4818 3.9553C15.7029 3.10655 15.6792 2.242 15.4147 1.51958C15.1383 0.753723 14.6172 0.232628 13.9501 0.0628773C12.6355 -0.280572 11.1788 0.911631 10.709 2.71573C10.2314 4.5514 10.9064 6.2647 12.2447 6.6121ZM11.4749 2.91311C11.7946 1.68538 12.671 0.789252 13.4843 0.789252C13.5751 0.789252 13.6659 0.801096 13.7527 0.824782C14.1593 0.931369 14.487 1.27482 14.6765 1.79591C14.8857 2.36833 14.9015 3.06312 14.7199 3.76186C14.5383 4.45666 14.183 5.06065 13.7251 5.45542C13.3066 5.81466 12.8487 5.95678 12.4421 5.85019C11.5617 5.62123 11.1196 4.27506 11.4749 2.91311Z" fill="#4F5464"/>
<path d="M1.91048 11.0098C2.29736 11.2348 2.69607 11.3453 3.07111 11.3453C3.33955 11.3453 3.6001 11.29 3.84091 11.1756C4.42122 10.8992 4.81204 10.3308 4.93442 9.57675C5.0489 8.87406 4.92257 8.08057 4.57123 7.34236C3.81327 5.74749 2.3092 4.93032 1.14068 5.48299C-0.0278326 6.03567 -0.347596 7.72133 0.410361 9.3162C0.757758 10.0544 1.2907 10.6545 1.91048 11.0098ZM1.48019 6.19753C1.61441 6.13436 1.75652 6.10278 1.90654 6.10278C2.59343 6.10278 3.40666 6.73046 3.86064 7.67791C4.14093 8.27006 4.24752 8.89775 4.15672 9.44253C4.07382 9.93599 3.84485 10.2952 3.50535 10.4571C3.16585 10.6189 2.7395 10.5716 2.30525 10.3189C1.82758 10.0426 1.40518 9.56491 1.12489 8.97275C0.576164 7.82397 0.738019 6.54887 1.48019 6.19753Z" fill="#4F5464"/>
<path d="M4.26723 3.95943C4.68174 5.55825 5.86999 6.67149 7.04641 6.67149C7.20037 6.67149 7.35433 6.65176 7.50829 6.61228C8.82287 6.26883 9.51371 4.52 9.03999 2.71196C8.57021 0.903918 7.11352 -0.284337 5.79894 0.0591119C4.48435 0.402561 3.79351 2.15139 4.26723 3.95943ZM5.99632 0.824964C6.87666 0.595998 7.91885 1.55134 8.27414 2.91329C8.62943 4.27525 8.18729 5.62141 7.30695 5.85037C6.43057 6.07934 5.38443 5.124 5.02913 3.76205C4.67384 2.40009 5.11993 1.05393 5.99632 0.824964Z" fill="#4F5464"/>
</svg>
