<svg width="37" height="34" viewBox="0 0 37 34" fill="none" xmlns="http://www.w3.org/2000/svg">
<path d="M24.1777 21.9469C23.755 21.9484 23.3361 21.8662 22.9453 21.7049C22.5545 21.5436 22.1996 21.3064 21.9009 21.0072L18.6122 17.7163C18.4958 17.605 18.3411 17.543 18.1801 17.543C18.0192 17.543 17.8644 17.605 17.7481 17.7163L14.4482 21.0162C14.1498 21.3159 13.7949 21.5535 13.4041 21.7153C13.0133 21.8771 12.5944 21.9598 12.1714 21.9587H11.5275L15.695 26.1261C16.32 26.7498 17.1669 27.1001 18.0499 27.1001C18.9329 27.1001 19.7798 26.7498 20.4048 26.1261L24.5806 21.9497L24.1777 21.9469Z" fill="#32BCAD"/>
<path d="M12.1721 10.3169C12.5951 10.3158 13.0141 10.3985 13.4048 10.5603C13.7956 10.722 14.1505 10.9597 14.4489 11.2594L17.7488 14.56C17.8635 14.6744 18.0189 14.7386 18.1808 14.7386C18.3428 14.7386 18.4981 14.6744 18.6129 14.56L21.9009 11.2719C22.1991 10.9718 22.5539 10.7339 22.9447 10.572C23.3356 10.41 23.7547 10.3274 24.1777 10.3287H24.5737L20.3979 6.15295C20.0887 5.84362 19.7216 5.59824 19.3175 5.43083C18.9134 5.26341 18.4803 5.17725 18.043 5.17725C17.6056 5.17725 17.1725 5.26341 16.7684 5.43083C16.3644 5.59824 15.9972 5.84362 15.688 6.15295L11.5275 10.3169H12.1721Z" fill="#32BCAD"/>
<path d="M28.0293 13.7835L25.5059 11.2601C25.449 11.2834 25.3882 11.2957 25.3267 11.2963H24.1793C23.5822 11.2977 23.0098 11.5349 22.5866 11.9561L19.2985 15.2421C19.0024 15.5377 18.6011 15.7037 18.1827 15.7037C17.7643 15.7037 17.363 15.5377 17.0669 15.2421L13.7663 11.9436C13.3432 11.5221 12.7708 11.2847 12.1736 11.2831H10.765C10.707 11.2818 10.6496 11.2702 10.5956 11.249L8.05621 13.7835C7.43251 14.4085 7.08223 15.2555 7.08223 16.1384C7.08223 17.0214 7.43251 17.8684 8.05621 18.4934L10.59 21.0272C10.6439 21.0056 10.7014 20.994 10.7595 20.9931H12.1736C12.7708 20.9914 13.3431 20.754 13.7663 20.3326L17.0662 17.0327C17.6628 16.4368 18.7026 16.4368 19.2985 17.0327L22.5866 20.3201C23.0098 20.7413 23.5822 20.9785 24.1793 20.98H25.3267C25.3882 20.9804 25.449 20.9926 25.5059 21.0161L28.0293 18.4927C28.3386 18.1835 28.584 17.8164 28.7514 17.4123C28.9188 17.0082 29.005 16.5751 29.005 16.1378C29.005 15.7004 28.9188 15.2673 28.7514 14.8632C28.584 14.4592 28.3386 14.092 28.0293 13.7828" fill="#32BCAD"/>
<rect x="0.431466" y="0.431466" width="35.2189" height="32.2846" rx="4.74612" stroke="#090F47" stroke-opacity="0.1" strokeWidth="0.862932"/>
</svg>
